{
.appVersion = "1346";
DisplayStrings = (
"Ithaca,/space New/space York\012Didactic.",

glyphs = (
{
glyphname = A;
lastChange = "2020-10-09 20:58:52 +0000";
layers = (
{
anchors = (
{
name = bottom;
position = "{773, 0}";
},
{
name = ogonek;
position = "{1503, 0}";
},
{
name = top;
position = "{773, 1400}";
}
);
layerId = "14A1E899-FED4-4F52-86F4-A1F822586E10";
paths = (
{
closed = 1;
nodes = (
"466 0 LINE",
"466 64 LINE",
"357 64 OFFCURVE",
"328 77 OFFCURVE",
"328 117 CURVE SMOOTH",
"328 134 OFFCURVE",
"335 156 OFFCURVE",
"346 184 CURVE SMOOTH",
"452 460 LINE",
"979 460 LINE",
"1093 178 LINE SMOOTH",
"1103 152 OFFCURVE",
"1109 126 OFFCURVE",
"1109 110 CURVE SMOOTH",
"1109 72 OFFCURVE",
"1089 64 OFFCURVE",
"987 64 CURVE",
"987 0 LINE",
"1503 0 LINE",
"1503 64 LINE",
"1443 64 OFFCURVE",
"1371 80 OFFCURVE",
"1324 198 CURVE SMOOTH",
"836 1410 LINE",
"794 1410 LINE",
"765 1354 OFFCURVE",
"683 1294 OFFCURVE",
"636 1264 CURVE",
"659 1215 LINE",
"248 196 LINE SMOOTH",
"204 87 OFFCURVE",
"140 64 OFFCURVE",
"25 64 CURVE",
"25 0 LINE"
);
},
{
closed = 1;
nodes = (
"712 1116 LINE",
"952 528 LINE",
"479 528 LINE"
);
}
);
width = 1528;
}
);
leftKerningGroup = A;
rightKerningGroup = A;
unicode = 0041;
},
{
glyphname = AE;
lastChange = "2020-10-01 04:00:56 +0000";
layers = (
{
anchors = (
{
name = bottom;
position = "{1060, 0}";
},
{
name = top;
position = "{1060, 1400}";
}
);
layerId = "14A1E899-FED4-4F52-86F4-A1F822586E10";
paths = (
{
closed = 1;
nodes = (
"1966 0 LINE",
"2023 376 LINE",
"1936 376 LINE",
"1901 226 OFFCURVE",
"1807 64 OFFCURVE",
"1651 64 CURVE SMOOTH",
"1251 64 LINE",
"1251 703 LINE",
"1473 703 LINE SMOOTH",
"1529 703 OFFCURVE",
"1602 632 OFFCURVE",
"1602 516 CURVE",
"1676 516 LINE",
"1676 944 LINE",
"1602 944 LINE",
"1602 846 OFFCURVE",
"1529 767 OFFCURVE",
"1473 767 CURVE SMOOTH",
"1251 767 LINE",
"1251 1336 LINE",
"1628 1336 LINE SMOOTH",
"1749 1336 OFFCURVE",
"1853 1204 OFFCURVE",
"1887 1064 CURVE",
"1975 1064 LINE",
"1917 1400 LINE",
"871 1400 LINE",
"871 1336 LINE",
"1017 1336 OFFCURVE",
"1055 1322 OFFCURVE",
"1055 1289 CURVE SMOOTH",
"1055 156 LINE SMOOTH",
"1055 78 OFFCURVE",
"1013 64 OFFCURVE",
"871 64 CURVE",
"871 0 LINE"
);
},
{
closed = 1;
nodes = (
"1102 1336 LINE",
"1005 1336 LINE",
"248 186 LINE SMOOTH",
"182 86 OFFCURVE",
"140 54 OFFCURVE",
"25 54 CURVE",
"25 -10 LINE",
"466 -10 LINE",
"466 54 LINE",
"357 54 OFFCURVE",
"328 67 OFFCURVE",
"328 107 CURVE SMOOTH",
"328 124 OFFCURVE",
"328 146 OFFCURVE",
"346 174 CURVE SMOOTH"
);
},
{
closed = 1;
nodes = (
"489 460 LINE",
"1135 460 LINE",
"1135 525 LINE",
"509 525 LINE"
);
}
);
width = 2104;
}
);
leftKerningGroup = A;
leftMetricsKey = A;
rightKerningGroup = E;
rightMetricsKey = E;
unicode = 00C6;
},
{
glyphname = B;
lastChange = "2020-10-09 21:35:32 +0000";
layers = (
{
anchors = (
{
name = bottom;
position = "{702, 0}";
},
{
name = top;
position = "{702, 1400}";
}
);
layerId = "14A1E899-FED4-4F52-86F4-A1F822586E10";
paths = (
{
closed = 1;
nodes = (
"812 0 LINE SMOOTH",
"1146 0 OFFCURVE",
"1344 156 OFFCURVE",
"1344 388 CURVE SMOOTH",
"1344 652 OFFCURVE",
"1108 732 OFFCURVE",
"894 732 CURVE",
"1032 732 OFFCURVE",
"1279 836 OFFCURVE",
"1279 1070 CURVE SMOOTH",
"1279 1312 OFFCURVE",
"1029 1400 OFFCURVE",
"767 1400 CURVE SMOOTH",
"100 1400 LINE",
"100 1336 LINE",
"250 1336 OFFCURVE",
"282 1332 OFFCURVE",
"282 1254 CURVE SMOOTH",
"282 154 LINE SMOOTH",
"282 76 OFFCURVE",
"250 64 OFFCURVE",
"100 64 CURVE",
"100 0 LINE"
);
},
{
closed = 1;
nodes = (
"487 692 LINE",
"773 692 LINE SMOOTH",
"943 692 OFFCURVE",
"1088 576 OFFCURVE",
"1088 358 CURVE SMOOTH",
"1088 140 OFFCURVE",
"976 64 OFFCURVE",
"793 64 CURVE SMOOTH",
"487 64 LINE"
);
},
{
closed = 1;
nodes = (
"487 1336 LINE",
"742 1336 LINE SMOOTH",
"913 1336 OFFCURVE",
"1043 1234 OFFCURVE",
"1043 1060 CURVE SMOOTH",
"1043 894 OFFCURVE",
"932 758 OFFCURVE",
"759 758 CURVE SMOOTH",
"487 758 LINE"
);
}
);
width = 1404;
}
);
leftKerningGroup = H;
leftMetricsKey = H;
rightKerningGroup = O;
rightMetricsKey = "=O-40";
unicode = 0042;
},
{
glyphname = C;
lastChange = "2020-10-09 20:59:37 +0000";
layers = (
{
anchors = (
{
name = bottom;
position = "{793, 0}";
},
{
name = top;
position = "{793, 1400}";
}
);
layerId = "14A1E899-FED4-4F52-86F4-A1F822586E10";
paths = (
{
closed = 1;
nodes = (
"1109 -22 OFFCURVE",
"1231 71 OFFCURVE",
"1408 234 CURVE",
"1365 287 LINE",
"1221 157 OFFCURVE",
"1107 60 OFFCURVE",
"874 60 CURVE SMOOTH",
"529 60 OFFCURVE",
"357 390 OFFCURVE",
"357 738 CURVE SMOOTH",
"357 1086 OFFCURVE",
"509 1350 OFFCURVE",
"854 1350 CURVE SMOOTH",
"1040 1350 OFFCURVE",
"1244 1148 OFFCURVE",
"1279 948 CURVE",
"1385 948 LINE",
"1385 1400 LINE",
"1312 1400 LINE",
"1260 1289 LINE",
"1189 1345 OFFCURVE",
"1042 1416 OFFCURVE",
"843 1416 CURVE SMOOTH",
"433 1416 OFFCURVE",
"100 1150 OFFCURVE",
"100 698 CURVE SMOOTH",
"100 246 OFFCURVE",
"433 -22 OFFCURVE",
"843 -22 CURVE SMOOTH"
);
}
);
width = 1508;
}
);
leftKerningGroup = O;
leftMetricsKey = O;
rightKerningGroup = C;
unicode = 0043;
},
{
glyphname = D;
lastChange = "2020-09-04 16:30:19 +0000";
layers = (
{
anchors = (
{
name = bottom;
position = "{759, 0}";
},
{
name = center;
position = "{759, 700}";
},
{
name = top;
position = "{759, 1400}";
}
);
layerId = "14A1E899-FED4-4F52-86F4-A1F822586E10";
paths = (
{
closed = 1;
nodes = (
"641 0 LINE SMOOTH",
"1103 0 OFFCURVE",
"1434 246 OFFCURVE",
"1434 702 CURVE SMOOTH",
"1434 1154 OFFCURVE",
"1105 1400 OFFCURVE",
"643 1400 CURVE SMOOTH",
"100 1400 LINE",
"100 1336 LINE",
"245 1336 OFFCURVE",
"284 1334 OFFCURVE",
"284 1254 CURVE SMOOTH",
"284 158 LINE SMOOTH",
"284 80 OFFCURVE",
"247 64 OFFCURVE",
"100 64 CURVE",
"100 0 LINE"
);
},
{
closed = 1;
nodes = (
"490 1336 LINE",
"664 1336 LINE SMOOTH",
"1085 1336 OFFCURVE",
"1179 970 OFFCURVE",
"1179 702 CURVE SMOOTH",
"1179 366 OFFCURVE",
"1050 64 OFFCURVE",
"641 64 CURVE SMOOTH",
"490 64 LINE"
);
}
);
width = 1534;
}
);
leftKerningGroup = H;
leftMetricsKey = H;
rightKerningGroup = O;
rightMetricsKey = O;
unicode = 0044;
},
{
glyphname = Eth;
lastChange = "2020-09-04 16:30:19 +0000";
layers = (
{
components = (
{
name = D;
}
);
layerId = "14A1E899-FED4-4F52-86F4-A1F822586E10";
paths = (
{
closed = 1;
nodes = (
"816 659 LINE",
"816 741 LINE",
"114 741 LINE",
"114 659 LINE"
);
}
);
width = 1534;
}
);
leftKerningGroup = D;
leftMetricsKey = D;
rightKerningGroup = D;
rightMetricsKey = D;
unicode = 00D0;
},
{
glyphname = E;
lastChange = "2020-10-09 20:33:52 +0000";
layers = (
{
anchors = (
{
name = bottom;
position = "{683, 0}";
},
{
name = ogonek;
position = "{1285, 0}";
},
{
name = top;
position = "{683, 1400}";
},
{
name = topleft;
position = "{-22, 1400}";
}
);
layerId = "14A1E899-FED4-4F52-86F4-A1F822586E10";
paths = (
{
closed = 1;
nodes = (
"1285 0 LINE",
"1342 376 LINE",
"1235 376 LINE",
"1200 226 OFFCURVE",
"1106 64 OFFCURVE",
"950 64 CURVE SMOOTH",
"490 64 LINE",
"490 703 LINE",
"772 703 LINE SMOOTH",
"828 703 OFFCURVE",
"901 632 OFFCURVE",
"901 516 CURVE",
"995 516 LINE",
"995 944 LINE",
"901 944 LINE",
"901 846 OFFCURVE",
"828 767 OFFCURVE",
"772 767 CURVE SMOOTH",
"490 767 LINE",
"490 1336 LINE",
"927 1336 LINE SMOOTH",
"1048 1336 OFFCURVE",
"1152 1204 OFFCURVE",
"1186 1064 CURVE",
"1294 1064 LINE",
"1236 1400 LINE",
"100 1400 LINE",
"100 1336 LINE",
"246 1336 OFFCURVE",
"284 1331 OFFCURVE",
"284 1260 CURVE SMOOTH",
"284 156 LINE SMOOTH",
"284 78 OFFCURVE",
"242 64 OFFCURVE",
"100 64 CURVE",
"100 0 LINE"
);
}
);
width = 1423;
}
);
leftKerningGroup = H;
leftMetricsKey = H;
rightKerningGroup = E;
unicode = 0045;
},
{
glyphname = F;
lastChange = "2020-10-09 20:33:59 +0000";
layers = (
{
anchors = (
{
name = bottom;
position = "{629, 0}";
},
{
name = top;
position = "{629, 1400}";
}
);
layerId = "14A1E899-FED4-4F52-86F4-A1F822586E10";
paths = (
{
closed = 1;
nodes = (
"671 0 LINE",
"671 64 LINE",
"554 64 OFFCURVE",
"487 73 OFFCURVE",
"487 156 CURVE SMOOTH",
"487 643 LINE",
"748 643 LINE SMOOTH",
"803 643 OFFCURVE",
"877 582 OFFCURVE",
"877 466 CURVE",
"984 466 LINE",
"984 874 LINE",
"877 874 LINE",
"877 776 OFFCURVE",
"803 707 OFFCURVE",
"748 707 CURVE SMOOTH",
"487 707 LINE",
"487 1336 LINE",
"930 1336 LINE SMOOTH",
"1042 1336 OFFCURVE",
"1127 1214 OFFCURVE",
"1162 1074 CURVE",
"1269 1074 LINE",
"1212 1400 LINE",
"100 1400 LINE",
"100 1336 LINE",
"234 1336 OFFCURVE",
"284 1328 OFFCURVE",
"284 1261 CURVE SMOOTH",
"284 156 LINE SMOOTH",
"284 73 OFFCURVE",
"241 64 OFFCURVE",
"100 64 CURVE",
"100 0 LINE"
);
}
);
width = 1310;
}
);
leftKerningGroup = H;
leftMetricsKey = H;
rightKerningGroup = F;
rightMetricsKey = "=E-40";
unicode = 0046;
},
{
glyphname = G;
lastChange = "2020-10-09 20:59:53 +0000";
layers = (
{
anchors = (
{
name = bottom;
position = "{782, 0}";
},
{
name = top;
position = "{782, 1400}";
}
);
layerId = "14A1E899-FED4-4F52-86F4-A1F822586E10";
paths = (
{
closed = 1;
nodes = (
"1162 -22 OFFCURVE",
"1358 100 OFFCURVE",
"1388 138 CURVE",
"1388 448 LINE SMOOTH",
"1388 538 OFFCURVE",
"1436 548 OFFCURVE",
"1510 548 CURVE",
"1510 612 LINE",
"947 612 LINE",
"947 548 LINE",
"1117 548 OFFCURVE",
"1175 538 OFFCURVE",
"1175 442 CURVE SMOOTH",
"1175 252 LINE SMOOTH",
"1175 136 OFFCURVE",
"1089 50 OFFCURVE",
"843 50 CURVE SMOOTH",
"486 50 OFFCURVE",
"365 390 OFFCURVE",
"365 738 CURVE SMOOTH",
"365 1086 OFFCURVE",
"486 1350 OFFCURVE",
"843 1350 CURVE SMOOTH",
"1043 1350 OFFCURVE",
"1220 1166 OFFCURVE",
"1279 968 CURVE",
"1385 968 LINE",
"1385 1400 LINE",
"1312 1400 LINE",
"1272 1289 LINE",
"1200 1354 OFFCURVE",
"1054 1416 OFFCURVE",
"831 1416 CURVE SMOOTH",
"422 1416 OFFCURVE",
"100 1150 OFFCURVE",
"100 698 CURVE SMOOTH",
"100 246 OFFCURVE",
"422 -22 OFFCURVE",
"831 -22 CURVE SMOOTH"
);
}
);
width = 1591;
}
);
leftKerningGroup = O;
leftMetricsKey = O;
rightKerningGroup = G;
rightMetricsKey = E;
unicode = 0047;
},
{
glyphname = H;
lastChange = "2020-09-04 16:30:16 +0000";
layers = (
{
anchors = (
{
name = bottom;
position = "{865, 0}";
},
{
name = center;
position = "{865, 700}";
},
{
name = top;
position = "{865, 1400}";
},
{
name = topleft;
position = "{0, 1400}";
}
);
layerId = "14A1E899-FED4-4F52-86F4-A1F822586E10";
paths = (
{
closed = 1;
nodes = (
"1629 0 LINE",
"1629 64 LINE",
"1493 64 OFFCURVE",
"1438 70 OFFCURVE",
"1438 166 CURVE SMOOTH",
"1438 1244 LINE SMOOTH",
"1438 1333 OFFCURVE",
"1507 1336 OFFCURVE",
"1629 1336 CURVE",
"1629 1400 LINE",
"1233 1400 LINE",
"1233 0 LINE"
);
},
{
closed = 1;
nodes = (
"497 0 LINE",
"497 1400 LINE",
"100 1400 LINE",
"100 1336 LINE",
"222 1336 OFFCURVE",
"291 1333 OFFCURVE",
"291 1244 CURVE SMOOTH",
"291 166 LINE SMOOTH",
"291 70 OFFCURVE",
"236 64 OFFCURVE",
"100 64 CURVE",
"100 0 LINE"
);
},
{
closed = 1;
nodes = (
"687 0 LINE",
"687 64 LINE",
"552 64 OFFCURVE",
"497 70 OFFCURVE",
"497 166 CURVE SMOOTH",
"497 1244 LINE SMOOTH",
"497 1333 OFFCURVE",
"566 1336 OFFCURVE",
"687 1336 CURVE",
"687 1400 LINE",
"291 1400 LINE",
"291 0 LINE"
);
},
{
closed = 1;
nodes = (
"1269 688 LINE",
"1269 762 LINE",
"375 762 LINE",
"375 688 LINE"
);
},
{
closed = 1;
nodes = (
"1438 0 LINE",
"1438 1400 LINE",
"1042 1400 LINE",
"1042 1336 LINE",
"1164 1336 OFFCURVE",
"1233 1333 OFFCURVE",
"1233 1244 CURVE SMOOTH",
"1233 166 LINE SMOOTH",
"1233 70 OFFCURVE",
"1177 64 OFFCURVE",
"1042 64 CURVE",
"1042 0 LINE"
);
}
);
width = 1729;
}
);
leftKerningGroup = H;
rightKerningGroup = H;
unicode = 0048;
},
{
glyphname = Hbar;
lastChange = "2020-09-04 02:41:18 +0000";
layers = (
{
components = (
{
name = H;
}
);
layerId = "14A1E899-FED4-4F52-86F4-A1F822586E10";
paths = (
{
closed = 1;
nodes = (
"1630 1004 LINE",
"1630 1074 LINE",
"112 1074 LINE",
"112 1004 LINE"
);
}
);
width = 1741;
}
);
unicode = 0126;
},
{
glyphname = I;
lastChange = "2020-09-04 16:30:19 +0000";
layers = (
{
anchors = (
{
name = bottom;
position = "{394, 0}";
},
{
name = ogonek;
position = "{687, 0}";
},
{
name = top;
position = "{394, 1400}";
},
{
name = topleft;
position = "{-2, 1400}";
}
);
layerId = "14A1E899-FED4-4F52-86F4-A1F822586E10";
paths = (
{
closed = 1;
nodes = (
"687 0 LINE",
"687 64 LINE",
"552 64 OFFCURVE",
"497 70 OFFCURVE",
"497 166 CURVE SMOOTH",
"497 1244 LINE SMOOTH",
"497 1333 OFFCURVE",
"566 1336 OFFCURVE",
"687 1336 CURVE",
"687 1400 LINE",
"291 1400 LINE",
"291 0 LINE"
);
},
{
closed = 1;
nodes = (
"497 0 LINE",
"497 1400 LINE",
"100 1400 LINE",
"100 1336 LINE",
"222 1336 OFFCURVE",
"291 1333 OFFCURVE",
"291 1244 CURVE SMOOTH",
"291 166 LINE SMOOTH",
"291 70 OFFCURVE",
"236 64 OFFCURVE",
"100 64 CURVE",
"100 0 LINE"
);
}
);
width = 787;
}
);
leftKerningGroup = H;
leftMetricsKey = H;
rightKerningGroup = H;
rightMetricsKey = H;
unicode = 0049;
},
{
glyphname = J;
lastChange = "2020-10-01 03:36:33 +0000";
layers = (
{
anchors = (
{
name = bottom;
position = "{550, 0}";
},
{
name = top;
position = "{550, 1400}";
}
);
layerId = "14A1E899-FED4-4F52-86F4-A1F822586E10";
paths = (
{
closed = 1;
nodes = (
"493 1336 OFFCURVE",
"572 1333 OFFCURVE",
"572 1244 CURVE SMOOTH",
"572 339 LINE SMOOTH",
"572 183 OFFCURVE",
"541 27 OFFCURVE",
"384 27 CURVE SMOOTH",
"259 27 OFFCURVE",
"235 141 OFFCURVE",
"222 221 CURVE",
"262 363 LINE",
"40 323 LINE",
"60 46 OFFCURVE",
"205 -29 OFFCURVE",
"378 -29 CURVE SMOOTH",
"620 -29 OFFCURVE",
"775 137 OFFCURVE",
"775 345 CURVE SMOOTH",
"775 1244 LINE SMOOTH",
"775 1333 OFFCURVE",
"834 1336 OFFCURVE",
"956 1336 CURVE",
"956 1400 LINE",
"371 1400 LINE",
"371 1336 LINE"
);
}
);
width = 1006;
}
);
leftKerningGroup = J;
rightKerningGroup = J;
rightMetricsKey = "=H-50";
unicode = 004A;
},
{
glyphname = J.ss01;
lastChange = "2020-10-01 03:36:17 +0000";
layers = (
{
anchors = (
{
name = bottom;
position = "{272, 0}";
},
{
name = top;
position = "{272, 1400}";
}
);
layerId = "14A1E899-FED4-4F52-86F4-A1F822586E10";
paths = (
{
closed = 1;
nodes = (
"215 1336 OFFCURVE",
"294 1333 OFFCURVE",
"294 1244 CURVE SMOOTH",
"294 -82 LINE SMOOTH",
"294 -238 OFFCURVE",
"283 -394 OFFCURVE",
"199 -394 CURVE SMOOTH",
"116 -394 OFFCURVE",
"105 -341 OFFCURVE",
"92 -271 CURVE",
"132 -149 LINE",
"-90 -189 LINE",
"-84 -313 OFFCURVE",
"10 -450 OFFCURVE",
"183 -450 CURVE SMOOTH",
"370 -450 OFFCURVE",
"497 -284 OFFCURVE",
"497 -76 CURVE SMOOTH",
"497 1244 LINE SMOOTH",
"497 1333 OFFCURVE",
"556 1336 OFFCURVE",
"678 1336 CURVE",
"678 1400 LINE",
"93 1400 LINE",
"93 1336 LINE"
);
}
);
width = 728;
}
);
},
{
glyphname = K;
lastChange = "2020-09-04 16:39:19 +0000";
layers = (
{
anchors = (
{
name = bottom;
position = "{764, 0}";
},
{
name = top;
position = "{764, 1400}";
}
);
layerId = "14A1E899-FED4-4F52-86F4-A1F822586E10";
paths = (
{
closed = 1;
nodes = (
"1515 0 LINE",
"1515 64 LINE",
"1439 64 OFFCURVE",
"1377 73 OFFCURVE",
"1324 136 CURVE SMOOTH",
"772 794 LINE",
"1293 1288 LINE SMOOTH",
"1342 1335 OFFCURVE",
"1395 1336 OFFCURVE",
"1473 1336 CURVE",
"1473 1400 LINE",
"1038 1400 LINE",
"1038 1336 LINE",
"1118 1336 OFFCURVE",
"1153 1328 OFFCURVE",
"1153 1297 CURVE SMOOTH",
"1153 1280 OFFCURVE",
"1138 1257 OFFCURVE",
"1102 1224 CURVE SMOOTH",
"493 660 LINE",
"493 549 LINE",
"625 664 LINE",
"1023 200 LINE SMOOTH",
"1055 162 OFFCURVE",
"1069 138 OFFCURVE",
"1069 118 CURVE SMOOTH",
"1069 77 OFFCURVE",
"1010 64 OFFCURVE",
"922 64 CURVE",
"922 0 LINE"
);
},
{
closed = 1;
nodes = (
"685 0 LINE",
"685 64 LINE",
"549 64 OFFCURVE",
"494 70 OFFCURVE",
"494 166 CURVE SMOOTH",
"494 1244 LINE SMOOTH",
"494 1333 OFFCURVE",
"563 1336 OFFCURVE",
"685 1336 CURVE",
"685 1400 LINE",
"100 1400 LINE",
"100 1336 LINE",
"222 1336 OFFCURVE",
"291 1333 OFFCURVE",
"291 1244 CURVE SMOOTH",
"291 166 LINE SMOOTH",
"291 70 OFFCURVE",
"236 64 OFFCURVE",
"100 64 CURVE",
"100 0 LINE"
);
}
);
width = 1540;
}
);
leftKerningGroup = H;
leftMetricsKey = H;
rightKerningGroup = K;
rightMetricsKey = A;
unicode = 004B;
},
{
glyphname = L;
lastChange = "2020-10-09 20:35:21 +0000";
layers = (
{
anchors = (
{
name = bottom;
position = "{650, 0}";
},
{
name = center;
position = "{410, 700}";
},
{
name = top;
position = "{650, 1400}";
},
{
name = topright;
position = "{1310, 1400}";
}
);
layerId = "14A1E899-FED4-4F52-86F4-A1F822586E10";
paths = (
{
closed = 1;
nodes = (
"687 0 LINE",
"687 64 LINE",
"552 64 OFFCURVE",
"497 70 OFFCURVE",
"497 166 CURVE SMOOTH",
"497 1244 LINE SMOOTH",
"497 1333 OFFCURVE",
"566 1336 OFFCURVE",
"687 1336 CURVE",
"687 1400 LINE",
"291 1400 LINE",
"291 0 LINE"
);
},
{
closed = 1;
nodes = (
"497 0 LINE",
"497 1400 LINE",
"100 1400 LINE",
"100 1336 LINE",
"222 1336 OFFCURVE",
"291 1333 OFFCURVE",
"291 1244 CURVE SMOOTH",
"291 166 LINE SMOOTH",
"291 70 OFFCURVE",
"236 64 OFFCURVE",
"100 64 CURVE",
"100 0 LINE"
);
},
{
closed = 1;
nodes = (
"1218 0 LINE",
"1275 376 LINE",
"1178 376 LINE",
"1143 226 OFFCURVE",
"1049 64 OFFCURVE",
"892 64 CURVE SMOOTH",
"579 64 LINE",
"579 0 LINE"
);
}
);
width = 1356;
}
);
leftKerningGroup = H;
leftMetricsKey = H;
rightKerningGroup = L;
rightMetricsKey = E;
unicode = 004C;
},
{
glyphname = Lslash;
lastChange = "2020-09-04 16:30:19 +0000";
layers = (
{
components = (
{
name = L;
transform = "{1, 0, 0, 1, 65, 0}";
}
);
layerId = "14A1E899-FED4-4F52-86F4-A1F822586E10";
paths = (
{
closed = 1;
nodes = (
"165 308 LINE",
"835 939 LINE",
"771 1006 LINE",
"100 376 LINE"
);
}
);
width = 1421;
}
);
leftKerningGroup = L;
leftMetricsKey = L;
rightKerningGroup = L;
rightMetricsKey = L;
unicode = 0141;
},
{
glyphname = M;
lastChange = "2020-10-01 03:53:52 +0000";
layers = (
{
anchors = (
{
name = bottom;
position = "{942, 0}";
},
{
name = top;
position = "{942, 1400}";
}
);
layerId = "14A1E899-FED4-4F52-86F4-A1F822586E10";
paths = (
{
closed = 1;
nodes = (
"560 0 LINE",
"560 64 LINE",
"443 64 OFFCURVE",
"376 64 OFFCURVE",
"376 126 CURVE SMOOTH",
"376 1260 LINE",
"862 0 LINE",
"937 0 LINE",
"1406 1214 LINE",
"1406 126 LINE SMOOTH",
"1406 64 OFFCURVE",
"1340 64 OFFCURVE",
"1222 64 CURVE",
"1222 0 LINE",
"1793 0 LINE",
"1793 64 LINE",
"1676 64 OFFCURVE",
"1609 64 OFFCURVE",
"1609 126 CURVE SMOOTH",
"1609 1274 LINE SMOOTH",
"1609 1336 OFFCURVE",
"1676 1336 OFFCURVE",
"1793 1336 CURVE",
"1793 1400 LINE",
"1391 1400 LINE",
"981 322 LINE",
"570 1400 LINE",
"100 1400 LINE",
"100 1336 LINE",
"218 1336 OFFCURVE",
"284 1336 OFFCURVE",
"284 1274 CURVE SMOOTH",
"284 126 LINE SMOOTH",
"284 64 OFFCURVE",
"218 64 OFFCURVE",
"100 64 CURVE",
"100 0 LINE"
);
}
);
width = 1893;
}
);
leftKerningGroup = H;
leftMetricsKey = H;
rightKerningGroup = H;
rightMetricsKey = H;
unicode = 004D;
},
{
glyphname = N;
lastChange = "2020-10-09 20:59:22 +0000";
layers = (
{
anchors = (
{
name = bottom;
position = "{858, 0}";
},
{
name = top;
position = "{858, 1400}";
}
);
layerId = "14A1E899-FED4-4F52-86F4-A1F822586E10";
paths = (
{
closed = 1;
nodes = (
"582 0 LINE",
"582 64 LINE",
"464 64 OFFCURVE",
"398 64 OFFCURVE",
"398 126 CURVE SMOOTH",
"398 1244 LINE",
"1287 0 LINE",
"1380 0 LINE",
"1380 1274 LINE SMOOTH",
"1380 1336 OFFCURVE",
"1447 1336 OFFCURVE",
"1564 1336 CURVE",
"1564 1400 LINE",
"1083 1400 LINE",
"1083 1336 LINE",
"1200 1336 OFFCURVE",
"1267 1336 OFFCURVE",
"1267 1274 CURVE SMOOTH",
"1267 394 LINE",
"569 1400 LINE",
"100 1400 LINE",
"100 1336 LINE",
"218 1336 OFFCURVE",
"284 1336 OFFCURVE",
"284 1274 CURVE SMOOTH",
"284 126 LINE SMOOTH",
"284 64 OFFCURVE",
"218 64 OFFCURVE",
"100 64 CURVE",
"100 0 LINE"
);
}
);
width = 1634;
}
);
leftKerningGroup = H;
leftMetricsKey = H;
rightKerningGroup = H;
rightMetricsKey = "=H-30";
unicode = 004E;
},
{
glyphname = Eng;
lastChange = "2020-09-04 16:41:01 +0000";
layers = (
{
components = (
{
name = N;
}
);
layerId = "14A1E899-FED4-4F52-86F4-A1F822586E10";
paths = (
{
closed = 1;
nodes = (
"1269 -504 OFFCURVE",
"1380 -353 OFFCURVE",
"1380 -25 CURVE SMOOTH",
"1380 109 LINE",
"1274 109 LINE",
"1274 -31 LINE SMOOTH",
"1274 -357 OFFCURVE",
"1175 -412 OFFCURVE",
"1078 -412 CURVE SMOOTH",
"1000 -412 OFFCURVE",
"960 -372 OFFCURVE",
"951 -350 CURVE",
"885 -448 LINE",
"927 -478 OFFCURVE",
"981 -504 OFFCURVE",
"1063 -504 CURVE SMOOTH"
);
},
{
closed = 1;
nodes = (
"1007 -414 LINE",
"1058 -192 LINE",
"865 -222 LINE",
"885 -448 LINE"
);
}
);
width = 1634;
}
);
leftKerningGroup = N;
leftMetricsKey = N;
rightKerningGroup = N;
rightMetricsKey = N;
unicode = 014A;
},
{
glyphname = O;
lastChange = "2020-10-09 21:21:24 +0000";
layers = (
{
anchors = (
{
name = bottom;
position = "{821, 0}";
},
{
name = center;
position = "{821, 700}";
},
{
name = ogonek;
position = "{1244, 109}";
},
{
name = top;
position = "{821, 1400}";
},
{
name = topleft;
position = "{-5, 1400}";
},
{
name = topright;
position = "{1259, 1260}";
}
);
layerId = "14A1E899-FED4-4F52-86F4-A1F822586E10";
paths = (
{
closed = 1;
nodes = (
"1240 -18 OFFCURVE",
"1542 268 OFFCURVE",
"1542 698 CURVE SMOOTH",
"1542 1128 OFFCURVE",
"1240 1416 OFFCURVE",
"820 1416 CURVE SMOOTH",
"394 1416 OFFCURVE",
"100 1128 OFFCURVE",
"100 698 CURVE SMOOTH",
"100 268 OFFCURVE",
"396 -18 OFFCURVE",
"820 -18 CURVE SMOOTH"
);
},
{
closed = 1;
nodes = (
"463 42 OFFCURVE",
"355 390 OFFCURVE",
"355 738 CURVE SMOOTH",
"355 1086 OFFCURVE",
"463 1358 OFFCURVE",
"820 1358 CURVE SMOOTH",
"1176 1358 OFFCURVE",
"1286 1008 OFFCURVE",
"1286 658 CURVE SMOOTH",
"1286 308 OFFCURVE",
"1176 42 OFFCURVE",
"820 42 CURVE SMOOTH"
);
}
);
width = 1642;
}
);
leftKerningGroup = O;
rightKerningGroup = O;
unicode = 004F;
},
{
glyphname = Ohorn;
lastChange = "2020-09-04 16:30:19 +0000";
layers = (
{
anchors = (
{
name = bottom;
position = "{841, 0}";
},
{
name = top;
position = "{841, 1400}";
}
);
components = (
{
name = horncomb;
transform = "{1, 0, 0, 1, 1200, 332}";
}
);
layerId = "14A1E899-FED4-4F52-86F4-A1F822586E10";
paths = (
{
closed = 1;
nodes = (
"1260 -18 OFFCURVE",
"1582 268 OFFCURVE",
"1582 698 CURVE SMOOTH",
"1582 1128 OFFCURVE",
"1260 1416 OFFCURVE",
"840 1416 CURVE SMOOTH",
"414 1416 OFFCURVE",
"100 1128 OFFCURVE",
"100 698 CURVE SMOOTH",
"100 268 OFFCURVE",
"416 -18 OFFCURVE",
"840 -18 CURVE SMOOTH"
);
},
{
closed = 1;
nodes = (
"483 42 OFFCURVE",
"375 390 OFFCURVE",
"375 738 CURVE SMOOTH",
"375 1086 OFFCURVE",
"483 1358 OFFCURVE",
"840 1358 CURVE SMOOTH",
"1196 1358 OFFCURVE",
"1306 1008 OFFCURVE",
"1306 658 CURVE SMOOTH",
"1306 308 OFFCURVE",
"1196 42 OFFCURVE",
"840 42 CURVE SMOOTH"
);
}
);
width = 1695;
}
);
leftKerningGroup = O;
leftMetricsKey = O;
rightKerningGroup = O;
rightMetricsKey = O;
unicode = 01A0;
},
{
glyphname = Oslash;
lastChange = "2020-09-04 02:46:02 +0000";
layers = (
{
anchors = (
{
name = bottom;
position = "{849, 0}";
},
{
name = top;
position = "{849, 1400}";
}
);
components = (
{
name = O;
}
);
layerId = "14A1E899-FED4-4F52-86F4-A1F822586E10";
paths = (
{
closed = 1;
nodes = (
"605 -155 LINE",
"1183 1524 LINE",
"1095 1554 LINE",
"514 -125 LINE"
);
}
);
width = 1697;
}
);
unicode = 00D8;
},
{
glyphname = OE;
lastChange = "2020-09-04 16:30:19 +0000";
layers = (
{
anchors = (
{
name = bottom;
position = "{1212, 0}";
},
{
name = top;
position = "{1212, 1400}";
}
);
layerId = "14A1E899-FED4-4F52-86F4-A1F822586E10";
paths = (
{
closed = 1;
nodes = (
"1260 -18 OFFCURVE",
"1534 268 OFFCURVE",
"1534 698 CURVE SMOOTH",
"1534 1128 OFFCURVE",
"1260 1416 OFFCURVE",
"840 1416 CURVE SMOOTH",
"414 1416 OFFCURVE",
"100 1128 OFFCURVE",
"100 698 CURVE SMOOTH",
"100 268 OFFCURVE",
"416 -18 OFFCURVE",
"840 -18 CURVE SMOOTH"
);
},
{
closed = 1;
nodes = (
"483 42 OFFCURVE",
"375 390 OFFCURVE",
"375 738 CURVE SMOOTH",
"375 1086 OFFCURVE",
"483 1358 OFFCURVE",
"840 1358 CURVE SMOOTH",
"1196 1358 OFFCURVE",
"1306 1008 OFFCURVE",
"1306 658 CURVE SMOOTH",
"1306 308 OFFCURVE",
"1196 42 OFFCURVE",
"840 42 CURVE SMOOTH"
);
},
{
closed = 1;
nodes = (
"2293 0 LINE",
"2350 376 LINE",
"2263 376 LINE",
"2228 226 OFFCURVE",
"2134 64 OFFCURVE",
"1978 64 CURVE SMOOTH",
"1538 64 LINE",
"1538 703 LINE",
"1800 703 LINE SMOOTH",
"1856 703 OFFCURVE",
"1929 632 OFFCURVE",
"1929 516 CURVE",
"2003 516 LINE",
"2003 944 LINE",
"1929 944 LINE",
"1929 846 OFFCURVE",
"1856 767 OFFCURVE",
"1800 767 CURVE SMOOTH",
"1538 767 LINE",
"1538 1336 LINE",
"1955 1336 LINE SMOOTH",
"2076 1336 OFFCURVE",
"2180 1204 OFFCURVE",
"2214 1064 CURVE",
"2302 1064 LINE",
"2244 1400 LINE",
"1342 1400 LINE",
"1342 0 LINE"
);
}
);
width = 2431;
}
);
leftKerningGroup = O;
leftMetricsKey = O;
rightKerningGroup = E;
rightMetricsKey = E;
unicode = 0152;
},
{
glyphname = P;
lastChange = "2020-09-04 16:30:19 +0000";
layers = (
{
anchors = (
{
name = bottom;
position = "{671, 0}";
},
{
name = top;
position = "{671, 1400}";
}
);
layerId = "14A1E899-FED4-4F52-86F4-A1F822586E10";
paths = (
{
closed = 1;
nodes = (
"671 0 LINE",
"671 64 LINE",
"543 64 OFFCURVE",
"487 72 OFFCURVE",
"487 156 CURVE SMOOTH",
"487 1336 LINE",
"678 1336 LINE SMOOTH",
"945 1336 OFFCURVE",
"1035 1138 OFFCURVE",
"1035 958 CURVE SMOOTH",
"1035 778 OFFCURVE",
"945 608 OFFCURVE",
"678 608 CURVE SMOOTH",
"437 608 LINE",
"437 542 LINE",
"687 542 LINE SMOOTH",
"1007 542 OFFCURVE",
"1269 700 OFFCURVE",
"1269 988 CURVE SMOOTH",
"1269 1276 OFFCURVE",
"1007 1400 OFFCURVE",
"687 1400 CURVE SMOOTH",
"100 1400 LINE",
"100 1336 LINE",
"229 1336 OFFCURVE",
"284 1329 OFFCURVE",
"284 1265 CURVE SMOOTH",
"284 156 LINE SMOOTH",
"284 72 OFFCURVE",
"241 64 OFFCURVE",
"100 64 CURVE",
"100 0 LINE"
);
}
);
width = 1329;
}
);
leftKerningGroup = H;
leftMetricsKey = H;
rightKerningGroup = P;
rightMetricsKey = B;
unicode = 0050;
},
{
glyphname = Thorn;
lastChange = "2020-09-04 16:30:19 +0000";
layers = (
{
components = (
{
name = I;
}
);
layerId = "14A1E899-FED4-4F52-86F4-A1F822586E10";
paths = (
{
closed = 1;
nodes = (
"426 1113 LINE",
"426 1049 LINE",
"537 1049 LINE SMOOTH",
"804 1049 OFFCURVE",
"894 881 OFFCURVE",
"894 701 CURVE SMOOTH",
"894 551 OFFCURVE",
"804 381 OFFCURVE",
"537 381 CURVE SMOOTH",
"376 381 LINE",
"376 315 LINE",
"546 315 LINE SMOOTH",
"866 315 OFFCURVE",
"1128 473 OFFCURVE",
"1128 731 CURVE SMOOTH",
"1128 989 OFFCURVE",
"866 1113 OFFCURVE",
"546 1113 CURVE"
);
}
);
width = 1228;
}
);
leftKerningGroup = I;
leftMetricsKey = I;
rightMetricsKey = O;
unicode = 00DE;
},
{
glyphname = Q;
lastChange = "2020-09-04 16:30:19 +0000";
layers = (
{
anchors = (
{
name = bottom;
position = "{851, 0}";
},
{
name = top;
position = "{851, 1400}";
}
);
components = (
{
name = O;
}
);
layerId = "14A1E899-FED4-4F52-86F4-A1F822586E10";
paths = (
{
closed = 1;
nodes = (
"830 -180 OFFCURVE",
"886 -144 OFFCURVE",
"983 -144 CURVE SMOOTH",
"1037 -144 OFFCURVE",
"1102 -155 OFFCURVE",
"1186 -178 CURVE SMOOTH",
"1261 -199 OFFCURVE",
"1333 -208 OFFCURVE",
"1398 -208 CURVE SMOOTH",
"1559 -208 OFFCURVE",
"1683 -154 OFFCURVE",
"1742 -86 CURVE",
"1698 -44 LINE",
"1642 -93 OFFCURVE",
"1583 -109 OFFCURVE",
"1535 -109 CURVE SMOOTH",
"1478 -109 OFFCURVE",
"1418 -91 OFFCURVE",
"1356 -71 CURVE SMOOTH",
"1287 -49 OFFCURVE",
"1212 -27 OFFCURVE",
"1134 -27 CURVE SMOOTH",
"993 -27 OFFCURVE",
"873 -83 OFFCURVE",
"797 -170 CURVE",
"776 -238 LINE"
);
},
{
closed = 1;
nodes = (
"845 -86 OFFCURVE",
"907 -31 OFFCURVE",
"1094 25 CURVE",
"1123 136 LINE",
"1075 78 OFFCURVE",
"953 5 OFFCURVE",
"875 -12 CURVE",
"797 -44 OFFCURVE",
"731 -106 OFFCURVE",
"707 -192 CURVE",
"776 -238 LINE"
);
}
);
width = 1682;
}
);
leftKerningGroup = Q;
leftMetricsKey = O;
rightKerningGroup = Q;
rightMetricsKey = "=O-160";
unicode = 0051;
},
{
glyphname = R;
lastChange = "2020-10-09 20:37:01 +0000";
layers = (
{
anchors = (
{
name = bottom;
position = "{788, 0}";
},
{
name = top;
position = "{788, 1400}";
}
);
layerId = "14A1E899-FED4-4F52-86F4-A1F822586E10";
paths = (
{
closed = 1;
nodes = (
"1382 0 LINE",
"1382 64 LINE",
"1292 64 OFFCURVE",
"1259 103 OFFCURVE",
"1206 180 CURVE SMOOTH",
"903 625 LINE SMOOTH",
"871 671 OFFCURVE",
"841 692 OFFCURVE",
"819 696 CURVE",
"961 723 OFFCURVE",
"1262 795 OFFCURVE",
"1262 1067 CURVE SMOOTH",
"1262 1295 OFFCURVE",
"1069 1400 OFFCURVE",
"745 1400 CURVE SMOOTH",
"485 1400 LINE",
"485 1334 LINE",
"724 1334 LINE SMOOTH",
"956 1334 OFFCURVE",
"1031 1218 OFFCURVE",
"1031 1044 CURVE SMOOTH",
"1031 862 OFFCURVE",
"880 736 OFFCURVE",
"690 736 CURVE SMOOTH",
"429 736 LINE",
"429 672 LINE",
"531 672 LINE SMOOTH",
"612 672 OFFCURVE",
"647 622 OFFCURVE",
"703 539 CURVE SMOOTH",
"1067 0 LINE"
);
},
{
closed = 1;
nodes = (
"687 0 LINE",
"687 64 LINE",
"552 64 OFFCURVE",
"497 76 OFFCURVE",
"497 166 CURVE SMOOTH",
"497 1400 LINE",
"100 1400 LINE",
"100 1336 LINE",
"222 1336 OFFCURVE",
"291 1333 OFFCURVE",
"291 1244 CURVE SMOOTH",
"291 166 LINE SMOOTH",
"291 76 OFFCURVE",
"236 64 OFFCURVE",
"100 64 CURVE",
"100 0 LINE"
);
}
);
width = 1463;
}
);
leftKerningGroup = H;
leftMetricsKey = H;
rightKerningGroup = R;
rightMetricsKey = E;
unicode = 0052;
},
{
glyphname = S;
lastChange = "2020-10-09 20:58:25 +0000";
layers = (
{
anchors = (
{
name = bottom;
position = "{612, 0}";
},
{
name = top;
position = "{622, 1400}";
}
);
layerId = "14A1E899-FED4-4F52-86F4-A1F822586E10";
paths = (
{
closed = 1;
nodes = (
"844 -26 OFFCURVE",
"1162 62 OFFCURVE",
"1162 380 CURVE SMOOTH",
"1162 652 OFFCURVE",
"896 743 OFFCURVE",
"660 820 CURVE SMOOTH",
"459 886 OFFCURVE",
"288 957 OFFCURVE",
"288 1112 CURVE SMOOTH",
"288 1308 OFFCURVE",
"469 1356 OFFCURVE",
"621 1356 CURVE SMOOTH",
"849 1356 OFFCURVE",
"975 1234 OFFCURVE",
"985 998 CURVE",
"1071 998 LINE",
"1111 1290 LINE",
"1051 1341 OFFCURVE",
"875 1422 OFFCURVE",
"621 1422 CURVE SMOOTH",
"389 1422 OFFCURVE",
"112 1324 OFFCURVE",
"112 1078 CURVE SMOOTH",
"112 831 OFFCURVE",
"316 737 OFFCURVE",
"550 661 CURVE SMOOTH",
"752 595 OFFCURVE",
"953 515 OFFCURVE",
"953 318 CURVE SMOOTH",
"953 132 OFFCURVE",
"796 40 OFFCURVE",
"615 40 CURVE SMOOTH",
"415 40 OFFCURVE",
"241 167 OFFCURVE",
"226 468 CURVE",
"140 468 LINE",
"90 105 LINE",
"209 28 OFFCURVE",
"424 -26 OFFCURVE",
"615 -26 CURVE SMOOTH"
);
}
);
width = 1252;
}
);
leftKerningGroup = S;
rightKerningGroup = S;
unicode = 0053;
},
{
glyphname = Germandbls;
lastChange = "2020-09-04 16:30:19 +0000";
layers = (
{
layerId = "14A1E899-FED4-4F52-86F4-A1F822586E10";
paths = (
{
closed = 1;
nodes = (
"1056 1336 LINE",
"1056 1400 LINE",
"249 1400 LINE",
"249 152 LINE SMOOTH",
"249 90 OFFCURVE",
"206 64 OFFCURVE",
"100 64 CURVE",
"100 0 LINE",
"425 0 LINE",
"425 1324 LINE",
"960 1324 LINE",
"945 1349 LINE",
"618 918 LINE",
"618 838 LINE",
"808 834 OFFCURVE",
"958 712 OFFCURVE",
"958 396 CURVE SMOOTH",
"958 110 OFFCURVE",
"878 50 OFFCURVE",
"793 50 CURVE SMOOTH",
"654 50 OFFCURVE",
"598 217 OFFCURVE",
"583 342 CURVE",
"516 342 LINE",
"493 38 LINE",
"562 -1 OFFCURVE",
"653 -24 OFFCURVE",
"771 -24 CURVE SMOOTH",
"917 -24 OFFCURVE",
"1164 60 OFFCURVE",
"1164 474 CURVE SMOOTH",
"1164 770 OFFCURVE",
"878 896 OFFCURVE",
"718 896 CURVE"
);
}
);
width = 1224;
}
);
leftKerningGroup = L;
leftMetricsKey = L;
rightKerningGroup = B;
rightMetricsKey = B;
unicode = 1E9E;
},
{
glyphname = T;
lastChange = "2020-10-09 20:35:15 +0000";
layers = (
{
anchors = (
{
name = bottom;
position = "{768, 0}";
},
{
name = center;
position = "{768, 700}";
},
{
name = top;
position = "{768, 1400}";
}
);
layerId = "14A1E899-FED4-4F52-86F4-A1F822586E10";
paths = (
{
closed = 1;
nodes = (
"1054 0 LINE",
"1054 64 LINE",
"936 64 OFFCURVE",
"870 77 OFFCURVE",
"870 173 CURVE SMOOTH",
"870 1400 LINE",
"667 1400 LINE",
"667 173 LINE SMOOTH",
"667 79 OFFCURVE",
"611 64 OFFCURVE",
"483 64 CURVE",
"483 0 LINE"
);
},
{
closed = 1;
nodes = (
"176 1054 LINE",
"211 1194 OFFCURVE",
"291 1336 OFFCURVE",
"413 1336 CURVE SMOOTH",
"724 1336 LINE",
"724 1400 LINE",
"125 1400 LINE",
"79 1054 LINE"
);
},
{
closed = 1;
nodes = (
"1457 1054 LINE",
"1411 1400 LINE",
"812 1400 LINE",
"812 1336 LINE",
"1123 1336 LINE SMOOTH",
"1245 1336 OFFCURVE",
"1326 1194 OFFCURVE",
"1360 1054 CURVE"
);
}
);
width = 1536;
}
);
leftKerningGroup = T;
rightKerningGroup = T;
unicode = 0054;
},
{
glyphname = U;
lastChange = "2020-10-09 20:58:31 +0000";
layers = (
{
anchors = (
{
name = bottom;
position = "{808, 0}";
},
{
name = ogonek;
position = "{1277, 157}";
},
{
name = top;
position = "{808, 1400}";
},
{
name = topright;
position = "{1515, 1400}";
}
);
layerId = "14A1E899-FED4-4F52-86F4-A1F822586E10";
paths = (
{
closed = 1;
nodes = (
"1118 -34 OFFCURVE",
"1373 94 OFFCURVE",
"1373 520 CURVE SMOOTH",
"1373 1266 LINE SMOOTH",
"1373 1328 OFFCURVE",
"1428 1336 OFFCURVE",
"1557 1336 CURVE",
"1557 1400 LINE",
"1070 1400 LINE",
"1070 1336 LINE",
"1198 1336 OFFCURVE",
"1254 1328 OFFCURVE",
"1254 1266 CURVE SMOOTH",
"1254 494 LINE SMOOTH",
"1254 194 OFFCURVE",
"1102 44 OFFCURVE",
"889 44 CURVE SMOOTH",
"643 44 OFFCURVE",
"467 174 OFFCURVE",
"467 494 CURVE SMOOTH",
"467 1266 LINE SMOOTH",
"467 1328 OFFCURVE",
"523 1336 OFFCURVE",
"651 1336 CURVE",
"651 1400 LINE",
"70 1400 LINE",
"70 1336 LINE",
"199 1336 OFFCURVE",
"254 1328 OFFCURVE",
"254 1266 CURVE SMOOTH",
"254 500 LINE SMOOTH",
"254 74 OFFCURVE",
"546 -34 OFFCURVE",
"836 -34 CURVE SMOOTH"
);
}
);
width = 1627;
}
);
leftKerningGroup = U;
leftMetricsKey = "=H-30";
rightKerningGroup = U;
rightMetricsKey = "=H-30";
unicode = 0055;
},
{
glyphname = Uhorn;
lastChange = "2020-09-04 16:38:13 +0000";
layers = (
{
anchors = (
{
name = bottom;
position = "{814, 0}";
},
{
name = top;
position = "{814, 1400}";
}
);
components = (
{
name = horncomb;
transform = "{1, 0, 0, 1, 1436, 472}";
}
);
layerId = "14A1E899-FED4-4F52-86F4-A1F822586E10";
paths = (
{
closed = 1;
nodes = (
"1118 -34 OFFCURVE",
"1373 94 OFFCURVE",
"1373 510 CURVE SMOOTH",
"1373 1266 LINE SMOOTH",
"1373 1328 OFFCURVE",
"1428 1336 OFFCURVE",
"1557 1336 CURVE",
"1557 1400 LINE",
"1089 1400 LINE",
"1089 1336 LINE",
"1217 1336 OFFCURVE",
"1273 1328 OFFCURVE",
"1273 1266 CURVE SMOOTH",
"1273 514 LINE SMOOTH",
"1273 204 OFFCURVE",
"1132 50 OFFCURVE",
"859 50 CURVE SMOOTH",
"603 50 OFFCURVE",
"467 184 OFFCURVE",
"467 494 CURVE SMOOTH",
"467 1266 LINE SMOOTH",
"467 1328 OFFCURVE",
"523 1336 OFFCURVE",
"651 1336 CURVE",
"651 1400 LINE",
"70 1400 LINE",
"70 1336 LINE",
"199 1336 OFFCURVE",
"254 1328 OFFCURVE",
"254 1266 CURVE SMOOTH",
"254 500 LINE SMOOTH",
"254 84 OFFCURVE",
"536 -34 OFFCURVE",
"836 -34 CURVE SMOOTH"
);
}
);
width = 1701;
}
);
leftKerningGroup = U;
leftMetricsKey = U;
rightKerningGroup = U;
rightMetricsKey = "=U-200";
unicode = 01AF;
},
{
glyphname = V;
lastChange = "2020-10-01 04:00:56 +0000";
layers = (
{
anchors = (
{
name = bottom;
position = "{750, 0}";
},
{
name = top;
position = "{750, 1400}";
}
);
layerId = "14A1E899-FED4-4F52-86F4-A1F822586E10";
paths = (
{
closed = 1;
nodes = (
"794 0 LINE",
"1321 1272 LINE SMOOTH",
"1346 1331 OFFCURVE",
"1421 1336 OFFCURVE",
"1515 1336 CURVE",
"1515 1400 LINE",
"1069 1400 LINE",
"1069 1336 LINE",
"1174 1336 OFFCURVE",
"1226 1333 OFFCURVE",
"1226 1294 CURVE SMOOTH",
"1226 1282 OFFCURVE",
"1223 1265 OFFCURVE",
"1214 1244 CURVE SMOOTH",
"826 295 LINE",
"461 1244 LINE SMOOTH",
"453 1265 OFFCURVE",
"449 1281 OFFCURVE",
"449 1294 CURVE SMOOTH",
"449 1334 OFFCURVE",
"499 1336 OFFCURVE",
"606 1336 CURVE",
"606 1400 LINE",
"25 1400 LINE",
"25 1336 LINE",
"120 1336 OFFCURVE",
"199 1331 OFFCURVE",
"223 1272 CURVE SMOOTH",
"733 0 LINE"
);
}
);
width = 1540;
}
);
leftKerningGroup = V;
leftMetricsKey = A;
rightKerningGroup = V;
rightMetricsKey = A;
unicode = 0056;
},
{
glyphname = W;
lastChange = "2020-10-09 21:02:56 +0000";
layers = (
{
anchors = (
{
name = bottom;
position = "{1105, 0}";
},
{
name = top;
position = "{1143, 1400}";
}
);
layerId = "14A1E899-FED4-4F52-86F4-A1F822586E10";
paths = (
{
closed = 1;
nodes = (
"1546 0 LINE",
"2020 1272 LINE SMOOTH",
"2042 1331 OFFCURVE",
"2121 1336 OFFCURVE",
"2215 1336 CURVE",
"2215 1400 LINE",
"1770 1400 LINE",
"1770 1336 LINE",
"1876 1336 OFFCURVE",
"1929 1334 OFFCURVE",
"1929 1295 CURVE SMOOTH",
"1929 1283 OFFCURVE",
"1923 1265 OFFCURVE",
"1915 1244 CURVE SMOOTH",
"1582 336 LINE",
"1253 1244 LINE SMOOTH",
"1245 1265 OFFCURVE",
"1241 1281 OFFCURVE",
"1241 1294 CURVE SMOOTH",
"1241 1334 OFFCURVE",
"1314 1336 OFFCURVE",
"1421 1336 CURVE",
"1421 1400 LINE",
"830 1400 LINE",
"830 1336 LINE",
"925 1336 OFFCURVE",
"983 1331 OFFCURVE",
"1005 1272 CURVE SMOOTH",
"1479 0 LINE"
);
},
{
closed = 1;
nodes = (
"764 0 LINE",
"1239 1272 LINE",
"1133 1244 LINE",
"798 336 LINE",
"471 1244 LINE SMOOTH",
"463 1265 OFFCURVE",
"459 1281 OFFCURVE",
"459 1294 CURVE SMOOTH",
"459 1334 OFFCURVE",
"509 1336 OFFCURVE",
"616 1336 CURVE",
"616 1400 LINE",
"25 1400 LINE",
"25 1336 LINE",
"120 1336 OFFCURVE",
"201 1331 OFFCURVE",
"223 1272 CURVE SMOOTH",
"697 0 LINE"
);
}
);
width = 2240;
}
);
leftKerningGroup = V;
leftMetricsKey = V;
rightKerningGroup = V;
rightMetricsKey = V;
unicode = 0057;
},
{
glyphname = X;
lastChange = "2020-10-09 21:00:09 +0000";
layers = (
{
anchors = (
{
name = bottom;
position = "{775, 0}";
},
{
name = top;
position = "{775, 1400}";
}
);
layerId = "14A1E899-FED4-4F52-86F4-A1F822586E10";
paths = (
{
closed = 1;
nodes = (
"1534 0 LINE",
"1534 64 LINE",
"1417 64 OFFCURVE",
"1374 65 OFFCURVE",
"1326 128 CURVE SMOOTH",
"475 1244 LINE SMOOTH",
"459 1265 OFFCURVE",
"452 1281 OFFCURVE",
"452 1293 CURVE SMOOTH",
"452 1334 OFFCURVE",
"536 1336 OFFCURVE",
"608 1336 CURVE",
"608 1400 LINE",
"44 1400 LINE",
"44 1336 LINE",
"138 1336 OFFCURVE",
"173 1316 OFFCURVE",
"207 1272 CURVE SMOOTH",
"1055 156 LINE SMOOTH",
"1071 135 OFFCURVE",
"1078 119 OFFCURVE",
"1078 107 CURVE SMOOTH",
"1078 66 OFFCURVE",
"994 64 OFFCURVE",
"922 64 CURVE",
"922 0 LINE"
);
},
{
closed = 1;
nodes = (
"536 0 LINE",
"536 64 LINE",
"422 64 OFFCURVE",
"371 76 OFFCURVE",
"371 111 CURVE SMOOTH",
"371 124 OFFCURVE",
"378 139 OFFCURVE",
"391 156 CURVE SMOOTH",
"810 693 LINE",
"745 758 LINE",
"246 128 LINE SMOOTH",
"209 81 OFFCURVE",
"166 64 OFFCURVE",
"25 64 CURVE",
"25 0 LINE"
);
},
{
closed = 1;
nodes = (
"1288 1272 LINE SMOOTH",
"1326 1319 OFFCURVE",
"1369 1336 OFFCURVE",
"1509 1336 CURVE",
"1509 1400 LINE",
"998 1400 LINE",
"998 1336 LINE",
"1112 1336 OFFCURVE",
"1163 1322 OFFCURVE",
"1163 1287 CURVE SMOOTH",
"1163 1274 OFFCURVE",
"1156 1261 OFFCURVE",
"1143 1244 CURVE SMOOTH",
"724 707 LINE",
"789 642 LINE"
);
}
);
width = 1559;
}
);
leftKerningGroup = X;
leftMetricsKey = A;
rightKerningGroup = X;
rightMetricsKey = A;
unicode = 0058;
},
{
glyphname = Y;
lastChange = "2020-10-09 20:59:05 +0000";
layers = (
{
anchors = (
{
name = bottom;
position = "{720, 0}";
},
{
name = top;
position = "{720, 1400}";
},
{
name = topleft;
position = "{-3, 1400}";
}
);
layerId = "14A1E899-FED4-4F52-86F4-A1F822586E10";
paths = (
{
closed = 1;
nodes = (
"1020 0 LINE",
"1020 64 LINE",
"884 64 OFFCURVE",
"829 69 OFFCURVE",
"829 156 CURVE SMOOTH",
"829 639 LINE",
"1231 1272 LINE SMOOTH",
"1269 1332 OFFCURVE",
"1298 1336 OFFCURVE",
"1415 1336 CURVE",
"1415 1400 LINE",
"1010 1400 LINE",
"1010 1336 LINE",
"1124 1336 OFFCURVE",
"1136 1331 OFFCURVE",
"1136 1307 CURVE SMOOTH",
"1136 1291 OFFCURVE",
"1129 1272 OFFCURVE",
"1119 1257 CURVE SMOOTH",
"794 745 LINE",
"468 1251 LINE SMOOTH",
"453 1275 OFFCURVE",
"444 1293 OFFCURVE",
"444 1307 CURVE SMOOTH",
"444 1329 OFFCURVE",
"480 1336 OFFCURVE",
"572 1336 CURVE",
"572 1400 LINE",
"25 1400 LINE",
"25 1336 LINE",
"154 1336 OFFCURVE",
"179 1317 OFFCURVE",
"209 1272 CURVE SMOOTH",
"623 639 LINE",
"623 156 LINE SMOOTH",
"623 69 OFFCURVE",
"568 64 OFFCURVE",
"432 64 CURVE",
"432 0 LINE"
);
}
);
width = 1440;
}
);
leftKerningGroup = V;
leftMetricsKey = V;
rightKerningGroup = V;
rightMetricsKey = V;
unicode = 0059;
},
{
glyphname = Z;
lastChange = "2020-09-04 16:28:36 +0000";
layers = (
{
anchors = (
{
name = bottom;
position = "{673, 0}";
},
{
name = center;
position = "{673, 700}";
},
{
name = top;
position = "{673, 1400}";
}
);
layerId = "14A1E899-FED4-4F52-86F4-A1F822586E10";
paths = (
{
closed = 1;
nodes = (
"731 0 LINE",
"689 64 LINE",
"319 64 LINE",
"1221 1338 LINE",
"1221 1400 LINE",
"659 1400 LINE",
"593 1336 LINE",
"1001 1336 LINE",
"95 64 LINE",
"95 0 LINE"
);
},
{
closed = 1;
nodes = (
"1169 0 LINE",
"1227 376 LINE",
"1139 376 LINE",
"1105 226 OFFCURVE",
"1011 64 OFFCURVE",
"854 64 CURVE SMOOTH",
"581 64 LINE",
"581 0 LINE"
);
},
{
closed = 1;
nodes = (
"209 1064 LINE",
"244 1204 OFFCURVE",
"336 1336 OFFCURVE",
"458 1336 CURVE SMOOTH",
"724 1336 LINE",
"724 1400 LINE",
"180 1400 LINE",
"122 1064 LINE"
);
}
);
width = 1308;
}
);
leftKerningGroup = Z;
rightKerningGroup = Z;
rightMetricsKey = L;
unicode = 005A;
},
{
glyphname = a;
lastChange = "2020-10-09 21:21:06 +0000";
layers = (
{
anchors = (
{
name = bottom;
position = "{465, 0}";
},
{
name = ogonek;
position = "{849, 10}";
},
{
name = top;
position = "{452, 826}";
}
);
layerId = "14A1E899-FED4-4F52-86F4-A1F822586E10";
paths = (
{
closed = 1;
nodes = (
"437 -28 OFFCURVE",
"506 6 OFFCURVE",
"635 96 CURVE",
"645 19 OFFCURVE",
"708 -19 OFFCURVE",
"793 -19 CURVE SMOOTH",
"830 -19 OFFCURVE",
"898 -9 OFFCURVE",
"925 22 CURVE",
"895 66 LINE",
"844 37 OFFCURVE",
"804 37 OFFCURVE",
"804 96 CURVE SMOOTH",
"804 506 LINE SMOOTH",
"804 810 OFFCURVE",
"634 842 OFFCURVE",
"462 842 CURVE SMOOTH",
"372 842 OFFCURVE",
"251 789 OFFCURVE",
"93 712 CURVE",
"93 486 LINE",
"276 543 LINE",
"221 686 LINE",
"287 725 OFFCURVE",
"383 776 OFFCURVE",
"469 776 CURVE SMOOTH",
"557 776 OFFCURVE",
"626 717 OFFCURVE",
"626 552 CURVE",
"626 548 LINE",
"328 418 LINE SMOOTH",
"192 359 OFFCURVE",
"65 303 OFFCURVE",
"65 177 CURVE SMOOTH",
"65 14 OFFCURVE",
"215 -28 OFFCURVE",
"308 -28 CURVE SMOOTH"
);
},
{
closed = 1;
nodes = (
"322 48 OFFCURVE",
"260 89 OFFCURVE",
"260 207 CURVE SMOOTH",
"260 274 OFFCURVE",
"299 323 OFFCURVE",
"366 355 CURVE SMOOTH",
"626 477 LINE",
"626 164 LINE",
"502 76 OFFCURVE",
"438 48 OFFCURVE",
"386 48 CURVE SMOOTH"
);
}
);
width = 945;
}
);
leftKerningGroup = a;
leftMetricsKey = o;
rightKerningGroup = a;
unicode = 0061;
},
{
glyphname = ae;
lastChange = "2020-10-09 21:50:12 +0000";
layers = (
{
anchors = (
{
name = bottom;
position = "{787, 0}";
},
{
name = top;
position = "{766, 821}";
}
);
components = (
{
name = e;
transform = "{1, 0, 0, 1, 601, 0}";
}
);
layerId = "14A1E899-FED4-4F52-86F4-A1F822586E10";
paths = (
{
closed = 1;
nodes = (
"477 -28 OFFCURVE",
"560 10 OFFCURVE",
"678 83 CURVE SMOOTH",
"750 128 OFFCURVE",
"805 187 OFFCURVE",
"844 268 CURVE",
"844 486 LINE SMOOTH",
"844 790 OFFCURVE",
"684 842 OFFCURVE",
"492 842 CURVE SMOOTH",
"402 842 OFFCURVE",
"271 792 OFFCURVE",
"113 715 CURVE",
"113 459 LINE",
"306 516 LINE",
"249 689 LINE",
"317 729 OFFCURVE",
"403 776 OFFCURVE",
"489 776 CURVE SMOOTH",
"577 776 OFFCURVE",
"666 727 OFFCURVE",
"666 532 CURVE SMOOTH",
"666 529 LINE",
"368 429 LINE SMOOTH",
"208 375 OFFCURVE",
"65 315 OFFCURVE",
"65 188 CURVE SMOOTH",
"65 -15 OFFCURVE",
"245 -28 OFFCURVE",
"348 -28 CURVE SMOOTH"
);
},
{
closed = 1;
nodes = (
"343 45 OFFCURVE",
"280 99 OFFCURVE",
"280 217 CURVE SMOOTH",
"280 315 OFFCURVE",
"315 332 OFFCURVE",
"406 365 CURVE SMOOTH",
"666 458 LINE",
"666 154 LINE",
"561 89 OFFCURVE",
"489 45 OFFCURVE",
"407 45 CURVE SMOOTH"
);
}
);
width = 1559;
}
);
leftKerningGroup = a;
leftMetricsKey = a;
rightKerningGroup = e;
rightMetricsKey = e;
unicode = 00E6;
},
{
glyphname = b;
lastChange = "2020-10-09 21:32:48 +0000";
layers = (
{
anchors = (
{
name = bottom;
position = "{497, 0}";
},
{
name = top;
position = "{261, 1500}";
}
);
layerId = "14A1E899-FED4-4F52-86F4-A1F822586E10";
paths = (
{
closed = 1;
nodes = (
"754 -20 OFFCURVE",
"992 134 OFFCURVE",
"992 418 CURVE SMOOTH",
"992 754 OFFCURVE",
"796 841 OFFCURVE",
"605 841 CURVE SMOOTH",
"508 841 OFFCURVE",
"395 768 OFFCURVE",
"322 715 CURVE",
"322 627 LINE",
"415 700 OFFCURVE",
"497 763 OFFCURVE",
"576 763 CURVE SMOOTH",
"673 763 OFFCURVE",
"795 653 OFFCURVE",
"795 357 CURVE SMOOTH",
"795 154 OFFCURVE",
"709 51 OFFCURVE",
"565 51 CURVE SMOOTH",
"448 51 OFFCURVE",
"365 111 OFFCURVE",
"322 314 CURVE",
"248 234 LINE",
"284 50 OFFCURVE",
"455 -20 OFFCURVE",
"559 -20 CURVE SMOOTH"
);
},
{
closed = 1;
nodes = (
"206 0 LINE",
"323 290 LINE",
"323 1500 LINE",
"278 1500 LINE",
"-2 1420 LINE",
"-2 1356 LINE",
"119 1376 OFFCURVE",
"147 1379 OFFCURVE",
"147 1318 CURVE SMOOTH",
"147 0 LINE"
);
}
);
width = 1057;
}
);
leftKerningGroup = b;
leftMetricsKey = "=i-50";
rightKerningGroup = o;
rightMetricsKey = o;
unicode = 0062;
},
{
glyphname = c;
lastChange = "2020-10-09 21:30:04 +0000";
layers = (
{
anchors = (
{
name = bottom;
position = "{483, 0}";
},
{
name = top;
position = "{500, 826}";
}
);
layerId = "14A1E899-FED4-4F52-86F4-A1F822586E10";
paths = (
{
closed = 1;
nodes = (
"699 -22 OFFCURVE",
"788 49 OFFCURVE",
"902 142 CURVE",
"862 196 LINE",
"762 123 OFFCURVE",
"682 66 OFFCURVE",
"593 66 CURVE SMOOTH",
"410 66 OFFCURVE",
"263 250 OFFCURVE",
"263 506 CURVE SMOOTH",
"263 734 OFFCURVE",
"419 775 OFFCURVE",
"528 775 CURVE SMOOTH",
"625 775 OFFCURVE",
"683 728 OFFCURVE",
"700 658 CURVE",
"668 486 LINE",
"861 516 LINE",
"842 686 LINE",
"783 784 OFFCURVE",
"674 841 OFFCURVE",
"532 841 CURVE SMOOTH",
"300 841 OFFCURVE",
"65 698 OFFCURVE",
"65 426 CURVE SMOOTH",
"65 160 OFFCURVE",
"250 -22 OFFCURVE",
"522 -22 CURVE SMOOTH"
);
}
);
width = 947;
}
);
leftKerningGroup = o;
leftMetricsKey = o;
rightKerningGroup = o;
rightMetricsKey = "=o-20";
unicode = 0063;
},
{
glyphname = d;
lastChange = "2020-10-09 21:32:34 +0000";
layers = (
{
anchors = (
{
name = bottom;
position = "{543, 0}";
},
{
name = center;
position = "{543, 463}";
},
{
name = top;
position = "{543, 1500}";
},
{
name = topright;
position = "{974, 826}";
}
);
layerId = "14A1E899-FED4-4F52-86F4-A1F822586E10";
paths = (
{
closed = 1;
nodes = (
"566 -27 OFFCURVE",
"643 18 OFFCURVE",
"756 93 CURVE",
"774 25 OFFCURVE",
"825 -19 OFFCURVE",
"910 -19 CURVE SMOOTH",
"958 -19 OFFCURVE",
"1017 -7 OFFCURVE",
"1043 13 CURVE",
"1013 67 LINE",
"960 39 OFFCURVE",
"919 37 OFFCURVE",
"919 99 CURVE SMOOTH",
"919 1500 LINE",
"874 1500 LINE",
"570 1420 LINE",
"570 1354 LINE",
"709 1384 OFFCURVE",
"742 1384 OFFCURVE",
"742 1320 CURVE SMOOTH",
"742 719 LINE",
"714 767 OFFCURVE",
"613 844 OFFCURVE",
"477 844 CURVE SMOOTH",
"261 844 OFFCURVE",
"65 724 OFFCURVE",
"65 418 CURVE SMOOTH",
"65 97 OFFCURVE",
"267 -27 OFFCURVE",
"440 -27 CURVE SMOOTH"
);
},
{
closed = 1;
nodes = (
"355 46 OFFCURVE",
"266 243 OFFCURVE",
"266 487 CURVE SMOOTH",
"266 683 OFFCURVE",
"372 773 OFFCURVE",
"478 773 CURVE SMOOTH",
"630 773 OFFCURVE",
"711 629 OFFCURVE",
"742 514 CURVE",
"742 160 LINE",
"641 92 OFFCURVE",
"567 46 OFFCURVE",
"504 46 CURVE SMOOTH"
);
}
);
width = 1091;
}
);
leftKerningGroup = o;
leftMetricsKey = o;
rightKerningGroup = a;
rightMetricsKey = i;
unicode = 0064;
},
{
glyphname = eth;
lastChange = "2020-10-09 21:42:38 +0000";
layers = (
{
components = (
{
name = o;
}
);
layerId = "14A1E899-FED4-4F52-86F4-A1F822586E10";
paths = (
{
closed = 1;
nodes = (
"585 1321 OFFCURVE",
"773 963 OFFCURVE",
"773 512 CURVE",
"979 412 LINE",
"979 1026 OFFCURVE",
"620 1386 OFFCURVE",
"264 1442 CURVE",
"230 1385 LINE"
);
},
{
closed = 1;
nodes = (
"400 1089 LINE",
"711 1401 LINE",
"662 1450 LINE",
"351 1138 LINE"
);
}
);
width = 1044;
}
);
leftKerningGroup = o;
leftMetricsKey = o;
rightKerningGroup = o;
rightMetricsKey = o;
unicode = 00F0;
},
{
glyphname = dcroat;
lastChange = "2020-10-09 21:21:06 +0000";
layers = (
{
components = (
{
name = d;
}
);
layerId = "14A1E899-FED4-4F52-86F4-A1F822586E10";
paths = (
{
closed = 1;
nodes = (
"1058 1137 LINE",
"1058 1209 LINE",
"436 1209 LINE",
"436 1137 LINE"
);
}
);
width = 1076;
}
);
leftKerningGroup = d;
leftMetricsKey = d;
rightKerningGroup = d;
rightMetricsKey = "=d-30";
unicode = 0111;
},
{
glyphname = e;
lastChange = "2020-10-09 21:37:39 +0000";
layers = (
{
anchors = (
{
name = bottom;
position = "{479, 0}";
},
{
name = ogonek;
position = "{903, 142}";
},
{
name = top;
position = "{479, 826}";
}
);
layerId = "14A1E899-FED4-4F52-86F4-A1F822586E10";
paths = (
{
closed = 1;
nodes = (
"676 -22 OFFCURVE",
"781 50 OFFCURVE",
"893 142 CURVE",
"850 198 LINE",
"753 118 OFFCURVE",
"640 66 OFFCURVE",
"565 66 CURVE SMOOTH",
"410 66 OFFCURVE",
"258 166 OFFCURVE",
"258 435 CURVE",
"880 435 LINE",
"880 699 OFFCURVE",
"728 841 OFFCURVE",
"496 841 CURVE SMOOTH",
"264 841 OFFCURVE",
"65 695 OFFCURVE",
"65 423 CURVE SMOOTH",
"65 177 OFFCURVE",
"209 -22 OFFCURVE",
"528 -22 CURVE SMOOTH"
);
},
{
closed = 1;
nodes = (
"272 670 OFFCURVE",
"350 765 OFFCURVE",
"487 765 CURVE SMOOTH",
"612 765 OFFCURVE",
"664 653 OFFCURVE",
"664 509 CURVE",
"260 509 LINE"
);
}
);
width = 958;
}
);
leftKerningGroup = o;
leftMetricsKey = o;
rightKerningGroup = o;
rightMetricsKey = o;
unicode = 0065;
},
{
glyphname = f;
lastChange = "2020-10-09 21:39:38 +0000";
layers = (
{
anchors = (
{
name = bottom;
position = "{364, 0}";
},
{
name = top;
position = "{364, 1500}";
}
);
layerId = "14A1E899-FED4-4F52-86F4-A1F822586E10";
paths = (
{
closed = 1;
nodes = (
"387 88 LINE",
"387 747 LINE",
"621 747 LINE",
"639 826 LINE",
"387 826 LINE",
"387 1324 LINE SMOOTH",
"387 1376 OFFCURVE",
"542 1437 OFFCURVE",
"576 1437 CURVE SMOOTH",
"592 1437 OFFCURVE",
"601 1426 OFFCURVE",
"601 1417 CURVE",
"579 1252 LINE",
"760 1282 LINE",
"733 1466 LINE",
"713 1492 OFFCURVE",
"679 1517 OFFCURVE",
"606 1517 CURVE SMOOTH",
"519 1517 OFFCURVE",
"214 1369 OFFCURVE",
"214 1304 CURVE SMOOTH",
"214 826 LINE",
"61 826 LINE",
"43 747 LINE",
"214 747 LINE",
"214 88 LINE"
);
},
{
closed = 1;
nodes = (
"443 0 LINE",
"214 142 LINE",
"214 80 OFFCURVE",
"196 64 OFFCURVE",
"86 64 CURVE",
"86 0 LINE"
);
},
{
closed = 1;
nodes = (
"515 0 LINE",
"515 64 LINE",
"405 64 OFFCURVE",
"387 80 OFFCURVE",
"387 142 CURVE",
"158 0 LINE"
);
}
);
width = 755;
}
);
leftKerningGroup = f;
rightKerningGroup = f;
unicode = 0066;
},
{
glyphname = g;
lastChange = "2020-10-09 21:32:13 +0000";
layers = (
{
anchors = (
{
name = bottom;
position = "{518, -480}";
},
{
name = top;
position = "{518, 926}";
}
);
layerId = "14A1E899-FED4-4F52-86F4-A1F822586E10";
paths = (
{
closed = 1;
nodes = (
"702 -450 OFFCURVE",
"964 -356 OFFCURVE",
"964 -146 CURVE SMOOTH",
"964 43 OFFCURVE",
"735 78 OFFCURVE",
"503 106 CURVE SMOOTH",
"377 121 OFFCURVE",
"245 143 OFFCURVE",
"245 191 CURVE SMOOTH",
"245 218 OFFCURVE",
"274 239 OFFCURVE",
"309 252 CURVE",
"329 242 OFFCURVE",
"400 222 OFFCURVE",
"489 222 CURVE SMOOTH",
"672 222 OFFCURVE",
"895 332 OFFCURVE",
"895 543 CURVE SMOOTH",
"895 780 OFFCURVE",
"670 841 OFFCURVE",
"484 841 CURVE SMOOTH",
"307 841 OFFCURVE",
"79 750 OFFCURVE",
"79 542 CURVE SMOOTH",
"79 384 OFFCURVE",
"156 328 OFFCURVE",
"238 278 CURVE",
"155 250 OFFCURVE",
"115 206 OFFCURVE",
"115 147 CURVE SMOOTH",
"115 58 OFFCURVE",
"185 23 OFFCURVE",
"236 5 CURVE",
"178 -8 OFFCURVE",
"56 -49 OFFCURVE",
"56 -187 CURVE SMOOTH",
"56 -389 OFFCURVE",
"273 -450 OFFCURVE",
"498 -450 CURVE SMOOTH"
);
},
{
closed = 1;
nodes = (
"372 -384 OFFCURVE",
"212 -308 OFFCURVE",
"212 -164 CURVE SMOOTH",
"212 -91 OFFCURVE",
"238 -34 OFFCURVE",
"287 -13 CURVE",
"316 -23 OFFCURVE",
"378 -37 OFFCURVE",
"536 -56 CURVE SMOOTH",
"727 -79 OFFCURVE",
"825 -114 OFFCURVE",
"825 -233 CURVE SMOOTH",
"825 -330 OFFCURVE",
"693 -384 OFFCURVE",
"543 -384 CURVE SMOOTH"
);
},
{
closed = 1;
nodes = (
"331 293 OFFCURVE",
"271 369 OFFCURVE",
"271 547 CURVE SMOOTH",
"271 697 OFFCURVE",
"361 773 OFFCURVE",
"479 773 CURVE SMOOTH",
"613 773 OFFCURVE",
"709 710 OFFCURVE",
"709 511 CURVE SMOOTH",
"709 314 OFFCURVE",
"595 293 OFFCURVE",
"491 293 CURVE SMOOTH"
);
},
{
closed = 1;
nodes = (
"822 817 OFFCURVE",
"875 913 OFFCURVE",
"894 913 CURVE",
"995 973 LINE",
"979 990 OFFCURVE",
"935 1003 OFFCURVE",
"902 1003 CURVE SMOOTH",
"850 1003 OFFCURVE",
"781 899 OFFCURVE",
"694 740 CURVE",
"776 713 LINE"
);
},
{
closed = 1;
nodes = (
"1031 830 LINE",
"995 973 LINE",
"876 918 LINE",
"872 781 LINE"
);
}
);
width = 1036;
}
);
leftKerningGroup = o;
leftMetricsKey = "=o-9";
rightMetricsKey = "=o-60";
unicode = 0067;
},
{
glyphname = h;
lastChange = "2020-10-09 21:28:49 +0000";
layers = (
{
anchors = (
{
name = bottom;
position = "{561, 0}";
},
{
name = center;
position = "{561, 750}";
},
{
name = top;
position = "{561, 1500}";
}
);
layerId = "14A1E899-FED4-4F52-86F4-A1F822586E10";
paths = (
{
closed = 1;
nodes = (
"501 0 LINE",
"501 64 LINE",
"391 64 OFFCURVE",
"373 80 OFFCURVE",
"373 142 CURVE SMOOTH",
"373 613 LINE",
"488 701 OFFCURVE",
"568 761 OFFCURVE",
"637 761 CURVE SMOOTH",
"716 761 OFFCURVE",
"768 729 OFFCURVE",
"768 592 CURVE SMOOTH",
"768 142 LINE SMOOTH",
"768 80 OFFCURVE",
"750 64 OFFCURVE",
"640 64 CURVE",
"640 0 LINE",
"1074 0 LINE",
"1074 64 LINE",
"964 64 OFFCURVE",
"946 80 OFFCURVE",
"946 142 CURVE SMOOTH",
"946 519 LINE SMOOTH",
"946 747 OFFCURVE",
"860 841 OFFCURVE",
"680 841 CURVE SMOOTH",
"576 841 OFFCURVE",
"482 780 OFFCURVE",
"373 704 CURVE",
"373 1500 LINE",
"328 1500 LINE",
"48 1420 LINE",
"48 1356 LINE",
"177 1376 OFFCURVE",
"197 1375 OFFCURVE",
"197 1304 CURVE SMOOTH",
"197 146 LINE SMOOTH",
"197 80 OFFCURVE",
"163 64 OFFCURVE",
"66 64 CURVE",
"66 0 LINE"
);
}
);
width = 1122;
}
);
leftKerningGroup = h;
leftMetricsKey = i;
rightKerningGroup = n;
rightMetricsKey = i;
unicode = 0068;
},
{
glyphname = hbar;
lastChange = "2020-09-04 02:41:28 +0000";
layers = (
{
components = (
{
name = h;
}
);
layerId = "14A1E899-FED4-4F52-86F4-A1F822586E10";
paths = (
{
closed = 1;
nodes = (
"669 1130 LINE",
"669 1202 LINE",
"47 1202 LINE",
"47 1130 LINE"
);
}
);
width = 1128;
}
);
unicode = 0127;
},
{
glyphname = i;
lastChange = "2020-10-09 21:39:24 +0000";
layers = (
{
anchors = (
{
name = bottom;
position = "{285, 0}";
}
);
layerId = "14A1E899-FED4-4F52-86F4-A1F822586E10";
paths = (
{
closed = 1;
nodes = (
"523 0 LINE",
"523 64 LINE",
"417 64 OFFCURVE",
"373 80 OFFCURVE",
"373 142 CURVE SMOOTH",
"373 841 LINE",
"328 841 LINE",
"48 751 LINE",
"48 687 LINE",
"173 717 OFFCURVE",
"197 711 OFFCURVE",
"197 620 CURVE SMOOTH",
"197 139 LINE SMOOTH",
"197 80 OFFCURVE",
"154 64 OFFCURVE",
"48 64 CURVE",
"48 0 LINE"
);
},
{
closed = 1;
nodes = (
"352 1059 OFFCURVE",
"414 1121 OFFCURVE",
"414 1197 CURVE SMOOTH",
"414 1272 OFFCURVE",
"352 1334 OFFCURVE",
"277 1334 CURVE SMOOTH",
"201 1334 OFFCURVE",
"139 1272 OFFCURVE",
"139 1197 CURVE SMOOTH",
"139 1121 OFFCURVE",
"201 1059 OFFCURVE",
"277 1059 CURVE SMOOTH"
);
}
);
width = 571;
}
);
leftKerningGroup = i;
rightKerningGroup = i;
unicode = 0069;
},
{
glyphname = idotless;
lastChange = "2020-10-09 20:56:48 +0000";
layers = (
{
anchors = (
{
name = bottom;
position = "{293, 0}";
},
{
name = ogonek;
position = "{531, 0}";
},
{
name = top;
position = "{289, 826}";
}
);
layerId = "14A1E899-FED4-4F52-86F4-A1F822586E10";
paths = (
{
closed = 1;
nodes = (
"531 0 LINE",
"531 64 LINE",
"425 64 OFFCURVE",
"381 80 OFFCURVE",
"381 142 CURVE SMOOTH",
"381 826 LINE",
"336 826 LINE",
"56 736 LINE",
"56 672 LINE",
"181 702 OFFCURVE",
"205 696 OFFCURVE",
"205 620 CURVE SMOOTH",
"205 139 LINE SMOOTH",
"205 80 OFFCURVE",
"162 64 OFFCURVE",
"56 64 CURVE",
"56 0 LINE"
);
}
);
width = 577;
}
);
unicode = 0131;
},
{
glyphname = j;
lastChange = "2020-10-09 21:21:47 +0000";
layers = (
{
layerId = "14A1E899-FED4-4F52-86F4-A1F822586E10";
paths = (
{
closed = 1;
nodes = (
"269 -441 OFFCURVE",
"380 -290 OFFCURVE",
"380 -42 CURVE SMOOTH",
"380 841 LINE",
"335 841 LINE",
"54 751 LINE",
"54 687 LINE",
"180 717 OFFCURVE",
"204 711 OFFCURVE",
"204 640 CURVE SMOOTH",
"204 -48 LINE SMOOTH",
"204 -294 OFFCURVE",
"175 -364 OFFCURVE",
"78 -364 CURVE SMOOTH",
"0 -364 OFFCURVE",
"0 -309 OFFCURVE",
"-9 -287 CURVE",
"-115 -395 LINE",
"-73 -425 OFFCURVE",
"-19 -441 OFFCURVE",
"63 -441 CURVE SMOOTH"
);
},
{
closed = 1;
nodes = (
"7 -351 LINE",
"40 -201 LINE",
"-115 -220 LINE",
"-115 -395 LINE"
);
},
{
closed = 1;
nodes = (
"359 1059 OFFCURVE",
"421 1121 OFFCURVE",
"421 1197 CURVE SMOOTH",
"421 1272 OFFCURVE",
"359 1334 OFFCURVE",
"284 1334 CURVE SMOOTH",
"208 1334 OFFCURVE",
"146 1272 OFFCURVE",
"146 1197 CURVE SMOOTH",
"146 1121 OFFCURVE",
"208 1059 OFFCURVE",
"284 1059 CURVE SMOOTH"
);
}
);
width = 536;
}
);
leftKerningGroup = j;
rightMetricsKey = "=o+50";
unicode = 006A;
},
{
glyphname = jdotless;
lastChange = "2020-10-09 20:56:53 +0000";
layers = (
{
anchors = (
{
name = bottom;
position = "{241, -500}";
},
{
name = top;
position = "{241, 826}";
}
);
layerId = "14A1E899-FED4-4F52-86F4-A1F822586E10";
paths = (
{
closed = 1;
nodes = (
"217 -521 OFFCURVE",
"328 -370 OFFCURVE",
"328 -42 CURVE SMOOTH",
"328 826 LINE",
"283 826 LINE",
"2 736 LINE",
"2 672 LINE",
"128 702 OFFCURVE",
"152 696 OFFCURVE",
"152 625 CURVE SMOOTH",
"152 -48 LINE SMOOTH",
"152 -374 OFFCURVE",
"123 -429 OFFCURVE",
"26 -429 CURVE SMOOTH",
"-52 -429 OFFCURVE",
"-92 -389 OFFCURVE",
"-101 -367 CURVE",
"-167 -465 LINE",
"-125 -495 OFFCURVE",
"-71 -521 OFFCURVE",
"11 -521 CURVE SMOOTH"
);
},
{
closed = 1;
nodes = (
"-45 -431 LINE",
"6 -209 LINE",
"-187 -239 LINE",
"-167 -465 LINE"
);
}
);
width = 481;
}
);
unicode = 0237;
},
{
glyphname = k;
lastChange = "2020-10-09 21:41:22 +0000";
layers = (
{
anchors = (
{
name = bottom;
position = "{564, 0}";
},
{
name = top;
position = "{564, 1500}";
}
);
layerId = "14A1E899-FED4-4F52-86F4-A1F822586E10";
paths = (
{
closed = 1;
nodes = (
"501 0 LINE",
"501 64 LINE",
"391 64 OFFCURVE",
"373 100 OFFCURVE",
"373 162 CURVE SMOOTH",
"373 351 LINE",
"529 468 LINE",
"729 175 LINE SMOOTH",
"756 136 OFFCURVE",
"757 126 OFFCURVE",
"757 106 CURVE SMOOTH",
"757 75 OFFCURVE",
"714 64 OFFCURVE",
"647 64 CURVE",
"647 0 LINE",
"1111 0 LINE",
"1111 64 LINE",
"1052 64 OFFCURVE",
"1006 75 OFFCURVE",
"964 136 CURVE SMOOTH",
"665 572 LINE",
"849 714 LINE SMOOTH",
"898 752 OFFCURVE",
"917 762 OFFCURVE",
"1015 762 CURVE",
"1015 826 LINE",
"637 826 LINE",
"637 762 LINE",
"724 762 OFFCURVE",
"755 758 OFFCURVE",
"755 743 CURVE SMOOTH",
"755 736 OFFCURVE",
"751 731 OFFCURVE",
"738 722 CURVE SMOOTH",
"373 457 LINE",
"373 1500 LINE",
"328 1500 LINE",
"48 1420 LINE",
"48 1356 LINE",
"167 1386 OFFCURVE",
"197 1386 OFFCURVE",
"197 1310 CURVE SMOOTH",
"197 146 LINE SMOOTH",
"197 70 OFFCURVE",
"147 64 OFFCURVE",
"66 64 CURVE",
"66 0 LINE"
);
}
);
width = 1126;
}
);
leftKerningGroup = h;
leftMetricsKey = i;
rightKerningGroup = k;
unicode = 006B;
},
{
glyphname = l;
lastChange = "2020-10-04 03:12:56 +0000";
layers = (
{
anchors = (
{
name = bottom;
position = "{283, 0}";
},
{
name = center;
position = "{283, 750}";
},
{
name = top;
position = "{283, 1500}";
},
{
name = topright;
position = "{542, 1500}";
}
);
layerId = "14A1E899-FED4-4F52-86F4-A1F822586E10";
paths = (
{
closed = 1;
nodes = (
"519 0 LINE",
"519 64 LINE",
"413 64 OFFCURVE",
"373 90 OFFCURVE",
"373 152 CURVE SMOOTH",
"373 1500 LINE",
"328 1500 LINE",
"48 1420 LINE",
"48 1356 LINE",
"177 1386 OFFCURVE",
"197 1380 OFFCURVE",
"197 1304 CURVE SMOOTH",
"197 152 LINE SMOOTH",
"197 90 OFFCURVE",
"154 64 OFFCURVE",
"48 64 CURVE",
"48 0 LINE"
);
}
);
width = 567;
}
);
leftKerningGroup = h;
leftMetricsKey = i;
rightKerningGroup = l;
rightMetricsKey = i;
unicode = 006C;
},
{
glyphname = lslash;
lastChange = "2020-09-04 02:40:29 +0000";
layers = (
{
components = (
{
name = l;
transform = "{1, 0, 0, 1, 95, 0}";
}
);
layerId = "14A1E899-FED4-4F52-86F4-A1F822586E10";
paths = (
{
closed = 1;
nodes = (
"65 348 LINE",
"735 979 LINE",
"671 1046 LINE",
"0 416 LINE"
);
}
);
width = 735;
}
);
unicode = 0142;
},
{
glyphname = m;
lastChange = "2020-10-09 20:45:36 +0000";
layers = (
{
anchors = (
{
name = bottom;
position = "{843, 0}";
},
{
name = top;
position = "{862, 826}";
}
);
layerId = "14A1E899-FED4-4F52-86F4-A1F822586E10";
paths = (
{
closed = 1;
nodes = (
"1639 0 LINE",
"1639 64 LINE",
"1529 64 OFFCURVE",
"1511 100 OFFCURVE",
"1511 162 CURVE SMOOTH",
"1511 580 LINE SMOOTH",
"1511 808 OFFCURVE",
"1353 842 OFFCURVE",
"1239 842 CURVE SMOOTH",
"1137 842 OFFCURVE",
"1022 762 OFFCURVE",
"926 690 CURVE",
"926 602 LINE",
"1012 669 OFFCURVE",
"1108 742 OFFCURVE",
"1200 742 CURVE SMOOTH",
"1263 742 OFFCURVE",
"1338 714 OFFCURVE",
"1338 530 CURVE SMOOTH",
"1338 162 LINE SMOOTH",
"1338 100 OFFCURVE",
"1320 64 OFFCURVE",
"1210 64 CURVE",
"1210 0 LINE"
);
},
{
closed = 1;
nodes = (
"507 0 LINE",
"507 64 LINE",
"397 64 OFFCURVE",
"379 100 OFFCURVE",
"379 162 CURVE SMOOTH",
"379 842 LINE",
"334 842 LINE",
"48 752 LINE",
"48 688 LINE",
"172 718 OFFCURVE",
"197 710 OFFCURVE",
"197 636 CURVE SMOOTH",
"197 156 LINE SMOOTH",
"197 100 OFFCURVE",
"163 64 OFFCURVE",
"66 64 CURVE",
"66 0 LINE"
);
},
{
closed = 1;
nodes = (
"1086 0 LINE",
"1086 64 LINE",
"976 64 OFFCURVE",
"958 100 OFFCURVE",
"958 162 CURVE SMOOTH",
"958 580 LINE SMOOTH",
"958 808 OFFCURVE",
"800 842 OFFCURVE",
"687 842 CURVE SMOOTH",
"585 842 OFFCURVE",
"470 762 OFFCURVE",
"373 690 CURVE",
"373 602 LINE",
"460 669 OFFCURVE",
"555 742 OFFCURVE",
"647 742 CURVE SMOOTH",
"710 742 OFFCURVE",
"786 714 OFFCURVE",
"786 530 CURVE SMOOTH",
"786 162 LINE SMOOTH",
"786 100 OFFCURVE",
"768 64 OFFCURVE",
"658 64 CURVE",
"658 0 LINE"
);
}
);
width = 1687;
}
);
leftKerningGroup = n;
leftMetricsKey = i;
rightKerningGroup = n;
rightMetricsKey = i;
unicode = 006D;
},
{
glyphname = n;
lastChange = "2020-10-09 21:33:46 +0000";
layers = (
{
anchors = (
{
name = bottom;
position = "{567, 0}";
},
{
name = top;
position = "{550, 826}";
}
);
layerId = "14A1E899-FED4-4F52-86F4-A1F822586E10";
paths = (
{
closed = 1;
nodes = (
"1086 0 LINE",
"1086 64 LINE",
"976 64 OFFCURVE",
"958 100 OFFCURVE",
"958 162 CURVE SMOOTH",
"958 569 LINE SMOOTH",
"958 777 OFFCURVE",
"844 841 OFFCURVE",
"683 841 CURVE SMOOTH",
"581 841 OFFCURVE",
"490 781 OFFCURVE",
"373 702 CURVE",
"373 614 LINE",
"488 700 OFFCURVE",
"568 759 OFFCURVE",
"645 759 CURVE SMOOTH",
"719 759 OFFCURVE",
"776 727 OFFCURVE",
"776 585 CURVE SMOOTH",
"776 162 LINE SMOOTH",
"776 100 OFFCURVE",
"758 64 OFFCURVE",
"648 64 CURVE",
"648 0 LINE"
);
},
{
closed = 1;
nodes = (
"507 0 LINE",
"507 64 LINE",
"397 64 OFFCURVE",
"379 100 OFFCURVE",
"379 162 CURVE SMOOTH",
"379 841 LINE",
"334 841 LINE",
"48 761 LINE",
"48 697 LINE",
"165 727 OFFCURVE",
"197 709 OFFCURVE",
"197 635 CURVE SMOOTH",
"197 156 LINE SMOOTH",
"197 100 OFFCURVE",
"163 64 OFFCURVE",
"66 64 CURVE",
"66 0 LINE"
);
}
);
width = 1134;
}
);
leftKerningGroup = i;
leftMetricsKey = i;
rightKerningGroup = n;
rightMetricsKey = i;
unicode = 006E;
},
{
glyphname = eng;
lastChange = "2020-10-04 03:12:57 +0000";
layers = (
{
anchors = (
{
name = bottom;
position = "{567, 0}";
},
{
name = top;
position = "{567, 926}";
}
);
layerId = "14A1E899-FED4-4F52-86F4-A1F822586E10";
paths = (
{
closed = 1;
nodes = (
"958 0 LINE",
"958 629 LINE SMOOTH",
"958 877 OFFCURVE",
"822 941 OFFCURVE",
"681 941 CURVE SMOOTH",
"579 941 OFFCURVE",
"470 874 OFFCURVE",
"373 802 CURVE",
"373 714 LINE",
"462 786 OFFCURVE",
"552 859 OFFCURVE",
"643 859 CURVE SMOOTH",
"715 859 OFFCURVE",
"786 793 OFFCURVE",
"786 589 CURVE SMOOTH",
"786 0 LINE"
);
},
{
closed = 1;
nodes = (
"507 0 LINE",
"507 64 LINE",
"397 64 OFFCURVE",
"379 100 OFFCURVE",
"379 162 CURVE SMOOTH",
"379 926 LINE",
"334 926 LINE",
"48 846 LINE",
"48 782 LINE",
"165 812 OFFCURVE",
"197 794 OFFCURVE",
"197 720 CURVE SMOOTH",
"197 156 LINE SMOOTH",
"197 100 OFFCURVE",
"163 64 OFFCURVE",
"66 64 CURVE",
"66 0 LINE"
);
},
{
closed = 1;
nodes = (
"786 -326 OFFCURVE",
"753 -387 OFFCURVE",
"656 -387 CURVE SMOOTH",
"578 -387 OFFCURVE",
"538 -347 OFFCURVE",
"529 -325 CURVE",
"463 -423 LINE",
"505 -453 OFFCURVE",
"559 -479 OFFCURVE",
"641 -479 CURVE SMOOTH",
"847 -479 OFFCURVE",
"958 -328 OFFCURVE",
"958 0 CURVE",
"786 0 LINE"
);
},
{
closed = 1;
nodes = (
"585 -389 LINE",
"636 -167 LINE",
"443 -197 LINE",
"463 -423 LINE"
);
}
);
width = 1006;
}
);
leftKerningGroup = n;
leftMetricsKey = n;
rightKerningGroup = n;
rightMetricsKey = n;
unicode = 014B;
},
{
glyphname = o;
lastChange = "2020-10-09 21:21:06 +0000";
layers = (
{
anchors = (
{
name = bottom;
position = "{522, 0}";
},
{
name = center;
position = "{522, 463}";
},
{
name = ogonek;
position = "{797, 71}";
},
{
name = top;
position = "{522, 826}";
},
{
name = topright;
position = "{783, 736}";
}
);
layerId = "14A1E899-FED4-4F52-86F4-A1F822586E10";
paths = (
{
closed = 1;
nodes = (
"777 -24 OFFCURVE",
"979 159 OFFCURVE",
"979 412 CURVE SMOOTH",
"979 666 OFFCURVE",
"777 841 OFFCURVE",
"522 841 CURVE SMOOTH",
"266 841 OFFCURVE",
"65 666 OFFCURVE",
"65 412 CURVE SMOOTH",
"65 159 OFFCURVE",
"266 -24 OFFCURVE",
"522 -24 CURVE SMOOTH"
);
},
{
closed = 1;
nodes = (
"293 46 OFFCURVE",
"282 314 OFFCURVE",
"282 452 CURVE SMOOTH",
"282 589 OFFCURVE",
"293 771 OFFCURVE",
"522 771 CURVE SMOOTH",
"750 771 OFFCURVE",
"763 511 OFFCURVE",
"763 372 CURVE SMOOTH",
"763 236 OFFCURVE",
"750 46 OFFCURVE",
"522 46 CURVE SMOOTH"
);
}
);
width = 1044;
}
);
leftKerningGroup = o;
rightKerningGroup = o;
unicode = 006F;
},
{
glyphname = ohorn;
lastChange = "2020-10-09 21:21:06 +0000";
layers = (
{
anchors = (
{
name = bottom;
position = "{522, 0}";
},
{
name = top;
position = "{522, 826}";
}
);
components = (
{
name = horncomb;
transform = "{1, 0, 0, 1, 640, -143}";
}
);
layerId = "14A1E899-FED4-4F52-86F4-A1F822586E10";
paths = (
{
closed = 1;
nodes = (
"777 -24 OFFCURVE",
"979 159 OFFCURVE",
"979 412 CURVE SMOOTH",
"979 666 OFFCURVE",
"777 841 OFFCURVE",
"522 841 CURVE SMOOTH",
"266 841 OFFCURVE",
"65 666 OFFCURVE",
"65 412 CURVE SMOOTH",
"65 159 OFFCURVE",
"266 -24 OFFCURVE",
"522 -24 CURVE SMOOTH"
);
},
{
closed = 1;
nodes = (
"293 46 OFFCURVE",
"282 314 OFFCURVE",
"282 452 CURVE SMOOTH",
"282 589 OFFCURVE",
"293 771 OFFCURVE",
"522 771 CURVE SMOOTH",
"750 771 OFFCURVE",
"763 511 OFFCURVE",
"763 372 CURVE SMOOTH",
"763 236 OFFCURVE",
"750 46 OFFCURVE",
"522 46 CURVE SMOOTH"
);
}
);
width = 1020;
}
);
leftKerningGroup = o;
leftMetricsKey = o;
rightKerningGroup = o;
rightMetricsKey = "=o-80";
unicode = 01A1;
},
{
glyphname = oslash;
lastChange = "2020-09-04 02:45:56 +0000";
layers = (
{
anchors = (
{
name = top;
position = "{540, 926}";
}
);
components = (
{
name = o;
}
);
layerId = "14A1E899-FED4-4F52-86F4-A1F822586E10";
paths = (
{
closed = 1;
nodes = (
"323 -89 LINE",
"856 926 LINE",
"768 956 LINE",
"232 -59 LINE"
);
}
);
width = 1079;
}
);
unicode = 00F8;
},
{
glyphname = oe;
lastChange = "2020-10-09 21:50:44 +0000";
layers = (
{
anchors = (
{
name = bottom;
position = "{845, 0}";
},
{
name = top;
position = "{845, 826}";
}
);
components = (
{
alignment = -1;
name = e;
transform = "{1, 0, 0, 1, 731, 0}";
}
);
layerId = "14A1E899-FED4-4F52-86F4-A1F822586E10";
paths = (
{
closed = 1;
nodes = (
"777 -24 OFFCURVE",
"979 159 OFFCURVE",
"979 412 CURVE SMOOTH",
"979 666 OFFCURVE",
"777 841 OFFCURVE",
"522 841 CURVE SMOOTH",
"266 841 OFFCURVE",
"65 666 OFFCURVE",
"65 412 CURVE SMOOTH",
"65 159 OFFCURVE",
"266 -24 OFFCURVE",
"522 -24 CURVE SMOOTH"
);
},
{
closed = 1;
nodes = (
"293 46 OFFCURVE",
"282 314 OFFCURVE",
"282 452 CURVE SMOOTH",
"282 589 OFFCURVE",
"293 771 OFFCURVE",
"522 771 CURVE SMOOTH",
"750 771 OFFCURVE",
"763 511 OFFCURVE",
"763 372 CURVE SMOOTH",
"763 236 OFFCURVE",
"750 46 OFFCURVE",
"522 46 CURVE SMOOTH"
);
}
);
width = 1689;
}
);
leftKerningGroup = o;
leftMetricsKey = o;
rightKerningGroup = e;
rightMetricsKey = e;
unicode = 0153;
},
{
glyphname = p;
lastChange = "2020-10-09 21:25:04 +0000";
layers = (
{
anchors = (
{
name = bottom;
position = "{547, 0}";
},
{
name = top;
position = "{587, 826}";
}
);
layerId = "14A1E899-FED4-4F52-86F4-A1F822586E10";
paths = (
{
closed = 1;
nodes = (
"501 -430 LINE",
"501 -366 LINE",
"391 -366 OFFCURVE",
"373 -330 OFFCURVE",
"373 -268 CURVE SMOOTH",
"373 840 LINE",
"328 840 LINE",
"48 760 LINE",
"48 696 LINE",
"186 726 OFFCURVE",
"197 718 OFFCURVE",
"197 654 CURVE SMOOTH",
"197 -274 LINE SMOOTH",
"197 -360 OFFCURVE",
"154 -366 OFFCURVE",
"48 -366 CURVE",
"48 -430 LINE"
);
},
{
closed = 1;
nodes = (
"794 -20 OFFCURVE",
"1022 134 OFFCURVE",
"1022 418 CURVE SMOOTH",
"1022 754 OFFCURVE",
"836 841 OFFCURVE",
"645 841 CURVE SMOOTH",
"548 841 OFFCURVE",
"445 768 OFFCURVE",
"372 715 CURVE",
"372 627 LINE",
"465 700 OFFCURVE",
"537 763 OFFCURVE",
"616 763 CURVE SMOOTH",
"713 763 OFFCURVE",
"825 653 OFFCURVE",
"825 357 CURVE SMOOTH",
"825 154 OFFCURVE",
"759 51 OFFCURVE",
"615 51 CURVE SMOOTH",
"498 51 OFFCURVE",
"426 131 OFFCURVE",
"363 354 CURVE",
"288 264 LINE",
"344 50 OFFCURVE",
"495 -20 OFFCURVE",
"599 -20 CURVE SMOOTH"
);
}
);
width = 1087;
}
);
leftMetricsKey = i;
rightKerningGroup = o;
rightMetricsKey = o;
unicode = 0070;
},
{
glyphname = thorn;
lastChange = "2020-09-04 02:29:44 +0000";
layers = (
{
anchors = (
{
name = bottom;
position = "{561, 0}";
},
{
name = top;
position = "{561, 926}";
}
);
layerId = "14A1E899-FED4-4F52-86F4-A1F822586E10";
paths = (
{
closed = 1;
nodes = (
"509 -500 LINE",
"509 -436 LINE",
"399 -436 OFFCURVE",
"381 -400 OFFCURVE",
"381 -338 CURVE SMOOTH",
"381 1500 LINE",
"336 1500 LINE",
"56 1420 LINE",
"56 1356 LINE",
"194 1386 OFFCURVE",
"205 1378 OFFCURVE",
"205 1314 CURVE SMOOTH",
"205 -344 LINE SMOOTH",
"205 -430 OFFCURVE",
"162 -436 OFFCURVE",
"56 -436 CURVE",
"56 -500 LINE"
);
},
{
closed = 1;
nodes = (
"812 -20 OFFCURVE",
"1040 164 OFFCURVE",
"1040 468 CURVE SMOOTH",
"1040 824 OFFCURVE",
"864 941 OFFCURVE",
"673 941 CURVE SMOOTH",
"576 941 OFFCURVE",
"462 868 OFFCURVE",
"380 815 CURVE",
"380 727 LINE",
"473 800 OFFCURVE",
"555 863 OFFCURVE",
"634 863 CURVE SMOOTH",
"731 863 OFFCURVE",
"853 733 OFFCURVE",
"853 407 CURVE SMOOTH",
"853 174 OFFCURVE",
"767 51 OFFCURVE",
"623 51 CURVE SMOOTH",
"506 51 OFFCURVE",
"443 111 OFFCURVE",
"380 314 CURVE",
"286 194 LINE",
"352 20 OFFCURVE",
"513 -20 OFFCURVE",
"617 -20 CURVE SMOOTH"
);
}
);
width = 1122;
}
);
unicode = 00FE;
},
{
glyphname = q;
lastChange = "2020-10-09 21:26:16 +0000";
layers = (
{
anchors = (
{
name = bottom;
position = "{493, 0}";
},
{
name = top;
position = "{493, 826}";
}
);
layerId = "14A1E899-FED4-4F52-86F4-A1F822586E10";
paths = (
{
closed = 1;
nodes = (
"708 538 LINE",
"708 -288 LINE",
"708 -350 OFFCURVE",
"690 -366 OFFCURVE",
"580 -366 CURVE",
"580 -430 LINE",
"1010 -430 LINE",
"1010 -366 LINE",
"900 -366 OFFCURVE",
"882 -349 OFFCURVE",
"882 -288 CURVE SMOOTH",
"882 840 LINE",
"817 840 LINE"
);
},
{
closed = 1;
nodes = (
"243 841 OFFCURVE",
"65 707 OFFCURVE",
"65 423 CURVE SMOOTH",
"65 87 OFFCURVE",
"251 -20 OFFCURVE",
"442 -20 CURVE SMOOTH",
"539 -20 OFFCURVE",
"643 50 OFFCURVE",
"715 106 CURVE",
"715 194 LINE",
"623 118 OFFCURVE",
"550 58 OFFCURVE",
"471 58 CURVE SMOOTH",
"374 58 OFFCURVE",
"262 168 OFFCURVE",
"262 464 CURVE SMOOTH",
"262 667 OFFCURVE",
"338 770 OFFCURVE",
"462 770 CURVE SMOOTH",
"579 770 OFFCURVE",
"661 690 OFFCURVE",
"724 467 CURVE",
"799 557 LINE",
"743 771 OFFCURVE",
"562 841 OFFCURVE",
"458 841 CURVE SMOOTH"
);
}
);
width = 998;
}
);
leftKerningGroup = o;
leftMetricsKey = o;
rightMetricsKey = "=i-60";
unicode = 0071;
},
{
glyphname = r;
lastChange = "2020-10-09 21:33:09 +0000";
layers = (
{
anchors = (
{
name = bottom;
position = "{284, 0}";
},
{
name = top;
position = "{514, 826}";
}
);
layerId = "14A1E899-FED4-4F52-86F4-A1F822586E10";
paths = (
{
closed = 1;
nodes = (
"519 0 LINE",
"519 64 LINE",
"409 64 OFFCURVE",
"373 100 OFFCURVE",
"373 162 CURVE SMOOTH",
"373 841 LINE",
"328 841 LINE",
"48 761 LINE",
"48 697 LINE",
"173 727 OFFCURVE",
"197 708 OFFCURVE",
"197 635 CURVE SMOOTH",
"197 186 LINE SMOOTH",
"197 80 OFFCURVE",
"154 64 OFFCURVE",
"48 64 CURVE",
"48 0 LINE"
);
},
{
closed = 1;
nodes = (
"483 678 OFFCURVE",
"586 743 OFFCURVE",
"628 743 CURVE",
"789 804 LINE",
"777 825 OFFCURVE",
"733 841 OFFCURVE",
"680 841 CURVE SMOOTH",
"614 841 OFFCURVE",
"459 740 OFFCURVE",
"360 672 CURVE",
"370 590 LINE"
);
},
{
closed = 1;
nodes = (
"807 589 LINE",
"789 804 LINE",
"628 760 LINE",
"615 539 LINE"
);
}
);
width = 855;
}
);
leftKerningGroup = r;
leftMetricsKey = i;
rightKerningGroup = r;
unicode = 0072;
},
{
glyphname = s;
lastChange = "2020-10-09 21:21:06 +0000";
layers = (
{
anchors = (
{
name = bottom;
position = "{397, 0}";
},
{
name = top;
position = "{397, 826}";
}
);
layerId = "14A1E899-FED4-4F52-86F4-A1F822586E10";
paths = (
{
closed = 1;
nodes = (
"559 -24 OFFCURVE",
"735 40 OFFCURVE",
"735 215 CURVE SMOOTH",
"735 372 OFFCURVE",
"571 437 OFFCURVE",
"426 492 CURVE SMOOTH",
"304 538 OFFCURVE",
"207 582 OFFCURVE",
"207 651 CURVE SMOOTH",
"207 760 OFFCURVE",
"325 771 OFFCURVE",
"408 771 CURVE SMOOTH",
"507 771 OFFCURVE",
"586 709 OFFCURVE",
"607 562 CURVE",
"670 562 LINE",
"690 787 LINE",
"645 808 OFFCURVE",
"508 841 OFFCURVE",
"408 841 CURVE SMOOTH",
"246 841 OFFCURVE",
"65 787 OFFCURVE",
"65 605 CURVE SMOOTH",
"65 459 OFFCURVE",
"227 391 OFFCURVE",
"369 338 CURVE SMOOTH",
"484 295 OFFCURVE",
"581 238 OFFCURVE",
"581 154 CURVE SMOOTH",
"581 77 OFFCURVE",
"483 46 OFFCURVE",
"397 46 CURVE SMOOTH",
"276 46 OFFCURVE",
"182 141 OFFCURVE",
"163 294 CURVE",
"90 294 LINE",
"70 60 LINE",
"143 18 OFFCURVE",
"254 -24 OFFCURVE",
"399 -24 CURVE SMOOTH"
);
}
);
width = 800;
}
);
leftKerningGroup = s;
leftMetricsKey = o;
rightKerningGroup = s;
rightMetricsKey = o;
unicode = 0073;
},
{
glyphname = germandbls;
lastChange = "2020-10-09 21:21:06 +0000";
layers = (
{
layerId = "14A1E899-FED4-4F52-86F4-A1F822586E10";
paths = (
{
closed = 1;
nodes = (
"825 784 OFFCURVE",
"1018 911 OFFCURVE",
"1018 1094 CURVE SMOOTH",
"1018 1317 OFFCURVE",
"862 1422 OFFCURVE",
"663 1422 CURVE SMOOTH",
"519 1422 OFFCURVE",
"457 1390 OFFCURVE",
"331 1285 CURVE SMOOTH",
"282 1244 OFFCURVE",
"197 1163 OFFCURVE",
"197 1107 CURVE SMOOTH",
"197 152 LINE SMOOTH",
"197 90 OFFCURVE",
"154 64 OFFCURVE",
"48 64 CURVE",
"48 0 LINE",
"373 0 LINE",
"373 1141 LINE SMOOTH",
"373 1224 OFFCURVE",
"508 1320 OFFCURVE",
"592 1320 CURVE SMOOTH",
"712 1320 OFFCURVE",
"826 1224 OFFCURVE",
"826 1042 CURVE SMOOTH",
"826 864 OFFCURVE",
"700 789 OFFCURVE",
"566 768 CURVE",
"566 718 LINE",
"756 714 OFFCURVE",
"886 592 OFFCURVE",
"886 326 CURVE SMOOTH",
"886 130 OFFCURVE",
"816 50 OFFCURVE",
"731 50 CURVE SMOOTH",
"592 50 OFFCURVE",
"536 137 OFFCURVE",
"521 262 CURVE",
"464 262 LINE",
"441 38 LINE",
"510 -1 OFFCURVE",
"601 -24 OFFCURVE",
"719 -24 CURVE SMOOTH",
"865 -24 OFFCURVE",
"1092 80 OFFCURVE",
"1092 404 CURVE SMOOTH",
"1092 650 OFFCURVE",
"867 756 OFFCURVE",
"707 756 CURVE"
);
}
);
width = 1157;
}
);
leftMetricsKey = l;
rightMetricsKey = b;
unicode = 00DF;
},
{
glyphname = t;
lastChange = "2020-10-09 21:19:23 +0000";
layers = (
{
anchors = (
{
name = bottom;
position = "{311, 0}";
},
{
name = center;
position = "{311, 463}";
},
{
name = top;
position = "{311, 826}";
},
{
name = topright;
position = "{566, 825}";
}
);
layerId = "14A1E899-FED4-4F52-86F4-A1F822586E10";
paths = (
{
closed = 1;
nodes = (
"452 -16 OFFCURVE",
"510 10 OFFCURVE",
"591 92 CURVE",
"559 134 LINE",
"510 90 OFFCURVE",
"456 72 OFFCURVE",
"418 72 CURVE SMOOTH",
"353 72 OFFCURVE",
"323 112 OFFCURVE",
"323 262 CURVE SMOOTH",
"323 747 LINE",
"589 747 LINE",
"607 826 LINE",
"323 826 LINE",
"323 1129 LINE",
"278 1129 LINE",
"238 1022 OFFCURVE",
"131 845 OFFCURVE",
"28 816 CURVE",
"28 747 LINE",
"146 747 LINE",
"146 228 LINE SMOOTH",
"146 24 OFFCURVE",
"282 -16 OFFCURVE",
"380 -16 CURVE SMOOTH"
);
}
);
width = 632;
}
);
leftKerningGroup = t;
rightKerningGroup = t;
rightMetricsKey = "=f+30";
unicode = 0074;
},
{
glyphname = u;
lastChange = "2020-10-09 21:35:05 +0000";
layers = (
{
anchors = (
{
name = bottom;
position = "{549, 0}";
},
{
name = ogonek;
position = "{967, 10}";
},
{
name = top;
position = "{519, 826}";
},
{
name = topright;
position = "{813, 826}";
}
);
layerId = "14A1E899-FED4-4F52-86F4-A1F822586E10";
paths = (
{
closed = 1;
nodes = (
"543 -15 OFFCURVE",
"646 54 OFFCURVE",
"763 133 CURVE",
"751 212 LINE",
"636 126 OFFCURVE",
"556 67 OFFCURVE",
"479 67 CURVE SMOOTH",
"405 67 OFFCURVE",
"348 99 OFFCURVE",
"348 241 CURVE SMOOTH",
"348 826 LINE",
"38 826 LINE",
"38 762 LINE",
"148 762 OFFCURVE",
"166 726 OFFCURVE",
"166 664 CURVE SMOOTH",
"166 257 LINE SMOOTH",
"166 49 OFFCURVE",
"280 -15 OFFCURVE",
"441 -15 CURVE SMOOTH"
);
},
{
closed = 1;
nodes = (
"962 -19 OFFCURVE",
"1017 -2 OFFCURVE",
"1051 23 CURVE",
"1011 67 LINE",
"977 39 OFFCURVE",
"923 36 OFFCURVE",
"923 98 CURVE SMOOTH",
"923 826 LINE",
"622 826 LINE",
"622 762 LINE",
"732 762 OFFCURVE",
"750 756 OFFCURVE",
"750 694 CURVE SMOOTH",
"750 159 LINE",
"758 38 OFFCURVE",
"802 -19 OFFCURVE",
"907 -19 CURVE SMOOTH"
);
}
);
width = 1071;
}
);
leftKerningGroup = u;
leftMetricsKey = "=i-10";
rightKerningGroup = a;
rightMetricsKey = a;
unicode = 0075;
},
{
glyphname = uhorn;
lastChange = "2020-10-09 21:15:37 +0000";
layers = (
{
anchors = (
{
name = bottom;
position = "{543, 0}";
},
{
name = top;
position = "{543, 826}";
}
);
components = (
{
name = horncomb;
transform = "{1, 0, 0, 1, 753, -102}";
}
);
layerId = "14A1E899-FED4-4F52-86F4-A1F822586E10";
paths = (
{
closed = 1;
nodes = (
"574 -25 OFFCURVE",
"696 38 OFFCURVE",
"761 84 CURVE",
"773 31 OFFCURVE",
"820 -19 OFFCURVE",
"904 -19 CURVE SMOOTH",
"949 -19 OFFCURVE",
"1014 -12 OFFCURVE",
"1048 28 CURVE",
"998 67 LINE",
"954 29 OFFCURVE",
"920 36 OFFCURVE",
"920 98 CURVE SMOOTH",
"920 826 LINE",
"619 826 LINE",
"619 762 LINE",
"729 762 OFFCURVE",
"747 756 OFFCURVE",
"747 694 CURVE SMOOTH",
"747 159 LINE",
"675 104 OFFCURVE",
"581 49 OFFCURVE",
"484 49 CURVE SMOOTH",
"358 49 OFFCURVE",
"338 178 OFFCURVE",
"338 358 CURVE SMOOTH",
"338 826 LINE",
"38 826 LINE",
"38 762 LINE",
"147 762 OFFCURVE",
"165 756 OFFCURVE",
"165 694 CURVE SMOOTH",
"165 292 LINE SMOOTH",
"165 44 OFFCURVE",
"301 -25 OFFCURVE",
"444 -25 CURVE SMOOTH"
);
}
);
width = 1088;
}
);
leftKerningGroup = u;
leftMetricsKey = u;
rightKerningGroup = u;
rightMetricsKey = "=u-80";
unicode = 01B0;
},
{
glyphname = v;
lastChange = "2020-10-09 21:38:01 +0000";
layers = (
{
anchors = (
{
name = bottom;
position = "{482, 0}";
},
{
name = top;
position = "{541, 826}";
}
);
layerId = "14A1E899-FED4-4F52-86F4-A1F822586E10";
paths = (
{
closed = 1;
nodes = (
"518 -10 LINE",
"818 698 LINE SMOOTH",
"843 757 OFFCURVE",
"881 762 OFFCURVE",
"955 762 CURVE",
"955 826 LINE",
"609 826 LINE",
"609 762 LINE",
"671 762 OFFCURVE",
"724 762 OFFCURVE",
"724 726 CURVE SMOOTH",
"724 715 OFFCURVE",
"723 698 OFFCURVE",
"717 684 CURVE SMOOTH",
"536 237 LINE",
"353 692 LINE SMOOTH",
"348 704 OFFCURVE",
"344 720 OFFCURVE",
"344 730 CURVE SMOOTH",
"344 762 OFFCURVE",
"390 762 OFFCURVE",
"462 762 CURVE",
"462 826 LINE",
"10 826 LINE",
"10 762 LINE",
"84 762 OFFCURVE",
"122 755 OFFCURVE",
"147 698 CURVE SMOOTH",
"462 -10 LINE"
);
}
);
width = 965;
}
);
leftKerningGroup = v;
rightKerningGroup = v;
unicode = 0076;
},
{
glyphname = w;
lastChange = "2020-10-09 21:38:43 +0000";
layers = (
{
anchors = (
{
name = bottom;
position = "{697, 0}";
},
{
name = top;
position = "{718, 826}";
}
);
layerId = "14A1E899-FED4-4F52-86F4-A1F822586E10";
paths = (
{
closed = 1;
nodes = (
"972 0 LINE",
"1236 698 LINE SMOOTH",
"1258 757 OFFCURVE",
"1299 762 OFFCURVE",
"1373 762 CURVE",
"1373 826 LINE",
"1041 826 LINE",
"1041 762 LINE",
"1103 762 OFFCURVE",
"1150 758 OFFCURVE",
"1150 707 CURVE SMOOTH",
"1150 696 OFFCURVE",
"1147 683 OFFCURVE",
"1142 670 CURVE SMOOTH",
"995 267 LINE",
"848 680 LINE SMOOTH",
"844 692 OFFCURVE",
"843 703 OFFCURVE",
"843 713 CURVE SMOOTH",
"843 759 OFFCURVE",
"881 762 OFFCURVE",
"953 762 CURVE",
"953 826 LINE",
"510 826 LINE",
"510 762 LINE",
"584 762 OFFCURVE",
"625 755 OFFCURVE",
"647 698 CURVE SMOOTH",
"916 0 LINE"
);
},
{
closed = 1;
nodes = (
"472 0 LINE",
"736 698 LINE",
"652 707 LINE",
"652 696 OFFCURVE",
"647 683 OFFCURVE",
"642 670 CURVE SMOOTH",
"495 267 LINE",
"348 680 LINE SMOOTH",
"344 692 OFFCURVE",
"343 703 OFFCURVE",
"343 713 CURVE SMOOTH",
"343 759 OFFCURVE",
"380 762 OFFCURVE",
"452 762 CURVE",
"452 826 LINE",
"10 826 LINE",
"10 762 LINE",
"84 762 OFFCURVE",
"125 755 OFFCURVE",
"147 698 CURVE SMOOTH",
"416 0 LINE"
);
}
);
width = 1383;
}
);
leftKerningGroup = v;
leftMetricsKey = v;
rightKerningGroup = v;
rightMetricsKey = v;
unicode = 0077;
},
{
glyphname = x;
lastChange = "2020-10-09 21:38:02 +0000";
layers = (
{
anchors = (
{
name = bottom;
position = "{517, 0}";
},
{
name = top;
position = "{517, 826}";
}
);
layerId = "14A1E899-FED4-4F52-86F4-A1F822586E10";
paths = (
{
closed = 1;
nodes = (
"1038 0 LINE",
"1038 64 LINE",
"964 64 OFFCURVE",
"932 83 OFFCURVE",
"892 128 CURVE SMOOTH",
"368 706 LINE SMOOTH",
"355 721 OFFCURVE",
"354 729 OFFCURVE",
"354 739 CURVE SMOOTH",
"354 760 OFFCURVE",
"390 762 OFFCURVE",
"478 762 CURVE",
"478 826 LINE",
"10 826 LINE",
"10 762 LINE",
"84 762 OFFCURVE",
"117 741 OFFCURVE",
"156 698 CURVE SMOOTH",
"684 127 LINE SMOOTH",
"699 110 OFFCURVE",
"702 98 OFFCURVE",
"702 87 CURVE SMOOTH",
"702 65 OFFCURVE",
"667 64 OFFCURVE",
"581 64 CURVE",
"581 0 LINE"
);
},
{
closed = 1;
nodes = (
"837 698 LINE SMOOTH",
"873 739 OFFCURVE",
"895 762 OFFCURVE",
"1005 762 CURVE",
"1005 826 LINE",
"619 826 LINE",
"619 762 LINE",
"711 762 OFFCURVE",
"751 759 OFFCURVE",
"751 741 CURVE SMOOTH",
"751 730 OFFCURVE",
"749 721 OFFCURVE",
"736 706 CURVE SMOOTH",
"500 445 LINE",
"552 380 LINE"
);
},
{
closed = 1;
nodes = (
"181 128 LINE SMOOTH",
"145 87 OFFCURVE",
"123 64 OFFCURVE",
"13 64 CURVE",
"13 0 LINE",
"399 0 LINE",
"399 64 LINE",
"307 64 OFFCURVE",
"267 67 OFFCURVE",
"267 85 CURVE SMOOTH",
"267 96 OFFCURVE",
"269 105 OFFCURVE",
"282 120 CURVE SMOOTH",
"518 381 LINE",
"466 446 LINE"
);
}
);
width = 1048;
}
);
leftKerningGroup = x;
leftMetricsKey = v;
rightKerningGroup = x;
rightMetricsKey = v;
unicode = 0078;
},
{
glyphname = y;
lastChange = "2020-10-09 21:38:02 +0000";
layers = (
{
anchors = (
{
name = bottom;
position = "{674, 0}";
},
{
name = top;
position = "{498, 826}";
}
);
layerId = "14A1E899-FED4-4F52-86F4-A1F822586E10";
paths = (
{
closed = 1;
nodes = (
"538 0 LINE",
"831 698 LINE SMOOTH",
"855 756 OFFCURVE",
"892 762 OFFCURVE",
"966 762 CURVE",
"966 826 LINE",
"616 826 LINE",
"616 762 LINE",
"678 762 OFFCURVE",
"738 760 OFFCURVE",
"738 732 CURVE SMOOTH",
"738 721 OFFCURVE",
"736 712 OFFCURVE",
"730 698 CURVE SMOOTH",
"541 248 LINE",
"358 692 LINE SMOOTH",
"353 704 OFFCURVE",
"350 719 OFFCURVE",
"350 729 CURVE SMOOTH",
"350 757 OFFCURVE",
"395 762 OFFCURVE",
"467 762 CURVE",
"467 826 LINE",
"10 826 LINE",
"10 762 LINE",
"84 762 OFFCURVE",
"121 755 OFFCURVE",
"147 698 CURVE SMOOTH",
"462 0 LINE"
);
},
{
closed = 1;
nodes = (
"347 -438 OFFCURVE",
"395 -351 OFFCURVE",
"456 -201 CURVE SMOOTH",
"538 0 LINE",
"463 55 LINE",
"368 -182 LINE SMOOTH",
"318 -306 OFFCURVE",
"294 -353 OFFCURVE",
"262 -353 CURVE SMOOTH",
"237 -353 OFFCURVE",
"217 -321 OFFCURVE",
"214 -280 CURVE",
"95 -395 LINE",
"113 -419 OFFCURVE",
"168 -438 OFFCURVE",
"219 -438 CURVE"
);
},
{
closed = 1;
nodes = (
"217 -351 LINE",
"250 -201 LINE",
"95 -220 LINE",
"95 -395 LINE"
);
}
);
width = 976;
}
);
leftKerningGroup = v;
leftMetricsKey = v;
rightKerningGroup = v;
rightMetricsKey = v;
unicode = 0079;
},
{
glyphname = z;
lastChange = "2020-10-09 20:54:37 +0000";
layers = (
{
anchors = (
{
name = bottom;
position = "{417, 0}";
},
{
name = center;
position = "{417, 463}";
},
{
name = top;
position = "{417, 826}";
}
);
layerId = "14A1E899-FED4-4F52-86F4-A1F822586E10";
paths = (
{
closed = 1;
nodes = (
"759 0 LINE",
"786 286 LINE",
"721 286 LINE",
"692 131 OFFCURVE",
"659 74 OFFCURVE",
"593 74 CURVE SMOOTH",
"237 74 LINE",
"748 760 LINE",
"748 826 LINE",
"84 826 LINE",
"57 538 LINE",
"127 538 LINE",
"156 666 OFFCURVE",
"178 752 OFFCURVE",
"242 752 CURVE SMOOTH",
"555 752 LINE",
"48 66 LINE",
"48 0 LINE"
);
}
);
width = 834;
}
);
leftKerningGroup = z;
leftMetricsKey = i;
rightKerningGroup = z;
rightMetricsKey = i;
unicode = 007A;
},
{
glyphname = ordmasculine;
lastChange = "2020-09-04 01:35:09 +0000";
layers = (
{
layerId = "14A1E899-FED4-4F52-86F4-A1F822586E10";
paths = (
{
closed = 1;
nodes = (
"415 1002 OFFCURVE",
"515 1072 OFFCURVE",
"515 1214 CURVE SMOOTH",
"515 1358 OFFCURVE",
"417 1422 OFFCURVE",
"297 1422 CURVE SMOOTH",
"173 1422 OFFCURVE",
"79 1348 OFFCURVE",
"79 1214 CURVE SMOOTH",
"79 1076 OFFCURVE",
"185 1002 OFFCURVE",
"297 1002 CURVE SMOOTH"
);
},
{
closed = 1;
nodes = (
"231 1054 OFFCURVE",
"199 1112 OFFCURVE",
"199 1220 CURVE SMOOTH",
"199 1298 OFFCURVE",
"231 1370 OFFCURVE",
"297 1370 CURVE SMOOTH",
"363 1370 OFFCURVE",
"393 1300 OFFCURVE",
"393 1202 CURVE SMOOTH",
"393 1124 OFFCURVE",
"363 1054 OFFCURVE",
"297 1054 CURVE SMOOTH"
);
}
);
width = 594;
}
);
leftMetricsKey = T;
rightMetricsKey = T;
unicode = 00BA;
},
{
glyphname = zero;
lastChange = "2020-08-27 21:47:43 +0000";
layers = (
{
layerId = "14A1E899-FED4-4F52-86F4-A1F822586E10";
paths = (
{
closed = 1;
nodes = (
"914 -24 OFFCURVE",
"1082 272 OFFCURVE",
"1082 698 CURVE SMOOTH",
"1082 1124 OFFCURVE",
"914 1422 OFFCURVE",
"580 1422 CURVE SMOOTH",
"246 1422 OFFCURVE",
"80 1124 OFFCURVE",
"80 698 CURVE SMOOTH",
"80 272 OFFCURVE",
"246 -24 OFFCURVE",
"580 -24 CURVE SMOOTH"
);
},
{
closed = 1;
nodes = (
"344 46 OFFCURVE",
"282 434 OFFCURVE",
"282 698 CURVE SMOOTH",
"282 962 OFFCURVE",
"344 1352 OFFCURVE",
"580 1352 CURVE SMOOTH",
"816 1352 OFFCURVE",
"878 962 OFFCURVE",
"878 698 CURVE SMOOTH",
"878 434 OFFCURVE",
"816 46 OFFCURVE",
"580 46 CURVE SMOOTH"
);
}
);
width = 1162;
}
);
unicode = 0030;
},
{
glyphname = zero.osf;
lastChange = "2020-10-01 04:04:14 +0000";
layers = (
{
layerId = "14A1E899-FED4-4F52-86F4-A1F822586E10";
paths = (
{
closed = 1;
nodes = (
"854 -24 OFFCURVE",
"1022 183 OFFCURVE",
"1022 459 CURVE",
"1022 735 OFFCURVE",
"854 942 OFFCURVE",
"550 942 CURVE SMOOTH",
"246 942 OFFCURVE",
"80 735 OFFCURVE",
"80 459 CURVE SMOOTH",
"80 183 OFFCURVE",
"246 -24 OFFCURVE",
"550 -24 CURVE SMOOTH"
);
},
{
closed = 1;
nodes = (
"344 46 OFFCURVE",
"282 285 OFFCURVE",
"282 459 CURVE SMOOTH",
"282 633 OFFCURVE",
"344 872 OFFCURVE",
"550 872 CURVE SMOOTH",
"756 872 OFFCURVE",
"818 633 OFFCURVE",
"818 459 CURVE",
"818 285 OFFCURVE",
"756 46 OFFCURVE",
"550 46 CURVE SMOOTH"
);
}
);
width = 1102;
}
);
leftMetricsKey = zero;
rightMetricsKey = zero;
},
{
glyphname = one;
lastChange = "2020-08-27 21:53:32 +0000";
layers = (
{
layerId = "14A1E899-FED4-4F52-86F4-A1F822586E10";
paths = (
{
closed = 1;
nodes = (
"584 0 LINE",
"584 64 LINE",
"462 64 OFFCURVE",
"432 72 OFFCURVE",
"432 152 CURVE SMOOTH",
"432 1400 LINE",
"372 1400 LINE",
"326 1346 OFFCURVE",
"240 1280 OFFCURVE",
"80 1280 CURVE",
"80 1214 LINE",
"246 1214 LINE",
"246 152 LINE SMOOTH",
"246 90 OFFCURVE",
"216 64 OFFCURVE",
"94 64 CURVE",
"94 0 LINE"
);
}
);
width = 664;
}
);
unicode = 0031;
},
{
glyphname = one.osf;
lastChange = "2020-10-01 04:04:50 +0000";
layers = (
{
layerId = "14A1E899-FED4-4F52-86F4-A1F822586E10";
paths = (
{
closed = 1;
nodes = (
"584 0 LINE",
"584 64 LINE",
"462 64 OFFCURVE",
"432 72 OFFCURVE",
"432 152 CURVE SMOOTH",
"432 956 LINE",
"372 956 LINE",
"326 922 OFFCURVE",
"240 886 OFFCURVE",
"80 886 CURVE",
"80 820 LINE",
"246 820 LINE",
"246 152 LINE SMOOTH",
"246 90 OFFCURVE",
"216 64 OFFCURVE",
"94 64 CURVE",
"94 0 LINE"
);
}
);
width = 664;
}
);
leftMetricsKey = one;
rightMetricsKey = one;
},
{
glyphname = two;
lastChange = "2020-09-03 18:59:03 +0000";
layers = (
{
layerId = "14A1E899-FED4-4F52-86F4-A1F822586E10";
paths = (
{
closed = 1;
nodes = (
"898 0 LINE",
"958 376 LINE",
"874 376 LINE",
"844 276 OFFCURVE",
"800 144 OFFCURVE",
"684 144 CURVE SMOOTH",
"249 144 LINE",
"666 643 LINE SMOOTH",
"811 817 OFFCURVE",
"886 913 OFFCURVE",
"886 1090 CURVE SMOOTH",
"886 1313 OFFCURVE",
"724 1424 OFFCURVE",
"516 1424 CURVE SMOOTH",
"273 1424 OFFCURVE",
"126 1249 OFFCURVE",
"74 1142 CURVE",
"139 1108 LINE",
"195 1234 OFFCURVE",
"322 1320 OFFCURVE",
"462 1320 CURVE SMOOTH",
"588 1320 OFFCURVE",
"674 1220 OFFCURVE",
"674 1001 CURVE SMOOTH",
"674 867 OFFCURVE",
"668 787 OFFCURVE",
"565 660 CURVE SMOOTH",
"80 64 LINE",
"80 0 LINE"
);
}
);
width = 1026;
}
);
unicode = 0032;
},
{
glyphname = two.osf;
lastChange = "2020-10-01 04:08:41 +0000";
layers = (
{
layerId = "14A1E899-FED4-4F52-86F4-A1F822586E10";
paths = (
{
closed = 1;
nodes = (
"758 0 LINE",
"808 287 LINE",
"734 287 LINE",
"704 187 OFFCURVE",
"670 144 OFFCURVE",
"554 144 CURVE SMOOTH",
"300 144 LINE",
"448 270 LINE SMOOTH",
"621 418 OFFCURVE",
"766 552 OFFCURVE",
"766 707 CURVE SMOOTH",
"766 850 OFFCURVE",
"664 944 OFFCURVE",
"456 944 CURVE SMOOTH",
"263 944 OFFCURVE",
"136 819 OFFCURVE",
"74 712 CURVE",
"139 678 LINE",
"205 784 OFFCURVE",
"282 840 OFFCURVE",
"382 840 CURVE SMOOTH",
"498 840 OFFCURVE",
"564 739 OFFCURVE",
"564 635 CURVE SMOOTH",
"564 515 OFFCURVE",
"553 455 OFFCURVE",
"429 348 CURVE SMOOTH",
"111 74 LINE",
"111 0 LINE"
);
}
);
width = 876;
}
);
leftMetricsKey = two;
rightMetricsKey = two;
},
{
glyphname = three;
lastChange = "2020-10-01 04:10:23 +0000";
layers = (
{
layerId = "14A1E899-FED4-4F52-86F4-A1F822586E10";
paths = (
{
closed = 1;
nodes = (
"707 -24 OFFCURVE",
"961 90 OFFCURVE",
"961 414 CURVE SMOOTH",
"961 660 OFFCURVE",
"735 767 OFFCURVE",
"575 767 CURVE",
"693 795 OFFCURVE",
"907 911 OFFCURVE",
"907 1094 CURVE SMOOTH",
"907 1317 OFFCURVE",
"741 1422 OFFCURVE",
"532 1422 CURVE SMOOTH",
"294 1422 OFFCURVE",
"147 1251 OFFCURVE",
"93 1142 CURVE",
"159 1107 LINE",
"216 1230 OFFCURVE",
"338 1320 OFFCURVE",
"482 1320 CURVE SMOOTH",
"612 1320 OFFCURVE",
"695 1224 OFFCURVE",
"695 1042 CURVE SMOOTH",
"695 864 OFFCURVE",
"539 789 OFFCURVE",
"405 768 CURVE",
"405 718 LINE",
"595 714 OFFCURVE",
"755 592 OFFCURVE",
"755 326 CURVE SMOOTH",
"755 130 OFFCURVE",
"655 50 OFFCURVE",
"487 50 CURVE SMOOTH",
"287 50 OFFCURVE",
"227 170 OFFCURVE",
"207 382 CURVE",
"120 382 LINE",
"80 138 LINE",
"174 30 OFFCURVE",
"291 -24 OFFCURVE",
"485 -24 CURVE SMOOTH"
);
}
);
width = 1041;
}
);
unicode = 0033;
},
{
glyphname = three.osf;
lastChange = "2020-10-01 04:15:07 +0000";
layers = (
{
layerId = "14A1E899-FED4-4F52-86F4-A1F822586E10";
paths = (
{
closed = 1;
nodes = (
"644 -359 OFFCURVE",
"868 -255 OFFCURVE",
"868 -11 CURVE SMOOTH",
"868 175 OFFCURVE",
"682 282 OFFCURVE",
"522 282 CURVE",
"640 310 OFFCURVE",
"824 446 OFFCURVE",
"824 629 CURVE SMOOTH",
"824 832 OFFCURVE",
"678 937 OFFCURVE",
"469 937 CURVE SMOOTH",
"231 937 OFFCURVE",
"144 809 OFFCURVE",
"80 710 CURVE",
"146 675 LINE",
"213 788 OFFCURVE",
"285 835 OFFCURVE",
"419 835 CURVE SMOOTH",
"549 835 OFFCURVE",
"612 729 OFFCURVE",
"612 597 CURVE SMOOTH",
"612 419 OFFCURVE",
"486 304 OFFCURVE",
"352 283 CURVE",
"352 233 LINE",
"542 229 OFFCURVE",
"662 137 OFFCURVE",
"662 -59 CURVE SMOOTH",
"662 -225 OFFCURVE",
"592 -285 OFFCURVE",
"464 -285 CURVE SMOOTH",
"304 -285 OFFCURVE",
"244 -165 OFFCURVE",
"224 47 CURVE",
"147 47 LINE",
"107 -197 LINE",
"201 -305 OFFCURVE",
"308 -359 OFFCURVE",
"462 -359 CURVE SMOOTH"
);
}
);
width = 948;
}
);
leftMetricsKey = three;
rightMetricsKey = three;
},
{
glyphname = four;
lastChange = "2020-10-01 04:11:41 +0000";
layers = (
{
layerId = "14A1E899-FED4-4F52-86F4-A1F822586E10";
paths = (
{
closed = 1;
nodes = (
"900 0 LINE",
"900 64 LINE",
"804 64 OFFCURVE",
"758 80 OFFCURVE",
"758 142 CURVE SMOOTH",
"758 392 LINE",
"926 392 LINE",
"926 488 LINE",
"758 488 LINE",
"758 1400 LINE",
"682 1400 LINE",
"30 480 LINE",
"30 392 LINE",
"580 392 LINE",
"580 142 LINE SMOOTH",
"580 80 OFFCURVE",
"560 64 OFFCURVE",
"438 64 CURVE",
"438 0 LINE"
);
},
{
closed = 1;
nodes = (
"582 1118 LINE",
"582 488 LINE",
"136 488 LINE"
);
}
);
width = 986;
}
);
unicode = 0034;
},
{
glyphname = four.osf;
lastChange = "2020-10-01 04:17:41 +0000";
layers = (
{
layerId = "14A1E899-FED4-4F52-86F4-A1F822586E10";
paths = (
{
closed = 1;
nodes = (
"800 -346 LINE",
"800 -282 LINE",
"704 -282 OFFCURVE",
"658 -266 OFFCURVE",
"658 -204 CURVE SMOOTH",
"658 0 LINE",
"826 0 LINE",
"826 96 LINE",
"658 96 LINE",
"658 938 LINE",
"582 938 LINE",
"30 88 LINE",
"30 0 LINE",
"480 0 LINE",
"480 -204 LINE SMOOTH",
"480 -266 OFFCURVE",
"460 -282 OFFCURVE",
"338 -282 CURVE",
"338 -346 LINE"
);
},
{
closed = 1;
nodes = (
"482 647 LINE",
"482 96 LINE",
"126 96 LINE"
);
}
);
width = 886;
}
);
leftMetricsKey = four;
rightMetricsKey = four;
},
{
glyphname = five;
lastChange = "2020-09-03 19:01:37 +0000";
layers = (
{
layerId = "14A1E899-FED4-4F52-86F4-A1F822586E10";
paths = (
{
closed = 1;
nodes = (
"794 -24 OFFCURVE",
"1002 170 OFFCURVE",
"1002 476 CURVE SMOOTH",
"1002 750 OFFCURVE",
"810 894 OFFCURVE",
"578 894 CURVE SMOOTH",
"398 894 OFFCURVE",
"298 798 OFFCURVE",
"235 732 CURVE",
"304 1256 LINE",
"923 1256 LINE",
"974 1480 LINE",
"908 1480 LINE",
"897 1429 OFFCURVE",
"880 1400 OFFCURVE",
"845 1400 CURVE",
"222 1400 LINE",
"130 664 LINE",
"224 636 LINE",
"328 744 OFFCURVE",
"434 760 OFFCURVE",
"518 760 CURVE SMOOTH",
"728 760 OFFCURVE",
"794 570 OFFCURVE",
"794 386 CURVE SMOOTH",
"794 206 OFFCURVE",
"736 46 OFFCURVE",
"542 46 CURVE SMOOTH",
"352 46 OFFCURVE",
"244 164 OFFCURVE",
"218 382 CURVE",
"130 382 LINE",
"90 134 LINE",
"182 26 OFFCURVE",
"342 -24 OFFCURVE",
"522 -24 CURVE SMOOTH"
);
}
);
width = 1082;
}
);
unicode = 0035;
},
{
glyphname = five.osf;
lastChange = "2020-10-01 04:17:35 +0000";
layers = (
{
layerId = "14A1E899-FED4-4F52-86F4-A1F822586E10";
paths = (
{
closed = 1;
nodes = (
"654 -357 OFFCURVE",
"862 -222 OFFCURVE",
"862 104 CURVE SMOOTH",
"862 378 OFFCURVE",
"660 478 OFFCURVE",
"488 478 CURVE SMOOTH",
"368 478 OFFCURVE",
"288 428 OFFCURVE",
"225 362 CURVE",
"279 782 LINE",
"783 782 LINE",
"834 1006 LINE",
"768 1006 LINE",
"757 955 OFFCURVE",
"740 926 OFFCURVE",
"705 926 CURVE",
"202 926 LINE",
"120 286 LINE",
"214 258 LINE",
"308 353 OFFCURVE",
"404 354 OFFCURVE",
"448 354 CURVE SMOOTH",
"598 354 OFFCURVE",
"664 228 OFFCURVE",
"664 44 CURVE SMOOTH",
"664 -166 OFFCURVE",
"586 -287 OFFCURVE",
"462 -287 CURVE SMOOTH",
"332 -287 OFFCURVE",
"244 -169 OFFCURVE",
"218 49 CURVE",
"130 49 LINE",
"90 -199 LINE",
"182 -307 OFFCURVE",
"322 -357 OFFCURVE",
"442 -357 CURVE SMOOTH"
);
}
);
width = 942;
}
);
leftMetricsKey = five;
rightMetricsKey = five;
},
{
glyphname = six;
lastChange = "2020-09-03 19:02:12 +0000";
layers = (
{
layerId = "14A1E899-FED4-4F52-86F4-A1F822586E10";
paths = (
{
closed = 1;
nodes = (
"810 -24 OFFCURVE",
"1012 174 OFFCURVE",
"1012 482 CURVE SMOOTH",
"1012 740 OFFCURVE",
"852 892 OFFCURVE",
"616 892 CURVE SMOOTH",
"480 892 OFFCURVE",
"352 822 OFFCURVE",
"306 766 CURVE",
"406 1114 OFFCURVE",
"524 1255 OFFCURVE",
"798 1353 CURVE",
"788 1415 LINE",
"329 1329 OFFCURVE",
"80 992 OFFCURVE",
"80 576 CURVE SMOOTH",
"80 202 OFFCURVE",
"244 -24 OFFCURVE",
"536 -24 CURVE SMOOTH"
);
},
{
closed = 1;
nodes = (
"350 44 OFFCURVE",
"286 314 OFFCURVE",
"286 573 CURVE SMOOTH",
"286 647 OFFCURVE",
"288 655 OFFCURVE",
"294 678 CURVE",
"364 750 OFFCURVE",
"472 792 OFFCURVE",
"568 792 CURVE SMOOTH",
"762 792 OFFCURVE",
"796 566 OFFCURVE",
"796 412 CURVE SMOOTH",
"796 140 OFFCURVE",
"728 44 OFFCURVE",
"546 44 CURVE SMOOTH"
);
}
);
width = 1092;
}
);
unicode = 0036;
},
{
glyphname = six.osf;
lastChange = "2020-10-01 04:20:28 +0000";
layers = (
{
layerId = "14A1E899-FED4-4F52-86F4-A1F822586E10";
paths = (
{
closed = 1;
nodes = (
"720 -24 OFFCURVE",
"922 127 OFFCURVE",
"922 393 CURVE SMOOTH",
"922 616 OFFCURVE",
"742 767 OFFCURVE",
"566 767 CURVE SMOOTH",
"430 767 OFFCURVE",
"333 707 OFFCURVE",
"306 658 CURVE",
"406 959 OFFCURVE",
"524 1081 OFFCURVE",
"748 1165 CURVE",
"738 1219 LINE",
"329 1145 OFFCURVE",
"80 853 OFFCURVE",
"80 494 CURVE SMOOTH",
"80 171 OFFCURVE",
"244 -24 OFFCURVE",
"486 -24 CURVE SMOOTH"
);
},
{
closed = 1;
nodes = (
"350 45 OFFCURVE",
"286 228 OFFCURVE",
"286 492 CURVE SMOOTH",
"286 536 OFFCURVE",
"289 549 OFFCURVE",
"294 562 CURVE",
"344 634 OFFCURVE",
"422 671 OFFCURVE",
"518 671 CURVE SMOOTH",
"692 671 OFFCURVE",
"706 486 OFFCURVE",
"706 353 CURVE SMOOTH",
"706 118 OFFCURVE",
"628 45 OFFCURVE",
"496 45 CURVE SMOOTH"
);
}
);
width = 1002;
}
);
leftMetricsKey = six;
rightMetricsKey = six;
},
{
glyphname = seven;
lastChange = "2020-10-01 04:17:52 +0000";
layers = (
{
layerId = "14A1E899-FED4-4F52-86F4-A1F822586E10";
paths = (
{
closed = 1;
nodes = (
"600 0 LINE",
"600 505 OFFCURVE",
"625 1021 OFFCURVE",
"934 1274 CURVE",
"934 1400 LINE",
"130 1400 LINE",
"80 1034 LINE",
"164 1034 LINE",
"193 1174 OFFCURVE",
"217 1256 OFFCURVE",
"343 1256 CURVE SMOOTH",
"828 1256 LINE",
"516 1056 OFFCURVE",
"392 527 OFFCURVE",
"392 0 CURVE"
);
}
);
width = 1014;
}
);
unicode = 0037;
},
{
glyphname = seven.osf;
lastChange = "2020-10-01 04:18:14 +0000";
layers = (
{
layerId = "14A1E899-FED4-4F52-86F4-A1F822586E10";
paths = (
{
closed = 1;
nodes = (
"550 -344 LINE",
"550 161 OFFCURVE",
"565 547 OFFCURVE",
"834 800 CURVE",
"834 926 LINE",
"130 926 LINE",
"80 590 LINE",
"164 590 LINE",
"193 730 OFFCURVE",
"208 782 OFFCURVE",
"334 782 CURVE SMOOTH",
"728 782 LINE",
"456 582 OFFCURVE",
"342 183 OFFCURVE",
"342 -344 CURVE"
);
}
);
width = 914;
}
);
leftMetricsKey = seven;
rightMetricsKey = seven;
},
{
glyphname = eight;
lastChange = "2020-09-03 19:06:59 +0000";
layers = (
{
layerId = "14A1E899-FED4-4F52-86F4-A1F822586E10";
paths = (
{
closed = 1;
nodes = (
"794 -24 OFFCURVE",
"1008 134 OFFCURVE",
"1008 402 CURVE SMOOTH",
"1008 570 OFFCURVE",
"866 714 OFFCURVE",
"708 784 CURVE",
"858 878 OFFCURVE",
"946 980 OFFCURVE",
"946 1108 CURVE SMOOTH",
"946 1342 OFFCURVE",
"732 1424 OFFCURVE",
"546 1424 CURVE SMOOTH",
"312 1424 OFFCURVE",
"120 1298 OFFCURVE",
"120 1094 CURVE SMOOTH",
"120 887 OFFCURVE",
"242 806 OFFCURVE",
"382 716 CURVE",
"218 666 OFFCURVE",
"78 545 OFFCURVE",
"78 344 CURVE SMOOTH",
"78 84 OFFCURVE",
"310 -24 OFFCURVE",
"526 -24 CURVE SMOOTH"
);
},
{
closed = 1;
nodes = (
"348 42 OFFCURVE",
"224 164 OFFCURVE",
"224 362 CURVE SMOOTH",
"224 518 OFFCURVE",
"294 606 OFFCURVE",
"454 666 CURVE",
"630 586 OFFCURVE",
"818 465 OFFCURVE",
"818 295 CURVE SMOOTH",
"818 81 OFFCURVE",
"684 42 OFFCURVE",
"514 42 CURVE SMOOTH"
);
},
{
closed = 1;
nodes = (
"504 878 OFFCURVE",
"281 991 OFFCURVE",
"281 1152 CURVE SMOOTH",
"281 1292 OFFCURVE",
"363 1354 OFFCURVE",
"519 1354 CURVE SMOOTH",
"679 1354 OFFCURVE",
"802 1304 OFFCURVE",
"802 1098 CURVE SMOOTH",
"802 956 OFFCURVE",
"760 898 OFFCURVE",
"616 822 CURVE"
);
}
);
width = 1088;
}
);
unicode = 0038;
},
{
glyphname = eight.osf;
lastChange = "2020-10-01 04:19:12 +0000";
layers = (
{
layerId = "14A1E899-FED4-4F52-86F4-A1F822586E10";
paths = (
{
closed = 1;
nodes = (
"692 -24 OFFCURVE",
"876 112 OFFCURVE",
"876 341 CURVE SMOOTH",
"876 485 OFFCURVE",
"754 609 OFFCURVE",
"618 668 CURVE",
"747 749 OFFCURVE",
"823 836 OFFCURVE",
"823 946 CURVE SMOOTH",
"823 1147 OFFCURVE",
"639 1218 OFFCURVE",
"480 1218 CURVE SMOOTH",
"289 1218 OFFCURVE",
"115 1110 OFFCURVE",
"115 935 CURVE SMOOTH",
"115 757 OFFCURVE",
"219 687 OFFCURVE",
"339 611 CURVE",
"198 567 OFFCURVE",
"78 464 OFFCURVE",
"78 291 CURVE SMOOTH",
"78 68 OFFCURVE",
"278 -24 OFFCURVE",
"462 -24 CURVE SMOOTH"
);
},
{
closed = 1;
nodes = (
"330 45 OFFCURVE",
"203 137 OFFCURVE",
"203 307 CURVE SMOOTH",
"203 441 OFFCURVE",
"264 516 OFFCURVE",
"400 567 CURVE",
"552 499 OFFCURVE",
"713 395 OFFCURVE",
"713 249 CURVE SMOOTH",
"713 76 OFFCURVE",
"578 45 OFFCURVE",
"452 45 CURVE SMOOTH"
);
},
{
closed = 1;
nodes = (
"444 749 OFFCURVE",
"262 856 OFFCURVE",
"262 985 CURVE SMOOTH",
"262 1105 OFFCURVE",
"343 1150 OFFCURVE",
"456 1150 CURVE SMOOTH",
"574 1150 OFFCURVE",
"699 1114 OFFCURVE",
"699 938 CURVE SMOOTH",
"699 816 OFFCURVE",
"663 767 OFFCURVE",
"540 701 CURVE"
);
}
);
width = 956;
}
);
leftMetricsKey = eight;
rightMetricsKey = eight;
},
{
glyphname = nine;
lastChange = "2020-08-27 21:53:32 +0000";
layers = (
{
layerId = "14A1E899-FED4-4F52-86F4-A1F822586E10";
paths = (
{
closed = 1;
nodes = (
"763 69 OFFCURVE",
"1012 426 OFFCURVE",
"1012 842 CURVE SMOOTH",
"1012 1216 OFFCURVE",
"838 1422 OFFCURVE",
"546 1422 CURVE SMOOTH",
"272 1422 OFFCURVE",
"80 1274 OFFCURVE",
"80 966 CURVE SMOOTH",
"80 708 OFFCURVE",
"240 506 OFFCURVE",
"476 506 CURVE SMOOTH",
"612 506 OFFCURVE",
"740 576 OFFCURVE",
"786 632 CURVE",
"706 274 OFFCURVE",
"568 143 OFFCURVE",
"294 45 CURVE",
"304 -17 LINE"
);
},
{
closed = 1;
nodes = (
"320 586 OFFCURVE",
"296 822 OFFCURVE",
"296 976 CURVE SMOOTH",
"296 1252 OFFCURVE",
"364 1354 OFFCURVE",
"546 1354 CURVE SMOOTH",
"742 1354 OFFCURVE",
"806 1084 OFFCURVE",
"806 825 CURVE SMOOTH",
"806 751 OFFCURVE",
"804 743 OFFCURVE",
"798 720 CURVE",
"728 648 OFFCURVE",
"610 586 OFFCURVE",
"514 586 CURVE SMOOTH"
);
}
);
width = 1092;
}
);
unicode = 0039;
},
{
glyphname = nine.osf;
lastChange = "2020-10-01 04:20:30 +0000";
layers = (
{
layerId = "14A1E899-FED4-4F52-86F4-A1F822586E10";
paths = (
{
closed = 1;
nodes = (
"282 930 OFFCURVE",
"80 779 OFFCURVE",
"80 513 CURVE SMOOTH",
"80 290 OFFCURVE",
"260 139 OFFCURVE",
"436 139 CURVE SMOOTH",
"572 139 OFFCURVE",
"669 199 OFFCURVE",
"696 248 CURVE",
"596 -53 OFFCURVE",
"478 -205 OFFCURVE",
"254 -289 CURVE",
"264 -343 LINE",
"663 -269 OFFCURVE",
"922 53 OFFCURVE",
"922 412 CURVE SMOOTH",
"922 735 OFFCURVE",
"758 930 OFFCURVE",
"516 930 CURVE SMOOTH"
);
},
{
closed = 1;
nodes = (
"652 861 OFFCURVE",
"716 688 OFFCURVE",
"716 414 CURVE SMOOTH",
"716 370 OFFCURVE",
"713 357 OFFCURVE",
"708 344 CURVE",
"658 272 OFFCURVE",
"580 235 OFFCURVE",
"484 235 CURVE SMOOTH",
"310 235 OFFCURVE",
"296 420 OFFCURVE",
"296 553 CURVE SMOOTH",
"296 788 OFFCURVE",
"384 861 OFFCURVE",
"506 861 CURVE SMOOTH"
);
}
);
width = 1002;
}
);
leftMetricsKey = nine;
rightMetricsKey = nine;
},
{
glyphname = period;
lastChange = "2020-09-03 19:13:06 +0000";
layers = (
{
layerId = "14A1E899-FED4-4F52-86F4-A1F822586E10";
paths = (
{
closed = 1;
nodes = (
"216 -22 OFFCURVE",
"272 34 OFFCURVE",
"272 104 CURVE SMOOTH",
"272 174 OFFCURVE",
"216 230 OFFCURVE",
"146 230 CURVE SMOOTH",
"76 230 OFFCURVE",
"20 174 OFFCURVE",
"20 104 CURVE SMOOTH",
"20 34 OFFCURVE",
"76 -22 OFFCURVE",
"146 -22 CURVE SMOOTH"
);
}
);
width = 442;
}
);
unicode = 002E;
},
{
glyphname = comma;
lastChange = "2020-09-03 19:13:19 +0000";
layers = (
{
layerId = "14A1E899-FED4-4F52-86F4-A1F822586E10";
paths = (
{
closed = 1;
nodes = (
"126 -212 OFFCURVE",
"289 -120 OFFCURVE",
"289 78 CURVE SMOOTH",
"289 168 OFFCURVE",
"228 226 OFFCURVE",
"158 226 CURVE SMOOTH",
"88 226 OFFCURVE",
"26 178 OFFCURVE",
"26 104 CURVE SMOOTH",
"26 32 OFFCURVE",
"64 -18 OFFCURVE",
"138 -18 CURVE SMOOTH",
"164 -18 OFFCURVE",
"178 -12 OFFCURVE",
"182 -8 CURVE",
"184 -58 OFFCURVE",
"150 -128 OFFCURVE",
"58 -190 CURVE",
"86 -232 LINE"
);
}
);
width = 392;
}
);
unicode = 002C;
},
{
glyphname = exclam;
lastChange = "2020-09-03 19:10:17 +0000";
layers = (
{
components = (
{
name = period;
transform = "{1, 0, 0, 1, 8, 0}";
}
);
layerId = "14A1E899-FED4-4F52-86F4-A1F822586E10";
paths = (
{
closed = 1;
nodes = (
"196 412 LINE",
"244 1262 LINE",
"244 1400 LINE",
"66 1400 LINE",
"66 1262 LINE",
"112 412 LINE"
);
}
);
width = 380;
}
);
unicode = 0021;
},
{
glyphname = question;
lastChange = "2020-09-03 19:09:42 +0000";
layers = (
{
components = (
{
name = period;
transform = "{1, 0, 0, 1, 294, 0}";
}
);
layerId = "14A1E899-FED4-4F52-86F4-A1F822586E10";
paths = (
{
closed = 1;
nodes = (
"470 412 LINE",
"531 588 OFFCURVE",
"874 810 OFFCURVE",
"874 1086 CURVE SMOOTH",
"874 1326 OFFCURVE",
"674 1424 OFFCURVE",
"482 1424 CURVE SMOOTH",
"358 1424 OFFCURVE",
"214 1396 OFFCURVE",
"92 1278 CURVE",
"62 1008 LINE",
"142 1008 LINE",
"186 1180 OFFCURVE",
"261 1346 OFFCURVE",
"434 1346 CURVE SMOOTH",
"582 1346 OFFCURVE",
"658 1210 OFFCURVE",
"658 1046 CURVE SMOOTH",
"658 766 OFFCURVE",
"454 618 OFFCURVE",
"404 412 CURVE"
);
}
);
width = 1036;
}
);
unicode = 003F;
},
{
glyphname = periodcentered;
lastChange = "2020-08-27 16:01:06 +0000";
layers = (
{
layerId = "14A1E899-FED4-4F52-86F4-A1F822586E10";
paths = (
{
closed = 1;
nodes = (
"206 700 OFFCURVE",
"254 748 OFFCURVE",
"254 808 CURVE SMOOTH",
"254 868 OFFCURVE",
"206 916 OFFCURVE",
"146 916 CURVE SMOOTH",
"86 916 OFFCURVE",
"38 868 OFFCURVE",
"38 808 CURVE SMOOTH",
"38 748 OFFCURVE",
"86 700 OFFCURVE",
"146 700 CURVE SMOOTH"
);
}
);
width = 434;
}
);
unicode = 00B7;
},
{
glyphname = bullet;
lastChange = "2020-08-27 16:01:06 +0000";
layers = (
{
layerId = "14A1E899-FED4-4F52-86F4-A1F822586E10";
paths = (
{
closed = 1;
nodes = (
"368 452 OFFCURVE",
"458 550 OFFCURVE",
"458 672 CURVE SMOOTH",
"458 792 OFFCURVE",
"368 888 OFFCURVE",
"260 888 CURVE SMOOTH",
"152 888 OFFCURVE",
"62 792 OFFCURVE",
"62 672 CURVE SMOOTH",
"62 550 OFFCURVE",
"152 452 OFFCURVE",
"260 452 CURVE SMOOTH"
);
}
);
width = 666;
}
);
unicode = 2022;
},
{
glyphname = asterisk;
lastChange = "2020-09-03 19:15:14 +0000";
layers = (
{
layerId = "14A1E899-FED4-4F52-86F4-A1F822586E10";
paths = (
{
closed = 1;
nodes = (
"360 822 OFFCURVE",
"388 840 OFFCURVE",
"388 878 CURVE SMOOTH",
"388 900 OFFCURVE",
"368 1040 OFFCURVE",
"352 1118 CURVE",
"352 1148 LINE",
"368 1226 OFFCURVE",
"388 1360 OFFCURVE",
"388 1382 CURVE SMOOTH",
"388 1420 OFFCURVE",
"360 1438 OFFCURVE",
"328 1438 CURVE SMOOTH",
"296 1438 OFFCURVE",
"268 1420 OFFCURVE",
"268 1382 CURVE SMOOTH",
"268 1364 OFFCURVE",
"284 1228 OFFCURVE",
"298 1150 CURVE",
"300 1114 LINE",
"286 1036 OFFCURVE",
"268 896 OFFCURVE",
"268 878 CURVE SMOOTH",
"268 840 OFFCURVE",
"296 822 OFFCURVE",
"328 822 CURVE SMOOTH"
);
},
{
closed = 1;
nodes = (
"77 948 OFFCURVE",
"107 933 OFFCURVE",
"140 952 CURVE SMOOTH",
"159 963 OFFCURVE",
"270 1050 OFFCURVE",
"330 1103 CURVE",
"356 1118 LINE",
"431 1143 OFFCURVE",
"557 1193 OFFCURVE",
"576 1204 CURVE SMOOTH",
"609 1223 OFFCURVE",
"611 1256 OFFCURVE",
"595 1284 CURVE SMOOTH",
"579 1312 OFFCURVE",
"549 1327 OFFCURVE",
"516 1308 CURVE SMOOTH",
"501 1299 OFFCURVE",
"391 1217 OFFCURVE",
"330 1166 CURVE",
"300 1146 LINE",
"226 1119 OFFCURVE",
"95 1065 OFFCURVE",
"80 1056 CURVE SMOOTH",
"47 1037 OFFCURVE",
"45 1004 OFFCURVE",
"61 976 CURVE SMOOTH"
);
},
{
closed = 1;
nodes = (
"611 1004 OFFCURVE",
"609 1037 OFFCURVE",
"576 1056 CURVE SMOOTH",
"557 1067 OFFCURVE",
"426 1120 OFFCURVE",
"350 1145 CURVE",
"324 1160 LINE",
"265 1213 OFFCURVE",
"159 1297 OFFCURVE",
"140 1308 CURVE SMOOTH",
"107 1327 OFFCURVE",
"77 1312 OFFCURVE",
"61 1284 CURVE SMOOTH",
"45 1256 OFFCURVE",
"47 1223 OFFCURVE",
"80 1204 CURVE SMOOTH",
"95 1195 OFFCURVE",
"221 1141 OFFCURVE",
"296 1114 CURVE",
"328 1098 LINE",
"388 1047 OFFCURVE",
"501 961 OFFCURVE",
"516 952 CURVE SMOOTH",
"549 933 OFFCURVE",
"579 948 OFFCURVE",
"595 976 CURVE SMOOTH"
);
}
);
width = 710;
}
);
unicode = 002A;
},
{
glyphname = numbersign;
lastChange = "2020-09-03 19:17:24 +0000";
layers = (
{
layerId = "14A1E899-FED4-4F52-86F4-A1F822586E10";
paths = (
{
closed = 1;
nodes = (
"206 0 LINE",
"373 0 LINE",
"638 1400 LINE",
"471 1400 LINE"
);
},
{
closed = 1;
nodes = (
"605 0 LINE",
"772 0 LINE",
"1037 1400 LINE",
"870 1400 LINE"
);
},
{
closed = 1;
nodes = (
"131 924 LINE",
"1182 924 LINE",
"1196 998 LINE",
"145 998 LINE"
);
},
{
closed = 1;
nodes = (
"52 408 LINE",
"1103 408 LINE",
"1117 482 LINE",
"66 482 LINE"
);
}
);
width = 1360;
}
);
unicode = 0023;
},
{
glyphname = slash;
lastChange = "2020-09-03 19:18:06 +0000";
layers = (
{
layerId = "14A1E899-FED4-4F52-86F4-A1F822586E10";
paths = (
{
closed = 1;
nodes = (
"159 -179 LINE",
"737 1500 LINE",
"621 1500 LINE",
"40 -179 LINE"
);
}
);
width = 854;
}
);
unicode = 002F;
},
{
glyphname = backslash;
lastChange = "2020-09-03 19:18:12 +0000";
layers = (
{
layerId = "14A1E899-FED4-4F52-86F4-A1F822586E10";
paths = (
{
closed = 1;
nodes = (
"176 1500 LINE",
"60 1500 LINE",
"638 -179 LINE",
"757 -179 LINE"
);
}
);
width = 854;
}
);
unicode = 005C;
},
{
glyphname = parenleft;
lastChange = "2020-08-27 21:17:50 +0000";
layers = (
{
layerId = "14A1E899-FED4-4F52-86F4-A1F822586E10";
paths = (
{
closed = 1;
nodes = (
"610 -429 LINE",
"510 -368 OFFCURVE",
"252 -163 OFFCURVE",
"252 505 CURVE SMOOTH",
"252 1105 OFFCURVE",
"530 1393 OFFCURVE",
"620 1476 CURVE",
"592 1516 LINE",
"506 1479 OFFCURVE",
"60 1221 OFFCURVE",
"60 505 CURVE SMOOTH",
"60 -144 OFFCURVE",
"496 -436 OFFCURVE",
"582 -480 CURVE"
);
}
);
width = 670;
}
);
unicode = 0028;
},
{
glyphname = parenright;
lastChange = "2020-08-27 21:17:53 +0000";
layers = (
{
layerId = "14A1E899-FED4-4F52-86F4-A1F822586E10";
paths = (
{
closed = 1;
nodes = (
"174 -436 OFFCURVE",
"610 -144 OFFCURVE",
"610 505 CURVE SMOOTH",
"610 1221 OFFCURVE",
"164 1479 OFFCURVE",
"78 1516 CURVE",
"50 1476 LINE",
"140 1393 OFFCURVE",
"418 1105 OFFCURVE",
"418 505 CURVE SMOOTH",
"418 -163 OFFCURVE",
"160 -368 OFFCURVE",
"60 -429 CURVE",
"88 -480 LINE"
);
}
);
width = 670;
}
);
unicode = 0029;
},
{
glyphname = braceleft;
lastChange = "2020-09-03 19:19:10 +0000";
layers = (
{
layerId = "14A1E899-FED4-4F52-86F4-A1F822586E10";
paths = (
{
closed = 1;
nodes = (
"472 -418 LINE",
"408 -410 OFFCURVE",
"232 -354 OFFCURVE",
"232 -19 CURVE SMOOTH",
"232 76 OFFCURVE",
"248 154 OFFCURVE",
"248 232 CURVE SMOOTH",
"248 353 OFFCURVE",
"222 467 OFFCURVE",
"110 513 CURVE",
"222 559 OFFCURVE",
"248 673 OFFCURVE",
"248 793 CURVE SMOOTH",
"248 863 OFFCURVE",
"232 964 OFFCURVE",
"232 1044 CURVE SMOOTH",
"232 1415 OFFCURVE",
"410 1437 OFFCURVE",
"472 1444 CURVE",
"472 1502 LINE",
"396 1493 OFFCURVE",
"96 1437 OFFCURVE",
"96 1046 CURVE SMOOTH",
"96 927 OFFCURVE",
"146 819 OFFCURVE",
"146 709 CURVE SMOOTH",
"146 612 OFFCURVE",
"122 554 OFFCURVE",
"54 541 CURVE",
"54 484 LINE",
"126 471 OFFCURVE",
"146 415 OFFCURVE",
"146 316 CURVE SMOOTH",
"146 195 OFFCURVE",
"96 87 OFFCURVE",
"96 -23 CURVE SMOOTH",
"96 -412 OFFCURVE",
"410 -468 OFFCURVE",
"472 -477 CURVE"
);
}
);
width = 628;
}
);
unicode = 007B;
},
{
glyphname = braceright;
lastChange = "2020-09-03 19:19:22 +0000";
layers = (
{
layerId = "14A1E899-FED4-4F52-86F4-A1F822586E10";
paths = (
{
closed = 1;
nodes = (
"116 -468 OFFCURVE",
"430 -412 OFFCURVE",
"430 -23 CURVE SMOOTH",
"430 87 OFFCURVE",
"380 195 OFFCURVE",
"380 316 CURVE SMOOTH",
"380 415 OFFCURVE",
"400 471 OFFCURVE",
"472 484 CURVE",
"472 541 LINE",
"404 554 OFFCURVE",
"380 612 OFFCURVE",
"380 709 CURVE SMOOTH",
"380 819 OFFCURVE",
"430 927 OFFCURVE",
"430 1046 CURVE SMOOTH",
"430 1437 OFFCURVE",
"130 1493 OFFCURVE",
"54 1502 CURVE",
"54 1444 LINE",
"116 1437 OFFCURVE",
"294 1415 OFFCURVE",
"294 1044 CURVE SMOOTH",
"294 964 OFFCURVE",
"278 863 OFFCURVE",
"278 793 CURVE SMOOTH",
"278 673 OFFCURVE",
"304 559 OFFCURVE",
"416 513 CURVE",
"304 467 OFFCURVE",
"278 353 OFFCURVE",
"278 232 CURVE SMOOTH",
"278 154 OFFCURVE",
"294 76 OFFCURVE",
"294 -19 CURVE SMOOTH",
"294 -354 OFFCURVE",
"118 -410 OFFCURVE",
"54 -418 CURVE",
"54 -477 LINE"
);
}
);
width = 618;
}
);
unicode = 007D;
},
{
glyphname = bracketleft;
lastChange = "2020-09-03 19:20:01 +0000";
layers = (
{
layerId = "14A1E899-FED4-4F52-86F4-A1F822586E10";
paths = (
{
closed = 1;
nodes = (
"408 -458 LINE",
"408 -384 LINE",
"166 -384 LINE",
"166 1424 LINE",
"410 1424 LINE",
"410 1500 LINE",
"64 1500 LINE",
"64 -458 LINE"
);
}
);
width = 526;
}
);
unicode = 005B;
},
{
glyphname = bracketright;
lastChange = "2020-09-03 19:20:09 +0000";
layers = (
{
layerId = "14A1E899-FED4-4F52-86F4-A1F822586E10";
paths = (
{
closed = 1;
nodes = (
"410 1500 LINE",
"64 1500 LINE",
"64 1424 LINE",
"308 1424 LINE",
"308 -384 LINE",
"66 -384 LINE",
"66 -458 LINE",
"410 -458 LINE"
);
}
);
width = 512;
}
);
unicode = 005D;
},
{
glyphname = hyphen;
lastChange = "2020-08-27 21:19:12 +0000";
layers = (
{
layerId = "14A1E899-FED4-4F52-86F4-A1F822586E10";
paths = (
{
closed = 1;
nodes = (
"702 450 LINE",
"702 532 LINE",
"80 532 LINE",
"80 450 LINE"
);
}
);
width = 782;
}
);
leftKerningGroup = dash;
rightKerningGroup = dash;
unicode = 002D;
},
{
glyphname = endash;
lastChange = "2020-09-03 19:20:26 +0000";
layers = (
{
layerId = "14A1E899-FED4-4F52-86F4-A1F822586E10";
paths = (
{
closed = 1;
nodes = (
"839 450 LINE",
"839 532 LINE",
"80 532 LINE",
"80 450 LINE"
);
}
);
width = 1020;
}
);
unicode = 2013;
},
{
glyphname = emdash;
lastChange = "2020-09-03 19:20:34 +0000";
layers = (
{
layerId = "14A1E899-FED4-4F52-86F4-A1F822586E10";
paths = (
{
closed = 1;
nodes = (
"1211 450 LINE",
"1211 532 LINE",
"74 532 LINE",
"74 450 LINE"
);
}
);
width = 1374;
}
);
unicode = 2014;
},
{
glyphname = underscore;
lastChange = "2020-09-03 19:20:42 +0000";
layers = (
{
layerId = "14A1E899-FED4-4F52-86F4-A1F822586E10";
paths = (
{
closed = 1;
nodes = (
"1086 -246 LINE",
"1086 -164 LINE",
"74 -164 LINE",
"74 -246 LINE"
);
}
);
width = 1210;
}
);
unicode = 005F;
},
{
glyphname = quoteleft;
lastChange = "2020-10-01 03:38:53 +0000";
layers = (
{
layerId = "14A1E899-FED4-4F52-86F4-A1F822586E10";
paths = (
{
closed = 1;
nodes = (
"196 1512 OFFCURVE",
"50 1429 OFFCURVE",
"50 1252 CURVE SMOOTH",
"50 1171 OFFCURVE",
"104 1119 OFFCURVE",
"167 1119 CURVE SMOOTH",
"230 1119 OFFCURVE",
"285 1162 OFFCURVE",
"285 1228 CURVE SMOOTH",
"285 1293 OFFCURVE",
"251 1338 OFFCURVE",
"185 1338 CURVE SMOOTH",
"162 1338 OFFCURVE",
"149 1333 OFFCURVE",
"146 1329 CURVE",
"144 1374 OFFCURVE",
"174 1437 OFFCURVE",
"257 1492 CURVE",
"232 1530 LINE"
);
}
);
width = 335;
}
);
leftKerningGroup = quote;
leftMetricsKey = quotesingle;
rightKerningGroup = quote;
rightMetricsKey = quotesingle;
unicode = 2018;
},
{
glyphname = quoteright;
lastChange = "2020-10-01 03:38:42 +0000";
layers = (
{
layerId = "14A1E899-FED4-4F52-86F4-A1F822586E10";
paths = (
{
closed = 1;
nodes = (
"139 1141 OFFCURVE",
"285 1224 OFFCURVE",
"285 1401 CURVE SMOOTH",
"285 1482 OFFCURVE",
"231 1534 OFFCURVE",
"168 1534 CURVE SMOOTH",
"105 1534 OFFCURVE",
"50 1491 OFFCURVE",
"50 1425 CURVE SMOOTH",
"50 1360 OFFCURVE",
"84 1315 OFFCURVE",
"150 1315 CURVE SMOOTH",
"173 1315 OFFCURVE",
"186 1320 OFFCURVE",
"189 1324 CURVE",
"191 1279 OFFCURVE",
"161 1216 OFFCURVE",
"78 1161 CURVE",
"103 1123 LINE"
);
}
);
width = 335;
}
);
leftKerningGroup = quote;
leftMetricsKey = quotesingle;
rightKerningGroup = quote;
rightMetricsKey = quotesingle;
unicode = 2019;
},
{
glyphname = guilsinglleft;
lastChange = "2020-09-03 19:22:54 +0000";
layers = (
{
layerId = "14A1E899-FED4-4F52-86F4-A1F822586E10";
paths = (
{
closed = 1;
nodes = (
"374 320 LINE",
"198 536 LINE",
"374 752 LINE",
"336 788 LINE",
"86 554 LINE",
"86 518 LINE",
"338 284 LINE"
);
}
);
width = 560;
}
);
unicode = 2039;
},
{
glyphname = guilsinglright;
lastChange = "2020-09-03 19:23:01 +0000";
layers = (
{
layerId = "14A1E899-FED4-4F52-86F4-A1F822586E10";
paths = (
{
closed = 1;
nodes = (
"401 518 LINE",
"401 554 LINE",
"151 788 LINE",
"113 752 LINE",
"289 536 LINE",
"113 320 LINE",
"149 284 LINE"
);
}
);
width = 560;
}
);
unicode = 203A;
},
{
glyphname = quotedbl;
lastChange = "2020-08-27 21:11:36 +0000";
layers = (
{
layerId = "14A1E899-FED4-4F52-86F4-A1F822586E10";
paths = (
{
closed = 1;
nodes = (
"433 1095 LINE",
"448 1155 OFFCURVE",
"506 1389 OFFCURVE",
"506 1431 CURVE SMOOTH",
"506 1490 OFFCURVE",
"469 1524 OFFCURVE",
"417 1524 CURVE SMOOTH",
"363 1524 OFFCURVE",
"326 1490 OFFCURVE",
"326 1431 CURVE SMOOTH",
"326 1389 OFFCURVE",
"380 1155 OFFCURVE",
"394 1095 CURVE"
);
},
{
closed = 1;
nodes = (
"157 1095 LINE",
"172 1155 OFFCURVE",
"230 1389 OFFCURVE",
"230 1431 CURVE SMOOTH",
"230 1490 OFFCURVE",
"193 1524 OFFCURVE",
"141 1524 CURVE SMOOTH",
"87 1524 OFFCURVE",
"50 1490 OFFCURVE",
"50 1431 CURVE SMOOTH",
"50 1389 OFFCURVE",
"104 1155 OFFCURVE",
"118 1095 CURVE"
);
}
);
width = 556;
}
);
leftKerningGroup = quotesingle;
leftMetricsKey = quotesingle;
rightKerningGroup = quotesingle;
rightMetricsKey = quotesingle;
unicode = 0022;
},
{
glyphname = quotesingle;
lastChange = "2020-10-01 03:38:38 +0000";
layers = (
{
layerId = "14A1E899-FED4-4F52-86F4-A1F822586E10";
paths = (
{
closed = 1;
nodes = (
"157 1095 LINE",
"172 1155 OFFCURVE",
"230 1389 OFFCURVE",
"230 1431 CURVE SMOOTH",
"230 1490 OFFCURVE",
"193 1524 OFFCURVE",
"141 1524 CURVE SMOOTH",
"87 1524 OFFCURVE",
"50 1490 OFFCURVE",
"50 1431 CURVE SMOOTH",
"50 1389 OFFCURVE",
"104 1155 OFFCURVE",
"118 1095 CURVE"
);
}
);
width = 280;
}
);
leftKerningGroup = quote;
rightKerningGroup = quote;
unicode = 0027;
},
{
glyphname = cent;
lastChange = "2020-10-09 21:44:58 +0000";
layers = (
{
components = (
{
alignment = -1;
name = c;
transform = "{1, 0, 0, 1, 14, 276}";
}
);
layerId = "14A1E899-FED4-4F52-86F4-A1F822586E10";
paths = (
{
closed = 1;
nodes = (
"352 0 LINE",
"431 0 LINE",
"651 1400 LINE",
"572 1400 LINE"
);
}
);
width = 995;
}
);
leftMetricsKey = T;
rightMetricsKey = T;
unicode = 00A2;
},
{
glyphname = currency;
lastChange = "2020-09-03 19:48:19 +0000";
layers = (
{
layerId = "14A1E899-FED4-4F52-86F4-A1F822586E10";
paths = (
{
closed = 1;
nodes = (
"920 173 OFFCURVE",
"1155 408 OFFCURVE",
"1155 698 CURVE SMOOTH",
"1155 988 OFFCURVE",
"920 1223 OFFCURVE",
"630 1223 CURVE SMOOTH",
"340 1223 OFFCURVE",
"105 988 OFFCURVE",
"105 698 CURVE SMOOTH",
"105 408 OFFCURVE",
"340 173 OFFCURVE",
"630 173 CURVE SMOOTH"
);
},
{
closed = 1;
nodes = (
"325 328 LINE",
"255 398 LINE",
"87 230 LINE",
"157 160 LINE"
);
},
{
closed = 1;
nodes = (
"1163 212 LINE",
"995 380 LINE",
"925 310 LINE",
"1093 140 LINE"
);
},
{
closed = 1;
nodes = (
"319 1058 LINE",
"149 1226 LINE",
"79 1154 LINE",
"247 986 LINE"
);
},
{
closed = 1;
nodes = (
"402 285 OFFCURVE",
"217 470 OFFCURVE",
"217 698 CURVE SMOOTH",
"217 926 OFFCURVE",
"402 1111 OFFCURVE",
"630 1111 CURVE SMOOTH",
"858 1111 OFFCURVE",
"1043 926 OFFCURVE",
"1043 698 CURVE SMOOTH",
"1043 470 OFFCURVE",
"858 285 OFFCURVE",
"630 285 CURVE SMOOTH"
);
},
{
closed = 1;
nodes = (
"1171 1174 LINE",
"1101 1244 LINE",
"931 1076 LINE",
"1003 1004 LINE"
);
}
);
width = 1250;
}
);
leftMetricsKey = T;
rightMetricsKey = T;
unicode = 00A4;
},
{
glyphname = dollar;
lastChange = "2020-10-09 21:44:37 +0000";
layers = (
{
components = (
{
alignment = -1;
name = s;
transform = "{1, 0, 0, 1, 14, 288}";
}
);
layerId = "14A1E899-FED4-4F52-86F4-A1F822586E10";
paths = (
{
closed = 1;
nodes = (
"377 0 LINE",
"456 0 LINE",
"456 1400 LINE",
"377 1400 LINE"
);
}
);
width = 828;
}
);
leftMetricsKey = T;
rightMetricsKey = T;
unicode = 0024;
},
{
glyphname = euro;
lastChange = "2020-09-03 19:48:19 +0000";
layers = (
{
layerId = "14A1E899-FED4-4F52-86F4-A1F822586E10";
paths = (
{
closed = 1;
nodes = (
"713 502 LINE",
"713 576 LINE",
"79 576 LINE",
"79 502 LINE"
);
},
{
closed = 1;
nodes = (
"713 818 LINE",
"713 892 LINE",
"79 892 LINE",
"79 818 LINE"
);
},
{
closed = 1;
nodes = (
"519 54 OFFCURVE",
"427 429 OFFCURVE",
"427 757 CURVE SMOOTH",
"427 1085 OFFCURVE",
"519 1342 OFFCURVE",
"789 1342 CURVE SMOOTH",
"959 1342 OFFCURVE",
"1039 1276 OFFCURVE",
"1117 1182 CURVE",
"1171 1238 LINE",
"1045 1368 OFFCURVE",
"961 1420 OFFCURVE",
"789 1420 CURVE SMOOTH",
"430 1420 OFFCURVE",
"193 1148 OFFCURVE",
"193 694 CURVE SMOOTH",
"193 250 OFFCURVE",
"445 -24 OFFCURVE",
"789 -24 CURVE SMOOTH",
"961 -24 OFFCURVE",
"1045 28 OFFCURVE",
"1171 158 CURVE",
"1117 214 LINE",
"1039 120 OFFCURVE",
"959 54 OFFCURVE",
"789 54 CURVE SMOOTH"
);
}
);
width = 1250;
}
);
leftMetricsKey = T;
rightMetricsKey = T;
unicode = 20AC;
},
{
glyphname = sterling;
lastChange = "2020-09-03 19:48:19 +0000";
layers = (
{
layerId = "14A1E899-FED4-4F52-86F4-A1F822586E10";
paths = (
{
closed = 1;
nodes = (
"755 614 LINE",
"755 694 LINE",
"91 694 LINE",
"91 614 LINE"
);
},
{
closed = 1;
nodes = (
"905 356 LINE",
"878 174 OFFCURVE",
"835 78 OFFCURVE",
"718 78 CURVE SMOOTH",
"198 78 LINE",
"312 139 OFFCURVE",
"409 247 OFFCURVE",
"409 401 CURVE SMOOTH",
"409 669 OFFCURVE",
"365 814 OFFCURVE",
"365 994 CURVE SMOOTH",
"365 1150 OFFCURVE",
"399 1346 OFFCURVE",
"565 1346 CURVE SMOOTH",
"759 1346 OFFCURVE",
"856 1197 OFFCURVE",
"871 1036 CURVE",
"941 1036 LINE",
"983 1294 LINE",
"896 1374 OFFCURVE",
"792 1424 OFFCURVE",
"615 1424 CURVE SMOOTH",
"407 1424 OFFCURVE",
"167 1308 OFFCURVE",
"167 1014 CURVE SMOOTH",
"167 748 OFFCURVE",
"287 655 OFFCURVE",
"287 371 CURVE SMOOTH",
"287 219 OFFCURVE",
"159 122 OFFCURVE",
"79 98 CURVE",
"132 0 LINE",
"935 0 LINE",
"928 1 LINE",
"932 2 OFFCURVE",
"934 5 OFFCURVE",
"935 10 CURVE SMOOTH",
"989 356 LINE"
);
}
);
width = 1068;
}
);
leftMetricsKey = T;
rightMetricsKey = T;
unicode = 00A3;
},
{
glyphname = yen;
lastChange = "2020-10-04 02:52:05 +0000";
layers = (
{
components = (
{
alignment = -1;
name = Y;
transform = "{1, 0, 0, 1, 54, 0}";
}
);
layerId = "14A1E899-FED4-4F52-86F4-A1F822586E10";
paths = (
{
closed = 1;
nodes = (
"1205 619 LINE",
"1205 701 LINE",
"361 701 LINE",
"361 619 LINE"
);
},
{
closed = 1;
nodes = (
"1205 407 LINE",
"1205 489 LINE",
"361 489 LINE",
"361 407 LINE"
);
}
);
width = 1548;
}
);
leftMetricsKey = T;
rightMetricsKey = T;
unicode = 00A5;
},
{
glyphname = plus;
lastChange = "2020-09-03 19:48:19 +0000";
layers = (
{
layerId = "14A1E899-FED4-4F52-86F4-A1F822586E10";
paths = (
{
closed = 1;
nodes = (
"865 450 LINE",
"865 532 LINE",
"79 532 LINE",
"79 450 LINE"
);
},
{
closed = 1;
nodes = (
"518 884 LINE",
"426 884 LINE",
"426 98 LINE",
"518 98 LINE"
);
}
);
width = 944;
}
);
leftMetricsKey = T;
rightMetricsKey = T;
unicode = 002B;
},
{
glyphname = minus;
lastChange = "2020-09-03 19:48:19 +0000";
layers = (
{
layerId = "14A1E899-FED4-4F52-86F4-A1F822586E10";
paths = (
{
closed = 1;
nodes = (
"865 450 LINE",
"865 532 LINE",
"79 532 LINE",
"79 450 LINE"
);
}
);
width = 944;
}
);
leftMetricsKey = T;
rightMetricsKey = T;
unicode = 2212;
},
{
glyphname = equal;
lastChange = "2020-09-03 19:48:19 +0000";
layers = (
{
layerId = "14A1E899-FED4-4F52-86F4-A1F822586E10";
paths = (
{
closed = 1;
nodes = (
"866 654 LINE",
"866 736 LINE",
"80 736 LINE",
"80 654 LINE"
);
},
{
closed = 1;
nodes = (
"865 249 LINE",
"865 331 LINE",
"79 331 LINE",
"79 249 LINE"
);
}
);
width = 945;
}
);
leftMetricsKey = T;
rightMetricsKey = T;
unicode = 003D;
},
{
glyphname = greater;
lastChange = "2020-09-03 19:48:19 +0000";
layers = (
{
layerId = "14A1E899-FED4-4F52-86F4-A1F822586E10";
paths = (
{
closed = 1;
nodes = (
"79 105 LINE",
"719 465 LINE",
"719 569 LINE",
"79 928 LINE",
"79 828 LINE",
"648 516 LINE",
"79 202 LINE"
);
}
);
width = 798;
}
);
leftMetricsKey = T;
rightMetricsKey = T;
unicode = 003E;
},
{
glyphname = less;
lastChange = "2020-09-03 19:48:19 +0000";
layers = (
{
layerId = "14A1E899-FED4-4F52-86F4-A1F822586E10";
paths = (
{
closed = 1;
nodes = (
"150 516 LINE",
"719 828 LINE",
"719 928 LINE",
"79 569 LINE",
"79 465 LINE",
"719 105 LINE",
"719 202 LINE"
);
}
);
width = 798;
}
);
leftMetricsKey = T;
rightMetricsKey = T;
unicode = 003C;
},
{
glyphname = asciitilde;
lastChange = "2020-09-03 19:48:19 +0000";
layers = (
{
layerId = "14A1E899-FED4-4F52-86F4-A1F822586E10";
paths = (
{
closed = 1;
nodes = (
"481 1260 OFFCURVE",
"529 1369 OFFCURVE",
"545 1416 CURVE",
"491 1442 LINE",
"477 1408 OFFCURVE",
"449 1358 OFFCURVE",
"409 1358 CURVE SMOOTH",
"350 1358 OFFCURVE",
"322 1456 OFFCURVE",
"225 1456 CURVE SMOOTH",
"145 1456 OFFCURVE",
"97 1346 OFFCURVE",
"79 1300 CURVE",
"133 1274 LINE",
"151 1308 OFFCURVE",
"185 1358 OFFCURVE",
"225 1358 CURVE SMOOTH",
"284 1358 OFFCURVE",
"308 1260 OFFCURVE",
"405 1260 CURVE SMOOTH"
);
}
);
width = 624;
}
);
leftMetricsKey = T;
rightMetricsKey = T;
unicode = 007E;
},
{
glyphname = asciicircum;
lastChange = "2020-09-03 19:48:19 +0000";
layers = (
{
layerId = "14A1E899-FED4-4F52-86F4-A1F822586E10";
paths = (
{
closed = 1;
nodes = (
"490 1429 LINE",
"803 860 LINE",
"902 860 LINE",
"543 1500 LINE",
"439 1500 LINE",
"79 860 LINE",
"176 860 LINE"
);
}
);
width = 981;
}
);
leftMetricsKey = T;
rightMetricsKey = T;
unicode = 005E;
},
{
glyphname = percent;
lastChange = "2020-09-03 19:48:19 +0000";
layers = (
{
layerId = "14A1E899-FED4-4F52-86F4-A1F822586E10";
paths = (
{
closed = 1;
nodes = (
"346 -22 LINE",
"1211 1376 LINE",
"1144 1411 LINE",
"284 16 LINE"
);
},
{
closed = 1;
nodes = (
"557 780 OFFCURVE",
"687 898 OFFCURVE",
"687 1094 CURVE SMOOTH",
"687 1296 OFFCURVE",
"559 1404 OFFCURVE",
"385 1404 CURVE SMOOTH",
"203 1404 OFFCURVE",
"79 1280 OFFCURVE",
"79 1094 CURVE SMOOTH",
"79 904 OFFCURVE",
"221 780 OFFCURVE",
"385 780 CURVE SMOOTH"
);
},
{
closed = 1;
nodes = (
"277 838 OFFCURVE",
"247 958 OFFCURVE",
"247 1110 CURVE SMOOTH",
"247 1242 OFFCURVE",
"279 1350 OFFCURVE",
"385 1350 CURVE SMOOTH",
"491 1350 OFFCURVE",
"521 1224 OFFCURVE",
"521 1072 CURVE SMOOTH",
"521 942 OFFCURVE",
"489 838 OFFCURVE",
"385 838 CURVE SMOOTH"
);
},
{
closed = 1;
nodes = (
"1283 -10 OFFCURVE",
"1413 108 OFFCURVE",
"1413 304 CURVE SMOOTH",
"1413 506 OFFCURVE",
"1285 614 OFFCURVE",
"1111 614 CURVE SMOOTH",
"929 614 OFFCURVE",
"805 490 OFFCURVE",
"805 304 CURVE SMOOTH",
"805 114 OFFCURVE",
"947 -10 OFFCURVE",
"1111 -10 CURVE SMOOTH"
);
},
{
closed = 1;
nodes = (
"1003 48 OFFCURVE",
"973 168 OFFCURVE",
"973 320 CURVE SMOOTH",
"973 452 OFFCURVE",
"1005 560 OFFCURVE",
"1111 560 CURVE SMOOTH",
"1217 560 OFFCURVE",
"1247 434 OFFCURVE",
"1247 282 CURVE SMOOTH",
"1247 152 OFFCURVE",
"1215 48 OFFCURVE",
"1111 48 CURVE SMOOTH"
);
}
);
width = 1492;
}
);
leftMetricsKey = T;
rightMetricsKey = T;
unicode = 0025;
},
{
glyphname = upArrow;
lastChange = "2020-09-03 19:48:19 +0000";
layers = (
{
layerId = "14A1E899-FED4-4F52-86F4-A1F822586E10";
paths = (
{
closed = 1;
nodes = (
"273 178 LINE",
"273 704 LINE",
"195 704 LINE",
"195 178 LINE"
);
},
{
closed = 1;
nodes = (
"393 667 LINE",
"236 844 LINE",
"79 667 LINE"
);
}
);
width = 472;
}
);
leftMetricsKey = T;
rightMetricsKey = T;
unicode = 2191;
},
{
glyphname = northEastArrow;
lastChange = "2020-09-03 19:48:19 +0000";
layers = (
{
layerId = "14A1E899-FED4-4F52-86F4-A1F822586E10";
paths = (
{
closed = 1;
nodes = (
"134 249 LINE",
"506 621 LINE",
"450 676 LINE",
"79 305 LINE"
);
},
{
closed = 1;
nodes = (
"564 510 LINE",
"578 746 LINE",
"342 732 LINE"
);
}
);
width = 657;
}
);
leftMetricsKey = T;
rightMetricsKey = T;
unicode = 2197;
},
{
glyphname = rightArrow;
lastChange = "2020-09-03 19:48:19 +0000";
layers = (
{
layerId = "14A1E899-FED4-4F52-86F4-A1F822586E10";
paths = (
{
closed = 1;
nodes = (
"79 459 LINE",
"605 459 LINE",
"605 538 LINE",
"79 538 LINE"
);
},
{
closed = 1;
nodes = (
"568 340 LINE",
"745 497 LINE",
"568 654 LINE"
);
}
);
width = 824;
}
);
leftMetricsKey = T;
rightMetricsKey = T;
unicode = 2192;
},
{
glyphname = southEastArrow;
lastChange = "2020-09-03 19:48:19 +0000";
layers = (
{
layerId = "14A1E899-FED4-4F52-86F4-A1F822586E10";
paths = (
{
closed = 1;
nodes = (
"79 706 LINE",
"451 334 LINE",
"506 390 LINE",
"135 761 LINE"
);
},
{
closed = 1;
nodes = (
"340 276 LINE",
"576 262 LINE",
"562 498 LINE"
);
}
);
width = 655;
}
);
leftMetricsKey = T;
rightMetricsKey = T;
unicode = 2198;
},
{
glyphname = downArrow;
lastChange = "2020-09-03 19:48:19 +0000";
layers = (
{
layerId = "14A1E899-FED4-4F52-86F4-A1F822586E10";
paths = (
{
closed = 1;
nodes = (
"198 825 LINE",
"198 299 LINE",
"277 299 LINE",
"277 825 LINE"
);
},
{
closed = 1;
nodes = (
"79 336 LINE",
"236 159 LINE",
"393 336 LINE"
);
}
);
width = 472;
}
);
leftMetricsKey = T;
rightMetricsKey = T;
unicode = 2193;
},
{
glyphname = southWestArrow;
lastChange = "2020-09-03 19:48:19 +0000";
layers = (
{
layerId = "14A1E899-FED4-4F52-86F4-A1F822586E10";
paths = (
{
closed = 1;
nodes = (
"523 754 LINE",
"151 382 LINE",
"207 327 LINE",
"578 698 LINE"
);
},
{
closed = 1;
nodes = (
"93 493 LINE",
"79 257 LINE",
"315 271 LINE"
);
}
);
width = 657;
}
);
leftMetricsKey = T;
rightMetricsKey = T;
unicode = 2199;
},
{
glyphname = leftArrow;
lastChange = "2020-09-03 19:48:19 +0000";
layers = (
{
layerId = "14A1E899-FED4-4F52-86F4-A1F822586E10";
paths = (
{
closed = 1;
nodes = (
"745 544 LINE",
"219 544 LINE",
"219 465 LINE",
"745 465 LINE"
);
},
{
closed = 1;
nodes = (
"256 663 LINE",
"79 506 LINE",
"256 349 LINE"
);
}
);
width = 824;
}
);
leftMetricsKey = T;
rightMetricsKey = T;
unicode = 2190;
},
{
glyphname = northWestArrow;
lastChange = "2020-09-03 19:48:19 +0000";
layers = (
{
layerId = "14A1E899-FED4-4F52-86F4-A1F822586E10";
paths = (
{
closed = 1;
nodes = (
"576 297 LINE",
"204 669 LINE",
"149 613 LINE",
"520 242 LINE"
);
},
{
closed = 1;
nodes = (
"315 727 LINE",
"79 741 LINE",
"93 505 LINE"
);
}
);
width = 655;
}
);
leftMetricsKey = T;
rightMetricsKey = T;
unicode = 2196;
},
{
glyphname = leftRightArrow;
lastChange = "2020-09-03 19:48:19 +0000";
layers = (
{
layerId = "14A1E899-FED4-4F52-86F4-A1F822586E10";
paths = (
{
closed = 1;
nodes = (
"745 544 LINE",
"219 544 LINE",
"219 465 LINE",
"745 465 LINE"
);
},
{
closed = 1;
nodes = (
"256 663 LINE",
"79 506 LINE",
"256 349 LINE"
);
},
{
closed = 1;
nodes = (
"831 465 LINE",
"831 544 LINE",
"305 544 LINE",
"305 465 LINE"
);
},
{
closed = 1;
nodes = (
"971 506 LINE",
"794 663 LINE",
"794 349 LINE"
);
}
);
width = 1050;
}
);
leftMetricsKey = T;
rightMetricsKey = T;
unicode = 2194;
},
{
glyphname = upDownArrow;
lastChange = "2020-09-03 19:48:19 +0000";
layers = (
{
layerId = "14A1E899-FED4-4F52-86F4-A1F822586E10";
paths = (
{
closed = 1;
nodes = (
"274 286 LINE",
"274 812 LINE",
"195 812 LINE",
"195 286 LINE"
);
},
{
closed = 1;
nodes = (
"393 775 LINE",
"236 952 LINE",
"79 775 LINE"
);
},
{
closed = 1;
nodes = (
"195 200 LINE",
"274 200 LINE",
"274 726 LINE",
"195 726 LINE"
);
},
{
closed = 1;
nodes = (
"236 60 LINE",
"393 237 LINE",
"79 237 LINE"
);
}
);
width = 472;
}
);
leftMetricsKey = T;
rightMetricsKey = T;
unicode = 2195;
},
{
glyphname = at;
lastChange = "2020-09-03 19:51:53 +0000";
layers = (
{
layerId = "14A1E899-FED4-4F52-86F4-A1F822586E10";
paths = (
{
closed = 1;
nodes = (
"1111 -22 OFFCURVE",
"1301 72 OFFCURVE",
"1417 148 CURVE",
"1381 194 LINE",
"1257 112 OFFCURVE",
"1077 40 OFFCURVE",
"857 40 CURVE SMOOTH",
"531 40 OFFCURVE",
"243 231 OFFCURVE",
"243 673 CURVE SMOOTH",
"243 1131 OFFCURVE",
"527 1358 OFFCURVE",
"895 1358 CURVE SMOOTH",
"1221 1358 OFFCURVE",
"1425 1148 OFFCURVE",
"1425 814 CURVE SMOOTH",
"1425 584 OFFCURVE",
"1383 386 OFFCURVE",
"1181 386 CURVE SMOOTH",
"1137 386 OFFCURVE",
"1127 404 OFFCURVE",
"1127 458 CURVE SMOOTH",
"1127 464 OFFCURVE",
"1128 476 OFFCURVE",
"1129 484 CURVE SMOOTH",
"1215 1024 LINE",
"1077 1024 LINE",
"1066 958 LINE",
"1048 983 OFFCURVE",
"965 1066 OFFCURVE",
"835 1066 CURVE SMOOTH",
"693 1066 OFFCURVE",
"439 973 OFFCURVE",
"439 657 CURVE SMOOTH",
"439 411 OFFCURVE",
"579 312 OFFCURVE",
"733 312 CURVE SMOOTH",
"841 312 OFFCURVE",
"923 360 OFFCURVE",
"1009 440 CURVE",
"1011 374 OFFCURVE",
"1067 322 OFFCURVE",
"1163 322 CURVE SMOOTH",
"1412 322 OFFCURVE",
"1575 552 OFFCURVE",
"1575 798 CURVE SMOOTH",
"1575 1204 OFFCURVE",
"1285 1420 OFFCURVE",
"877 1420 CURVE SMOOTH",
"558 1420 OFFCURVE",
"79 1250 OFFCURVE",
"79 648 CURVE SMOOTH",
"79 130 OFFCURVE",
"507 -22 OFFCURVE",
"819 -22 CURVE SMOOTH"
);
},
{
closed = 1;
nodes = (
"681 368 OFFCURVE",
"625 482 OFFCURVE",
"625 676 CURVE SMOOTH",
"625 892 OFFCURVE",
"695 1010 OFFCURVE",
"843 1010 CURVE SMOOTH",
"929 1010 OFFCURVE",
"1015 954 OFFCURVE",
"1055 890 CURVE",
"993 496 LINE",
"951 443 OFFCURVE",
"873 371 OFFCURVE",
"787 368 CURVE SMOOTH"
);
}
);
width = 1654;
}
);
leftMetricsKey = T;
rightMetricsKey = T;
unicode = 0040;
},
{
glyphname = ampersand;
lastChange = "2020-10-09 21:22:30 +0000";
layers = (
{
layerId = "14A1E899-FED4-4F52-86F4-A1F822586E10";
paths = (
{
closed = 1;
nodes = (
"417 85 OFFCURVE",
"297 221 OFFCURVE",
"297 407 CURVE SMOOTH",
"297 564 OFFCURVE",
"377 669 OFFCURVE",
"475 722 CURVE",
"879 176 LINE",
"831 129 OFFCURVE",
"720 85 OFFCURVE",
"590 85 CURVE SMOOTH"
);
},
{
closed = 1;
nodes = (
"504 939 OFFCURVE",
"422 1088 OFFCURVE",
"422 1206 CURVE SMOOTH",
"422 1329 OFFCURVE",
"515 1356 OFFCURVE",
"599 1356 CURVE SMOOTH",
"703 1356 OFFCURVE",
"776 1286 OFFCURVE",
"776 1156 CURVE SMOOTH",
"776 956 OFFCURVE",
"638 879 OFFCURVE",
"576 847 CURVE"
);
},
{
closed = 1;
nodes = (
"1273 86 OFFCURVE",
"1243 71 OFFCURVE",
"1200 71 CURVE SMOOTH",
"1154 71 OFFCURVE",
"1122 109 OFFCURVE",
"1046 207 CURVE SMOOTH",
"1019 242 LINE",
"1106 349 OFFCURVE",
"1177 518 OFFCURVE",
"1182 658 CURVE SMOOTH",
"1184 720 OFFCURVE",
"1216 735 OFFCURVE",
"1302 735 CURVE",
"1302 799 LINE",
"960 799 LINE",
"960 735 LINE",
"1053 735 OFFCURVE",
"1078 711 OFFCURVE",
"1078 640 CURVE SMOOTH",
"1078 516 OFFCURVE",
"1046 382 OFFCURVE",
"979 293 CURVE",
"614 790 LINE",
"726 856 OFFCURVE",
"908 996 OFFCURVE",
"908 1172 CURVE SMOOTH",
"908 1346 OFFCURVE",
"773 1426 OFFCURVE",
"609 1426 CURVE SMOOTH",
"435 1426 OFFCURVE",
"287 1326 OFFCURVE",
"287 1146 CURVE SMOOTH",
"287 1020 OFFCURVE",
"356 892 OFFCURVE",
"440 778 CURVE",
"260 708 OFFCURVE",
"79 592 OFFCURVE",
"79 366 CURVE SMOOTH",
"79 113 OFFCURVE",
"302 -18 OFFCURVE",
"536 -18 CURVE SMOOTH",
"706 -18 OFFCURVE",
"842 44 OFFCURVE",
"917 120 CURVE",
"983 24 OFFCURVE",
"1042 -17 OFFCURVE",
"1148 -17 CURVE SMOOTH",
"1222 -17 OFFCURVE",
"1282 11 OFFCURVE",
"1362 92 CURVE",
"1330 132 LINE"
);
}
);
width = 1441;
}
);
leftMetricsKey = T;
rightMetricsKey = T;
unicode = 0026;
},
{
glyphname = paragraph;
lastChange = "2020-09-04 01:28:19 +0000";
layers = (
{
layerId = "14A1E899-FED4-4F52-86F4-A1F822586E10";
paths = (
{
closed = 1;
nodes = (
"647 -230 LINE",
"647 1314 LINE",
"785 1314 LINE",
"785 -230 LINE",
"853 -230 LINE",
"853 1314 LINE",
"1001 1326 LINE",
"1001 1400 LINE",
"489 1400 LINE SMOOTH",
"285 1400 OFFCURVE",
"79 1258 OFFCURVE",
"79 1000 CURVE SMOOTH",
"79 742 OFFCURVE",
"289 594 OFFCURVE",
"533 594 CURVE SMOOTH",
"577 594 LINE",
"577 -230 LINE"
);
}
);
width = 1080;
}
);
leftMetricsKey = T;
rightMetricsKey = T;
unicode = 00B6;
},
{
glyphname = copyright;
lastChange = "2020-09-04 01:32:32 +0000";
layers = (
{
layerId = "14A1E899-FED4-4F52-86F4-A1F822586E10";
paths = (
{
closed = 1;
nodes = (
"1211 -38 OFFCURVE",
"1538 289 OFFCURVE",
"1538 692 CURVE SMOOTH",
"1538 1094 OFFCURVE",
"1211 1421 OFFCURVE",
"809 1421 CURVE SMOOTH",
"406 1421 OFFCURVE",
"79 1094 OFFCURVE",
"79 692 CURVE SMOOTH",
"79 289 OFFCURVE",
"406 -38 OFFCURVE",
"809 -38 CURVE SMOOTH"
);
},
{
closed = 1;
nodes = (
"447 43 OFFCURVE",
"155 335 OFFCURVE",
"155 695 CURVE SMOOTH",
"155 1055 OFFCURVE",
"447 1347 OFFCURVE",
"807 1347 CURVE SMOOTH",
"1167 1347 OFFCURVE",
"1459 1055 OFFCURVE",
"1459 695 CURVE SMOOTH",
"1459 335 OFFCURVE",
"1167 43 OFFCURVE",
"807 43 CURVE SMOOTH"
);
},
{
closed = 1;
nodes = (
"981.919 267.864 OFFCURVE",
"1090 324 OFFCURVE",
"1175 431 CURVE",
"1135 472 LINE",
"1059 385 OFFCURVE",
"971 347 OFFCURVE",
"832 347 CURVE SMOOTH",
"626 347 OFFCURVE",
"532.908 513.865 OFFCURVE",
"532.908 721.651 CURVE SMOOTH",
"532.908 929.438 OFFCURVE",
"624 1057 OFFCURVE",
"830 1057 CURVE SMOOTH",
"941 1057 OFFCURVE",
"1068.497 966.458 OFFCURVE",
"1089.395 847.04 CURVE",
"1146.715 847.04 LINE",
"1146.715 1116.924 LINE",
"1093 1117 LINE",
"1062 1051 LINE",
"1020 1084 OFFCURVE",
"941.914 1126.477 OFFCURVE",
"823.093 1126.477 CURVE SMOOTH",
"578.287 1126.477 OFFCURVE",
"373.486 967.652 OFFCURVE",
"373.486 697.768 CURVE SMOOTH",
"373.486 427.884 OFFCURVE",
"578.287 267.864 OFFCURVE",
"823.093 267.864 CURVE SMOOTH"
);
}
);
width = 1617;
}
);
leftMetricsKey = T;
rightMetricsKey = T;
unicode = 00A9;
},
{
glyphname = registered;
lastChange = "2020-09-04 01:33:20 +0000";
layers = (
{
layerId = "14A1E899-FED4-4F52-86F4-A1F822586E10";
paths = (
{
closed = 1;
nodes = (
"678 312 LINE",
"678 638 LINE",
"803 638 LINE",
"973 312 LINE",
"1122 312 LINE",
"1122 392 LINE",
"1063 392 LINE",
"926 642 LINE",
"1040 656 OFFCURVE",
"1104 780 OFFCURVE",
"1104 882 CURVE SMOOTH",
"1104 1014 OFFCURVE",
"1040 1110 OFFCURVE",
"854 1110 CURVE SMOOTH",
"506 1110 LINE",
"506 1030 LINE",
"566 1030 LINE",
"566 392 LINE",
"506 392 LINE",
"506 312 LINE"
);
},
{
closed = 1;
nodes = (
"678 1036 LINE",
"862 1036 LINE SMOOTH",
"934 1036 OFFCURVE",
"988 982 OFFCURVE",
"988 882 CURVE SMOOTH",
"988 780 OFFCURVE",
"950 724 OFFCURVE",
"842 724 CURVE SMOOTH",
"678 724 LINE"
);
},
{
closed = 1;
nodes = (
"1211 -38 OFFCURVE",
"1538 289 OFFCURVE",
"1538 692 CURVE SMOOTH",
"1538 1094 OFFCURVE",
"1211 1421 OFFCURVE",
"809 1421 CURVE SMOOTH",
"406 1421 OFFCURVE",
"79 1094 OFFCURVE",
"79 692 CURVE SMOOTH",
"79 289 OFFCURVE",
"406 -38 OFFCURVE",
"809 -38 CURVE SMOOTH"
);
},
{
closed = 1;
nodes = (
"447 43 OFFCURVE",
"155 335 OFFCURVE",
"155 695 CURVE SMOOTH",
"155 1055 OFFCURVE",
"447 1347 OFFCURVE",
"807 1347 CURVE SMOOTH",
"1167 1347 OFFCURVE",
"1459 1055 OFFCURVE",
"1459 695 CURVE SMOOTH",
"1459 335 OFFCURVE",
"1167 43 OFFCURVE",
"807 43 CURVE SMOOTH"
);
}
);
width = 1617;
}
);
leftMetricsKey = T;
rightMetricsKey = T;
unicode = 00AE;
},
{
glyphname = trademark;
lastChange = "2020-09-04 01:34:32 +0000";
layers = (
{
layerId = "14A1E899-FED4-4F52-86F4-A1F822586E10";
paths = (
{
closed = 1;
nodes = (
"428 900 LINE",
"428 952 LINE",
"385 952 OFFCURVE",
"362 957 OFFCURVE",
"362 991 CURVE SMOOTH",
"362 1400 LINE",
"289 1400 LINE",
"289 991 LINE SMOOTH",
"289 958 OFFCURVE",
"269 952 OFFCURVE",
"224 952 CURVE",
"224 900 LINE"
);
},
{
closed = 1;
nodes = (
"110 1276 LINE",
"123 1326 OFFCURVE",
"151 1347 OFFCURVE",
"195 1347 CURVE SMOOTH",
"310 1347 LINE",
"310 1400 LINE",
"96 1400 LINE",
"79 1276 LINE"
);
},
{
closed = 1;
nodes = (
"572 1276 LINE",
"555 1400 LINE",
"341 1400 LINE",
"341 1347 LINE",
"456 1347 LINE SMOOTH",
"499 1347 OFFCURVE",
"528 1326 OFFCURVE",
"540 1276 CURVE"
);
},
{
closed = 1;
nodes = (
"802 900 LINE",
"802 952 LINE",
"760 952 OFFCURVE",
"736 952 OFFCURVE",
"736 975 CURVE SMOOTH",
"736 1350 LINE",
"924 900 LINE",
"951 900 LINE",
"1133 1333 LINE",
"1133 975 LINE SMOOTH",
"1133 952 OFFCURVE",
"1109 952 OFFCURVE",
"1067 952 CURVE",
"1067 900 LINE",
"1271 900 LINE",
"1271 952 LINE",
"1230 952 OFFCURVE",
"1206 952 OFFCURVE",
"1206 975 CURVE SMOOTH",
"1206 1325 LINE SMOOTH",
"1206 1347 OFFCURVE",
"1230 1347 OFFCURVE",
"1271 1347 CURVE",
"1271 1400 LINE",
"1108 1400 LINE",
"955 1044 LINE",
"806 1400 LINE",
"618 1400 LINE",
"618 1347 LINE",
"660 1347 OFFCURVE",
"684 1347 OFFCURVE",
"684 1325 CURVE SMOOTH",
"684 975 LINE SMOOTH",
"684 952 OFFCURVE",
"660 952 OFFCURVE",
"618 952 CURVE",
"618 900 LINE"
);
}
);
width = 1350;
}
);
leftMetricsKey = T;
rightMetricsKey = T;
unicode = 2122;
},
{
glyphname = bar;
lastChange = "2020-09-04 01:35:00 +0000";
layers = (
{
layerId = "14A1E899-FED4-4F52-86F4-A1F822586E10";
paths = (
{
closed = 1;
nodes = (
"79 -450 LINE",
"170 -450 LINE",
"170 1501 LINE",
"79 1501 LINE"
);
}
);
width = 249;
}
);
leftMetricsKey = T;
rightMetricsKey = T;
unicode = 007C;
},
{
glyphname = dieresiscomb;
lastChange = "2020-09-04 01:43:56 +0000";
layers = (
{
anchors = (
{
name = _top;
position = "{381, 926}";
},
{
name = top;
position = "{381, 1333}";
}
);
layerId = "14A1E899-FED4-4F52-86F4-A1F822586E10";
paths = (
{
closed = 1;
nodes = (
"635 1121 OFFCURVE",
"683 1169 OFFCURVE",
"683 1227 CURVE SMOOTH",
"683 1285 OFFCURVE",
"635 1333 OFFCURVE",
"579 1333 CURVE SMOOTH",
"521 1333 OFFCURVE",
"473 1285 OFFCURVE",
"473 1227 CURVE SMOOTH",
"473 1169 OFFCURVE",
"521 1121 OFFCURVE",
"579 1121 CURVE SMOOTH"
);
},
{
closed = 1;
nodes = (
"241 1121 OFFCURVE",
"289 1169 OFFCURVE",
"289 1227 CURVE SMOOTH",
"289 1285 OFFCURVE",
"241 1333 OFFCURVE",
"185 1333 CURVE SMOOTH",
"127 1333 OFFCURVE",
"79 1285 OFFCURVE",
"79 1227 CURVE SMOOTH",
"79 1169 OFFCURVE",
"127 1121 OFFCURVE",
"185 1121 CURVE SMOOTH"
);
}
);
width = 762;
}
);
leftMetricsKey = T;
rightMetricsKey = T;
unicode = 0308;
},
{
glyphname = dieresiscomb.case;
lastChange = "2020-10-09 21:43:11 +0000";
layers = (
{
anchors = (
{
name = _top;
position = "{381, 1400}";
},
{
name = top;
position = "{381, 1682}";
}
);
layerId = "14A1E899-FED4-4F52-86F4-A1F822586E10";
paths = (
{
closed = 1;
nodes = (
"635 1470 OFFCURVE",
"683 1518 OFFCURVE",
"683 1576 CURVE SMOOTH",
"683 1634 OFFCURVE",
"635 1682 OFFCURVE",
"579 1682 CURVE SMOOTH",
"521 1682 OFFCURVE",
"473 1634 OFFCURVE",
"473 1576 CURVE SMOOTH",
"473 1518 OFFCURVE",
"521 1470 OFFCURVE",
"579 1470 CURVE SMOOTH"
);
},
{
closed = 1;
nodes = (
"241 1470 OFFCURVE",
"289 1518 OFFCURVE",
"289 1576 CURVE SMOOTH",
"289 1634 OFFCURVE",
"241 1682 OFFCURVE",
"185 1682 CURVE SMOOTH",
"127 1682 OFFCURVE",
"79 1634 OFFCURVE",
"79 1576 CURVE SMOOTH",
"79 1518 OFFCURVE",
"127 1470 OFFCURVE",
"185 1470 CURVE SMOOTH"
);
}
);
width = 762;
}
);
leftMetricsKey = T;
rightMetricsKey = T;
},
{
glyphname = dotaccentcomb;
lastChange = "2020-09-04 01:44:12 +0000";
layers = (
{
anchors = (
{
name = _top;
position = "{184, 926}";
},
{
name = top;
position = "{184, 1331}";
}
);
layerId = "14A1E899-FED4-4F52-86F4-A1F822586E10";
paths = (
{
closed = 1;
nodes = (
"241 1119 OFFCURVE",
"289 1167 OFFCURVE",
"289 1225 CURVE SMOOTH",
"289 1283 OFFCURVE",
"241 1331 OFFCURVE",
"185 1331 CURVE SMOOTH",
"127 1331 OFFCURVE",
"79 1283 OFFCURVE",
"79 1225 CURVE SMOOTH",
"79 1167 OFFCURVE",
"127 1119 OFFCURVE",
"185 1119 CURVE SMOOTH"
);
}
);
width = 368;
}
);
leftMetricsKey = T;
rightMetricsKey = T;
unicode = 0307;
},
{
glyphname = dotaccentcomb.case;
lastChange = "2020-10-09 21:44:19 +0000";
layers = (
{
anchors = (
{
name = _top;
position = "{183, 1400}";
},
{
name = top;
position = "{184, 1687}";
}
);
layerId = "14A1E899-FED4-4F52-86F4-A1F822586E10";
paths = (
{
closed = 1;
nodes = (
"241 1475 OFFCURVE",
"289 1523 OFFCURVE",
"289 1581 CURVE SMOOTH",
"289 1639 OFFCURVE",
"241 1687 OFFCURVE",
"185 1687 CURVE SMOOTH",
"127 1687 OFFCURVE",
"79 1639 OFFCURVE",
"79 1581 CURVE SMOOTH",
"79 1523 OFFCURVE",
"127 1475 OFFCURVE",
"185 1475 CURVE SMOOTH"
);
}
);
width = 368;
}
);
leftMetricsKey = T;
rightMetricsKey = T;
},
{
glyphname = gravecomb;
lastChange = "2020-09-04 02:54:13 +0000";
layers = (
{
anchors = (
{
name = _top;
position = "{394, 926}";
},
{
name = top;
position = "{261, 1320}";
}
);
layerId = "14A1E899-FED4-4F52-86F4-A1F822586E10";
paths = (
{
closed = 1;
nodes = (
"442 1115 LINE",
"408 1141 OFFCURVE",
"198 1296 OFFCURVE",
"178 1309 CURVE SMOOTH",
"166 1317 OFFCURVE",
"154 1320 OFFCURVE",
"139 1320 CURVE SMOOTH",
"107 1320 OFFCURVE",
"79 1298 OFFCURVE",
"79 1264 CURVE SMOOTH",
"79 1233 OFFCURVE",
"94 1219 OFFCURVE",
"118 1207 CURVE SMOOTH",
"148 1192 OFFCURVE",
"366 1095 OFFCURVE",
"416 1075 CURVE"
);
}
);
width = 521;
}
);
leftMetricsKey = T;
rightMetricsKey = T;
unicode = 0300;
},
{
glyphname = gravecomb.case;
lastChange = "2020-09-04 02:54:32 +0000";
layers = (
{
anchors = (
{
name = _top;
position = "{366, 1400}";
},
{
name = top;
position = "{261, 1715}";
}
);
layerId = "14A1E899-FED4-4F52-86F4-A1F822586E10";
paths = (
{
closed = 1;
nodes = (
"442 1510 LINE",
"408 1536 OFFCURVE",
"198 1691 OFFCURVE",
"178 1704 CURVE SMOOTH",
"166 1712 OFFCURVE",
"154 1715 OFFCURVE",
"139 1715 CURVE SMOOTH",
"107 1715 OFFCURVE",
"79 1693 OFFCURVE",
"79 1659 CURVE SMOOTH",
"79 1628 OFFCURVE",
"94 1614 OFFCURVE",
"118 1602 CURVE SMOOTH",
"148 1587 OFFCURVE",
"366 1490 OFFCURVE",
"416 1470 CURVE"
);
}
);
width = 521;
}
);
leftMetricsKey = T;
rightMetricsKey = T;
},
{
glyphname = acutecomb;
lastChange = "2020-09-04 01:46:15 +0000";
layers = (
{
anchors = (
{
name = _top;
position = "{162, 926}";
},
{
name = top;
position = "{261, 1320}";
}
);
layerId = "14A1E899-FED4-4F52-86F4-A1F822586E10";
paths = (
{
closed = 1;
nodes = (
"155 1095 OFFCURVE",
"373 1192 OFFCURVE",
"403 1207 CURVE SMOOTH",
"427 1219 OFFCURVE",
"442 1233 OFFCURVE",
"442 1264 CURVE SMOOTH",
"442 1298 OFFCURVE",
"414 1320 OFFCURVE",
"382 1320 CURVE SMOOTH",
"367 1320 OFFCURVE",
"355 1317 OFFCURVE",
"343 1309 CURVE SMOOTH",
"323 1296 OFFCURVE",
"113 1141 OFFCURVE",
"79 1115 CURVE",
"105 1075 LINE"
);
}
);
width = 521;
}
);
leftMetricsKey = T;
rightMetricsKey = T;
unicode = 0301;
},
{
glyphname = acutecomb.case;
lastChange = "2020-09-04 02:54:30 +0000";
layers = (
{
anchors = (
{
name = _top;
position = "{175, 1400}";
},
{
name = top;
position = "{261, 1699}";
}
);
layerId = "14A1E899-FED4-4F52-86F4-A1F822586E10";
paths = (
{
closed = 1;
nodes = (
"155 1474 OFFCURVE",
"373 1571 OFFCURVE",
"403 1586 CURVE SMOOTH",
"427 1598 OFFCURVE",
"442 1612 OFFCURVE",
"442 1643 CURVE SMOOTH",
"442 1677 OFFCURVE",
"414 1699 OFFCURVE",
"382 1699 CURVE SMOOTH",
"367 1699 OFFCURVE",
"355 1696 OFFCURVE",
"343 1688 CURVE SMOOTH",
"323 1675 OFFCURVE",
"113 1520 OFFCURVE",
"79 1494 CURVE",
"105 1454 LINE"
);
}
);
width = 521;
}
);
leftMetricsKey = T;
rightMetricsKey = T;
},
{
glyphname = hungarumlautcomb;
lastChange = "2020-09-04 01:46:58 +0000";
layers = (
{
anchors = (
{
name = _top;
position = "{404, 926}";
},
{
name = top;
position = "{404, 1346}";
}
);
layerId = "14A1E899-FED4-4F52-86F4-A1F822586E10";
paths = (
{
closed = 1;
nodes = (
"410 1060 LINE",
"454 1088 OFFCURVE",
"650 1220 OFFCURVE",
"676 1238 CURVE SMOOTH",
"695 1251 OFFCURVE",
"701 1269 OFFCURVE",
"701 1285 CURVE SMOOTH",
"701 1317 OFFCURVE",
"673 1346 OFFCURVE",
"640 1346 CURVE SMOOTH",
"626 1346 OFFCURVE",
"612 1342 OFFCURVE",
"598 1328 CURVE SMOOTH",
"380 1096 LINE"
);
},
{
closed = 1;
nodes = (
"136 1060 LINE",
"180 1088 OFFCURVE",
"376 1220 OFFCURVE",
"402 1238 CURVE SMOOTH",
"420 1251 OFFCURVE",
"427 1269 OFFCURVE",
"427 1285 CURVE SMOOTH",
"427 1317 OFFCURVE",
"399 1346 OFFCURVE",
"366 1346 CURVE SMOOTH",
"352 1346 OFFCURVE",
"338 1342 OFFCURVE",
"324 1328 CURVE SMOOTH",
"106 1096 LINE"
);
}
);
width = 780;
}
);
unicode = 030B;
},
{
glyphname = hungarumlautcomb.case;
lastChange = "2020-09-04 02:54:40 +0000";
layers = (
{
anchors = (
{
name = _top;
position = "{404, 1400}";
},
{
name = top;
position = "{404, 1750}";
}
);
layerId = "14A1E899-FED4-4F52-86F4-A1F822586E10";
paths = (
{
closed = 1;
nodes = (
"410 1464 LINE",
"454 1492 OFFCURVE",
"650 1624 OFFCURVE",
"676 1642 CURVE SMOOTH",
"695 1655 OFFCURVE",
"701 1673 OFFCURVE",
"701 1689 CURVE SMOOTH",
"701 1721 OFFCURVE",
"673 1750 OFFCURVE",
"640 1750 CURVE SMOOTH",
"626 1750 OFFCURVE",
"612 1746 OFFCURVE",
"598 1732 CURVE SMOOTH",
"380 1500 LINE"
);
},
{
closed = 1;
nodes = (
"136 1464 LINE",
"180 1492 OFFCURVE",
"376 1624 OFFCURVE",
"402 1642 CURVE SMOOTH",
"420 1655 OFFCURVE",
"427 1673 OFFCURVE",
"427 1689 CURVE SMOOTH",
"427 1721 OFFCURVE",
"399 1750 OFFCURVE",
"366 1750 CURVE SMOOTH",
"352 1750 OFFCURVE",
"338 1746 OFFCURVE",
"324 1732 CURVE SMOOTH",
"106 1500 LINE"
);
}
);
width = 780;
}
);
},
{
glyphname = circumflexcomb;
lastChange = "2020-09-04 01:48:21 +0000";
layers = (
{
anchors = (
{
name = _top;
position = "{281, 926}";
},
{
name = top;
position = "{281, 1359}";
}
);
layerId = "14A1E899-FED4-4F52-86F4-A1F822586E10";
paths = (
{
closed = 1;
nodes = (
"251 1359 LINE",
"79 1181 LINE",
"117 1148 LINE",
"281 1269 LINE",
"445 1148 LINE",
"483 1181 LINE",
"311 1359 LINE"
);
}
);
width = 562;
}
);
leftMetricsKey = T;
rightMetricsKey = T;
unicode = 0302;
},
{
glyphname = circumflexcomb.case;
lastChange = "2020-10-09 21:43:19 +0000";
layers = (
{
anchors = (
{
name = _top;
position = "{281, 1400}";
},
{
name = top;
position = "{281, 1695}";
}
);
layerId = "14A1E899-FED4-4F52-86F4-A1F822586E10";
paths = (
{
closed = 1;
nodes = (
"251 1695 LINE",
"79 1517 LINE",
"117 1484 LINE",
"281 1605 LINE",
"445 1484 LINE",
"483 1517 LINE",
"311 1695 LINE"
);
}
);
width = 562;
}
);
leftMetricsKey = T;
rightMetricsKey = T;
},
{
glyphname = caroncomb;
lastChange = "2020-09-04 01:48:32 +0000";
layers = (
{
anchors = (
{
name = _top;
position = "{281, 926}";
},
{
name = top;
position = "{281, 1359}";
}
);
layerId = "14A1E899-FED4-4F52-86F4-A1F822586E10";
paths = (
{
closed = 1;
nodes = (
"483 1326 LINE",
"445 1359 LINE",
"281 1238 LINE",
"117 1359 LINE",
"79 1326 LINE",
"251 1148 LINE",
"311 1148 LINE"
);
}
);
width = 562;
}
);
leftMetricsKey = T;
rightMetricsKey = T;
unicode = 030C;
},
{
glyphname = caroncomb.case;
lastChange = "2020-09-04 02:54:54 +0000";
layers = (
{
anchors = (
{
name = _top;
position = "{281, 1400}";
},
{
name = top;
position = "{281, 1695}";
}
);
layerId = "14A1E899-FED4-4F52-86F4-A1F822586E10";
paths = (
{
closed = 1;
nodes = (
"483 1662 LINE",
"445 1695 LINE",
"281 1574 LINE",
"117 1695 LINE",
"79 1662 LINE",
"251 1484 LINE",
"311 1484 LINE"
);
}
);
width = 562;
}
);
leftMetricsKey = T;
rightMetricsKey = T;
},
{
glyphname = brevecomb;
lastChange = "2020-09-04 02:15:50 +0000";
layers = (
{
anchors = (
{
name = _top;
position = "{281, 926}";
},
{
name = top;
position = "{281, 1297}";
}
);
layerId = "14A1E899-FED4-4F52-86F4-A1F822586E10";
paths = (
{
closed = 1;
nodes = (
"413 1293 OFFCURVE",
"373 1223 OFFCURVE",
"281 1223 CURVE SMOOTH",
"189 1223 OFFCURVE",
"149 1293 OFFCURVE",
"139 1347 CURVE",
"79 1327 LINE",
"89 1267 OFFCURVE",
"147 1143 OFFCURVE",
"281 1143 CURVE SMOOTH",
"415 1143 OFFCURVE",
"473 1267 OFFCURVE",
"483 1327 CURVE",
"423 1347 LINE"
);
}
);
width = 562;
}
);
leftMetricsKey = T;
rightMetricsKey = T;
unicode = 0306;
},
{
glyphname = brevecomb.case;
lastChange = "2020-09-04 02:55:00 +0000";
layers = (
{
anchors = (
{
name = _top;
position = "{281, 1400}";
},
{
name = top;
position = "{281, 1666}";
}
);
layerId = "14A1E899-FED4-4F52-86F4-A1F822586E10";
paths = (
{
closed = 1;
nodes = (
"413 1612 OFFCURVE",
"373 1542 OFFCURVE",
"281 1542 CURVE SMOOTH",
"189 1542 OFFCURVE",
"149 1612 OFFCURVE",
"139 1666 CURVE",
"79 1646 LINE",
"89 1586 OFFCURVE",
"147 1462 OFFCURVE",
"281 1462 CURVE SMOOTH",
"415 1462 OFFCURVE",
"473 1586 OFFCURVE",
"483 1646 CURVE",
"423 1666 LINE"
);
}
);
width = 562;
}
);
leftMetricsKey = T;
rightMetricsKey = T;
},
{
glyphname = ringcomb;
lastChange = "2020-09-04 01:49:53 +0000";
layers = (
{
anchors = (
{
name = _top;
position = "{215, 926}";
},
{
name = top;
position = "{215, 1389}";
}
);
layerId = "14A1E899-FED4-4F52-86F4-A1F822586E10";
paths = (
{
closed = 1;
nodes = (
"291 1117 OFFCURVE",
"351 1177 OFFCURVE",
"351 1253 CURVE SMOOTH",
"351 1329 OFFCURVE",
"291 1389 OFFCURVE",
"215 1389 CURVE SMOOTH",
"139 1389 OFFCURVE",
"79 1329 OFFCURVE",
"79 1253 CURVE SMOOTH",
"79 1177 OFFCURVE",
"139 1117 OFFCURVE",
"215 1117 CURVE SMOOTH"
);
},
{
closed = 1;
nodes = (
"171 1173 OFFCURVE",
"135 1209 OFFCURVE",
"135 1255 CURVE SMOOTH",
"135 1299 OFFCURVE",
"171 1335 OFFCURVE",
"215 1335 CURVE SMOOTH",
"259 1335 OFFCURVE",
"295 1299 OFFCURVE",
"295 1255 CURVE SMOOTH",
"295 1209 OFFCURVE",
"259 1173 OFFCURVE",
"215 1173 CURVE SMOOTH"
);
}
);
width = 430;
}
);
leftMetricsKey = T;
rightMetricsKey = T;
unicode = 030A;
},
{
glyphname = ringcomb.case;
lastChange = "2020-10-09 21:43:24 +0000";
layers = (
{
anchors = (
{
name = _top;
position = "{215, 1400}";
},
{
name = top;
position = "{215, 1726}";
}
);
layerId = "14A1E899-FED4-4F52-86F4-A1F822586E10";
paths = (
{
closed = 1;
nodes = (
"291 1454 OFFCURVE",
"351 1514 OFFCURVE",
"351 1590 CURVE SMOOTH",
"351 1666 OFFCURVE",
"291 1726 OFFCURVE",
"215 1726 CURVE SMOOTH",
"139 1726 OFFCURVE",
"79 1666 OFFCURVE",
"79 1590 CURVE SMOOTH",
"79 1514 OFFCURVE",
"139 1454 OFFCURVE",
"215 1454 CURVE SMOOTH"
);
},
{
closed = 1;
nodes = (
"171 1510 OFFCURVE",
"135 1546 OFFCURVE",
"135 1592 CURVE SMOOTH",
"135 1636 OFFCURVE",
"171 1672 OFFCURVE",
"215 1672 CURVE SMOOTH",
"259 1672 OFFCURVE",
"295 1636 OFFCURVE",
"295 1592 CURVE SMOOTH",
"295 1546 OFFCURVE",
"259 1510 OFFCURVE",
"215 1510 CURVE SMOOTH"
);
}
);
width = 430;
}
);
leftMetricsKey = T;
rightMetricsKey = T;
},
{
glyphname = tildecomb;
lastChange = "2020-09-04 02:16:00 +0000";
layers = (
{
anchors = (
{
name = _top;
position = "{312, 926}";
},
{
name = top;
position = "{312, 1311}";
}
);
layerId = "14A1E899-FED4-4F52-86F4-A1F822586E10";
paths = (
{
closed = 1;
nodes = (
"481 1155 OFFCURVE",
"529 1234 OFFCURVE",
"545 1281 CURVE",
"496 1307 LINE",
"482 1273 OFFCURVE",
"449 1233 OFFCURVE",
"409 1233 CURVE SMOOTH",
"350 1233 OFFCURVE",
"322 1311 OFFCURVE",
"225 1311 CURVE SMOOTH",
"145 1311 OFFCURVE",
"97 1231 OFFCURVE",
"79 1185 CURVE",
"128 1159 LINE",
"146 1193 OFFCURVE",
"185 1233 OFFCURVE",
"225 1233 CURVE SMOOTH",
"284 1233 OFFCURVE",
"308 1155 OFFCURVE",
"405 1155 CURVE SMOOTH"
);
}
);
width = 624;
}
);
leftMetricsKey = T;
rightMetricsKey = T;
unicode = 0303;
},
{
glyphname = tildecomb.case;
lastChange = "2020-10-09 21:43:28 +0000";
layers = (
{
anchors = (
{
name = _top;
position = "{312, 1400}";
},
{
name = top;
position = "{312, 1663}";
}
);
layerId = "14A1E899-FED4-4F52-86F4-A1F822586E10";
paths = (
{
closed = 1;
nodes = (
"481 1507 OFFCURVE",
"529 1586 OFFCURVE",
"545 1633 CURVE",
"496 1659 LINE",
"482 1625 OFFCURVE",
"449 1585 OFFCURVE",
"409 1585 CURVE SMOOTH",
"350 1585 OFFCURVE",
"322 1663 OFFCURVE",
"225 1663 CURVE SMOOTH",
"145 1663 OFFCURVE",
"97 1583 OFFCURVE",
"79 1537 CURVE",
"128 1511 LINE",
"146 1545 OFFCURVE",
"185 1585 OFFCURVE",
"225 1585 CURVE SMOOTH",
"284 1585 OFFCURVE",
"308 1507 OFFCURVE",
"405 1507 CURVE SMOOTH"
);
}
);
width = 624;
}
);
leftMetricsKey = T;
rightMetricsKey = T;
},
{
glyphname = macroncomb;
lastChange = "2020-09-04 16:41:17 +0000";
layers = (
{
anchors = (
{
name = _top;
position = "{292, 926}";
},
{
name = top;
position = "{292, 1266}";
}
);
layerId = "14A1E899-FED4-4F52-86F4-A1F822586E10";
paths = (
{
closed = 1;
nodes = (
"505 1214 LINE",
"505 1266 LINE",
"79 1266 LINE",
"79 1214 LINE"
);
}
);
width = 584;
}
);
leftMetricsKey = T;
rightMetricsKey = T;
unicode = 0304;
},
{
glyphname = macroncomb.case;
lastChange = "2020-10-09 21:43:30 +0000";
layers = (
{
anchors = (
{
name = _top;
position = "{292, 1400}";
},
{
name = top;
position = "{292, 1576}";
}
);
layerId = "14A1E899-FED4-4F52-86F4-A1F822586E10";
paths = (
{
closed = 1;
nodes = (
"505 1524 LINE",
"505 1576 LINE",
"79 1576 LINE",
"79 1524 LINE"
);
}
);
width = 584;
}
);
leftMetricsKey = T;
rightMetricsKey = T;
},
{
glyphname = hookabovecomb;
lastChange = "2020-09-04 02:19:51 +0000";
layers = (
{
anchors = (
{
name = _top;
position = "{232, 926}";
},
{
name = top;
position = "{232, 1350}";
}
);
layerId = "14A1E899-FED4-4F52-86F4-A1F822586E10";
paths = (
{
closed = 1;
nodes = (
"248 1093 OFFCURVE",
"302 1150 OFFCURVE",
"302 1203 CURVE SMOOTH",
"302 1255 OFFCURVE",
"267 1283 OFFCURVE",
"213 1283 CURVE SMOOTH",
"165 1283 OFFCURVE",
"131 1271 OFFCURVE",
"104 1259 CURVE",
"79 1323 LINE",
"107 1334 OFFCURVE",
"149 1350 OFFCURVE",
"214 1350 CURVE SMOOTH",
"309 1350 OFFCURVE",
"405 1331 OFFCURVE",
"405 1231 CURVE SMOOTH",
"405 1160 OFFCURVE",
"308 1060 OFFCURVE",
"246 998 CURVE",
"192 1035 LINE"
);
}
);
width = 484;
}
);
leftMetricsKey = T;
rightMetricsKey = T;
unicode = 0309;
},
{
glyphname = hookabovecomb.case;
lastChange = "2020-09-04 02:55:35 +0000";
layers = (
{
anchors = (
{
name = _top;
position = "{242, 1400}";
},
{
name = top;
position = "{242, 1789}";
}
);
layerId = "14A1E899-FED4-4F52-86F4-A1F822586E10";
paths = (
{
closed = 1;
nodes = (
"248 1503 OFFCURVE",
"302 1549 OFFCURVE",
"302 1602 CURVE SMOOTH",
"302 1654 OFFCURVE",
"267 1682 OFFCURVE",
"213 1682 CURVE SMOOTH",
"165 1682 OFFCURVE",
"131 1670 OFFCURVE",
"104 1658 CURVE",
"79 1722 LINE",
"107 1733 OFFCURVE",
"149 1749 OFFCURVE",
"214 1749 CURVE SMOOTH",
"309 1749 OFFCURVE",
"405 1730 OFFCURVE",
"405 1630 CURVE SMOOTH",
"405 1559 OFFCURVE",
"308 1470 OFFCURVE",
"246 1437 CURVE",
"192 1474 LINE"
);
}
);
width = 484;
}
);
leftMetricsKey = T;
rightMetricsKey = T;
},
{
glyphname = breveinvertedcomb;
lastChange = "2020-10-09 21:04:46 +0000";
layers = (
{
anchors = (
{
name = _top;
position = "{281, 826}";
},
{
name = top;
position = "{281, 1347}";
}
);
layerId = "14A1E899-FED4-4F52-86F4-A1F822586E10";
paths = (
{
closed = 1;
nodes = (
"483 1163 LINE",
"473 1223 OFFCURVE",
"415 1347 OFFCURVE",
"281 1347 CURVE SMOOTH",
"147 1347 OFFCURVE",
"89 1223 OFFCURVE",
"79 1163 CURVE",
"139 1143 LINE",
"149 1197 OFFCURVE",
"189 1267 OFFCURVE",
"281 1267 CURVE SMOOTH",
"373 1267 OFFCURVE",
"413 1197 OFFCURVE",
"423 1143 CURVE"
);
}
);
width = 590;
}
);
unicode = 0311;
},
{
glyphname = breveinvertedcomb.case;
lastChange = "2020-10-09 21:43:34 +0000";
layers = (
{
anchors = (
{
name = _top;
position = "{281, 1400}";
},
{
name = top;
position = "{281, 1688}";
}
);
layerId = "14A1E899-FED4-4F52-86F4-A1F822586E10";
paths = (
{
closed = 1;
nodes = (
"483 1504 LINE",
"473 1564 OFFCURVE",
"415 1688 OFFCURVE",
"281 1688 CURVE SMOOTH",
"147 1688 OFFCURVE",
"89 1564 OFFCURVE",
"79 1504 CURVE",
"139 1484 LINE",
"149 1538 OFFCURVE",
"189 1608 OFFCURVE",
"281 1608 CURVE SMOOTH",
"373 1608 OFFCURVE",
"413 1538 OFFCURVE",
"423 1484 CURVE"
);
}
);
width = 590;
}
);
},
{
glyphname = commaturnedabovecomb;
lastChange = "2020-09-04 01:52:36 +0000";
layers = (
{
anchors = (
{
name = _top;
position = "{198, 926}";
},
{
name = top;
position = "{198, 1403}";
}
);
layerId = "14A1E899-FED4-4F52-86F4-A1F822586E10";
paths = (
{
closed = 1;
nodes = (
"222 1397 OFFCURVE",
"110 1348 OFFCURVE",
"110 1226 CURVE SMOOTH",
"110 1166 OFFCURVE",
"148 1131 OFFCURVE",
"198 1131 CURVE SMOOTH",
"247 1131 OFFCURVE",
"286 1159 OFFCURVE",
"286 1209 CURVE SMOOTH",
"286 1257 OFFCURVE",
"263 1290 OFFCURVE",
"216 1290 CURVE SMOOTH",
"199 1290 OFFCURVE",
"185 1281 OFFCURVE",
"182 1277 CURVE",
"182 1307 OFFCURVE",
"208 1338 OFFCURVE",
"267 1365 CURVE",
"249 1403 LINE"
);
}
);
width = 392;
}
);
unicode = 0312;
},
{
glyphname = commaturnedabovecomb.case;
lastChange = "2020-09-04 02:55:42 +0000";
layers = (
{
anchors = (
{
name = _top;
position = "{198, 1400}";
},
{
name = top;
position = "{198, 1720}";
}
);
layerId = "14A1E899-FED4-4F52-86F4-A1F822586E10";
paths = (
{
closed = 1;
nodes = (
"222 1714 OFFCURVE",
"110 1665 OFFCURVE",
"110 1543 CURVE SMOOTH",
"110 1483 OFFCURVE",
"148 1448 OFFCURVE",
"198 1448 CURVE SMOOTH",
"247 1448 OFFCURVE",
"286 1476 OFFCURVE",
"286 1526 CURVE SMOOTH",
"286 1574 OFFCURVE",
"263 1607 OFFCURVE",
"216 1607 CURVE SMOOTH",
"199 1607 OFFCURVE",
"185 1598 OFFCURVE",
"182 1594 CURVE",
"182 1624 OFFCURVE",
"208 1655 OFFCURVE",
"267 1682 CURVE",
"249 1720 LINE"
);
}
);
width = 392;
}
);
},
{
glyphname = horncomb;
lastChange = "2020-09-04 02:42:20 +0000";
layers = (
{
anchors = (
{
name = _topright;
position = "{79, 928}";
},
{
name = topright;
position = "{396, 1249}";
}
);
layerId = "14A1E899-FED4-4F52-86F4-A1F822586E10";
paths = (
{
closed = 1;
nodes = (
"249 879 OFFCURVE",
"375 982 OFFCURVE",
"395 1209 CURVE",
"276 1249 LINE",
"256 1053 OFFCURVE",
"212 928 OFFCURVE",
"79 928 CURVE",
"119 864 LINE"
);
}
);
width = 474;
}
);
leftMetricsKey = T;
rightMetricsKey = T;
unicode = 031B;
},
{
glyphname = horncomb.case;
lastChange = "2020-09-04 02:55:52 +0000";
layers = (
{
anchors = (
{
name = _topright;
position = "{79, 1400}";
},
{
name = topright;
position = "{396, 1721}";
}
);
layerId = "14A1E899-FED4-4F52-86F4-A1F822586E10";
paths = (
{
closed = 1;
nodes = (
"249 1351 OFFCURVE",
"375 1454 OFFCURVE",
"395 1681 CURVE",
"276 1721 LINE",
"256 1525 OFFCURVE",
"212 1400 OFFCURVE",
"79 1400 CURVE",
"119 1336 LINE"
);
}
);
width = 474;
}
);
leftMetricsKey = T;
rightMetricsKey = T;
},
{
glyphname = dotbelowcomb;
lastChange = "2020-09-04 02:11:12 +0000";
layers = (
{
anchors = (
{
name = _bottom;
position = "{184, 0}";
},
{
name = bottom;
position = "{184, -373}";
}
);
layerId = "14A1E899-FED4-4F52-86F4-A1F822586E10";
paths = (
{
closed = 1;
nodes = (
"241 -373 OFFCURVE",
"289 -325 OFFCURVE",
"289 -267 CURVE SMOOTH",
"289 -209 OFFCURVE",
"241 -161 OFFCURVE",
"185 -161 CURVE SMOOTH",
"127 -161 OFFCURVE",
"79 -209 OFFCURVE",
"79 -267 CURVE SMOOTH",
"79 -325 OFFCURVE",
"127 -373 OFFCURVE",
"185 -373 CURVE SMOOTH"
);
}
);
width = 368;
}
);
unicode = 0323;
},
{
glyphname = dotbelowcomb.case;
lastChange = "2020-09-04 02:53:23 +0000";
layers = (
{
anchors = (
{
name = _bottom;
position = "{184, 0}";
},
{
name = bottom;
position = "{184, -373}";
}
);
layerId = "14A1E899-FED4-4F52-86F4-A1F822586E10";
paths = (
{
closed = 1;
nodes = (
"241 -373 OFFCURVE",
"289 -325 OFFCURVE",
"289 -267 CURVE SMOOTH",
"289 -209 OFFCURVE",
"241 -161 OFFCURVE",
"185 -161 CURVE SMOOTH",
"127 -161 OFFCURVE",
"79 -209 OFFCURVE",
"79 -267 CURVE SMOOTH",
"79 -325 OFFCURVE",
"127 -373 OFFCURVE",
"185 -373 CURVE SMOOTH"
);
}
);
width = 368;
}
);
},
{
glyphname = commaaccentcomb;
lastChange = "2020-09-04 01:52:49 +0000";
layers = (
{
anchors = (
{
name = _bottom;
position = "{185, 0}";
},
{
name = bottom;
position = "{185, -394}";
}
);
layerId = "14A1E899-FED4-4F52-86F4-A1F822586E10";
paths = (
{
closed = 1;
nodes = (
"161 -388 OFFCURVE",
"273 -339 OFFCURVE",
"273 -217 CURVE SMOOTH",
"273 -157 OFFCURVE",
"235 -122 OFFCURVE",
"185 -122 CURVE SMOOTH",
"136 -122 OFFCURVE",
"97 -150 OFFCURVE",
"97 -200 CURVE SMOOTH",
"97 -248 OFFCURVE",
"120 -281 OFFCURVE",
"167 -281 CURVE SMOOTH",
"184 -281 OFFCURVE",
"198 -272 OFFCURVE",
"201 -268 CURVE",
"201 -298 OFFCURVE",
"175 -329 OFFCURVE",
"116 -356 CURVE",
"134 -394 LINE"
);
}
);
width = 400;
}
);
unicode = 0326;
},
{
glyphname = commaaccentcomb.case;
lastChange = "2020-09-04 02:53:23 +0000";
layers = (
{
anchors = (
{
name = _bottom;
position = "{185, 0}";
},
{
name = bottom;
position = "{185, -394}";
}
);
layerId = "14A1E899-FED4-4F52-86F4-A1F822586E10";
paths = (
{
closed = 1;
nodes = (
"161 -388 OFFCURVE",
"273 -339 OFFCURVE",
"273 -217 CURVE SMOOTH",
"273 -157 OFFCURVE",
"235 -122 OFFCURVE",
"185 -122 CURVE SMOOTH",
"136 -122 OFFCURVE",
"97 -150 OFFCURVE",
"97 -200 CURVE SMOOTH",
"97 -248 OFFCURVE",
"120 -281 OFFCURVE",
"167 -281 CURVE SMOOTH",
"184 -281 OFFCURVE",
"198 -272 OFFCURVE",
"201 -268 CURVE",
"201 -298 OFFCURVE",
"175 -329 OFFCURVE",
"116 -356 CURVE",
"134 -394 LINE"
);
}
);
width = 400;
}
);
},
{
glyphname = cedillacomb;
lastChange = "2020-09-04 02:08:52 +0000";
layers = (
{
anchors = (
{
name = _bottom;
position = "{174, 0}";
},
{
name = bottom;
position = "{219, -357}";
}
);
layerId = "14A1E899-FED4-4F52-86F4-A1F822586E10";
paths = (
{
closed = 1;
nodes = (
"258 -357 OFFCURVE",
"374 -315 OFFCURVE",
"374 -216 CURVE SMOOTH",
"374 -151 OFFCURVE",
"328 -110 OFFCURVE",
"263 -110 CURVE SMOOTH",
"233 -110 OFFCURVE",
"210 -119 OFFCURVE",
"203 -124 CURVE",
"218 0 LINE",
"139 0 LINE",
"116 -184 LINE",
"135 -180 OFFCURVE",
"162 -176 OFFCURVE",
"193 -176 CURVE SMOOTH",
"222 -176 OFFCURVE",
"259 -184 OFFCURVE",
"259 -225 CURVE SMOOTH",
"259 -281 OFFCURVE",
"199 -291 OFFCURVE",
"153 -291 CURVE SMOOTH",
"123 -291 OFFCURVE",
"103 -287 OFFCURVE",
"89 -283 CURVE",
"79 -349 LINE",
"96 -354 OFFCURVE",
"123 -357 OFFCURVE",
"155 -357 CURVE SMOOTH"
);
}
);
width = 453;
}
);
leftMetricsKey = T;
rightMetricsKey = T;
unicode = 0327;
},
{
glyphname = cedillacomb.case;
lastChange = "2020-09-04 02:53:23 +0000";
layers = (
{
anchors = (
{
name = _bottom;
position = "{174, 0}";
},
{
name = bottom;
position = "{219, -357}";
}
);
layerId = "14A1E899-FED4-4F52-86F4-A1F822586E10";
paths = (
{
closed = 1;
nodes = (
"258 -357 OFFCURVE",
"374 -315 OFFCURVE",
"374 -216 CURVE SMOOTH",
"374 -151 OFFCURVE",
"328 -110 OFFCURVE",
"263 -110 CURVE SMOOTH",
"233 -110 OFFCURVE",
"210 -119 OFFCURVE",
"203 -124 CURVE",
"218 0 LINE",
"139 0 LINE",
"116 -184 LINE",
"135 -180 OFFCURVE",
"162 -176 OFFCURVE",
"193 -176 CURVE SMOOTH",
"222 -176 OFFCURVE",
"259 -184 OFFCURVE",
"259 -225 CURVE SMOOTH",
"259 -281 OFFCURVE",
"199 -291 OFFCURVE",
"153 -291 CURVE SMOOTH",
"123 -291 OFFCURVE",
"103 -287 OFFCURVE",
"89 -283 CURVE",
"79 -349 LINE",
"96 -354 OFFCURVE",
"123 -357 OFFCURVE",
"155 -357 CURVE SMOOTH"
);
}
);
width = 453;
}
);
leftMetricsKey = T;
rightMetricsKey = T;
},
{
glyphname = ogonekcomb;
lastChange = "2020-09-04 02:49:25 +0000";
layers = (
{
anchors = (
{
name = _ogonek;
position = "{247, 0}";
}
);
layerId = "14A1E899-FED4-4F52-86F4-A1F822586E10";
paths = (
{
closed = 1;
nodes = (
"333 -366 OFFCURVE",
"406 -333 OFFCURVE",
"456 -302 CURVE",
"426 -254 LINE",
"376 -283 OFFCURVE",
"324 -294 OFFCURVE",
"274 -294 CURVE SMOOTH",
"213 -294 OFFCURVE",
"174 -232 OFFCURVE",
"174 -184 CURVE SMOOTH",
"174 -116 OFFCURVE",
"206 -64 OFFCURVE",
"247 0 CURVE",
"167 0 LINE",
"120 -53 OFFCURVE",
"79 -108 OFFCURVE",
"79 -217 CURVE SMOOTH",
"79 -321 OFFCURVE",
"159 -366 OFFCURVE",
"249 -366 CURVE SMOOTH"
);
}
);
width = 535;
}
);
leftMetricsKey = T;
rightMetricsKey = T;
unicode = 0328;
},
{
glyphname = ogonekcomb.case;
lastChange = "2020-09-04 02:53:23 +0000";
layers = (
{
anchors = (
{
name = _ogonek;
position = "{247, 0}";
}
);
layerId = "14A1E899-FED4-4F52-86F4-A1F822586E10";
paths = (
{
closed = 1;
nodes = (
"333 -366 OFFCURVE",
"406 -333 OFFCURVE",
"456 -302 CURVE",
"426 -254 LINE",
"376 -283 OFFCURVE",
"324 -294 OFFCURVE",
"274 -294 CURVE SMOOTH",
"213 -294 OFFCURVE",
"174 -232 OFFCURVE",
"174 -184 CURVE SMOOTH",
"174 -116 OFFCURVE",
"206 -64 OFFCURVE",
"247 0 CURVE",
"167 0 LINE",
"120 -53 OFFCURVE",
"79 -108 OFFCURVE",
"79 -217 CURVE SMOOTH",
"79 -321 OFFCURVE",
"159 -366 OFFCURVE",
"249 -366 CURVE SMOOTH"
);
}
);
width = 535;
}
);
leftMetricsKey = T;
rightMetricsKey = T;
},
{
glyphname = strokeshortcomb;
lastChange = "2020-09-04 02:00:44 +0000";
layers = (
{
anchors = (
{
name = _center;
position = "{431, 491}";
}
);
layerId = "14A1E899-FED4-4F52-86F4-A1F822586E10";
paths = (
{
closed = 1;
nodes = (
"742 450 LINE",
"742 532 LINE",
"120 532 LINE",
"120 450 LINE"
);
}
);
width = 898;
}
);
unicode = 0335;
},
{
glyphname = strokelongcomb;
lastChange = "2020-09-04 02:00:48 +0000";
layers = (
{
anchors = (
{
name = _center;
position = "{431, 491}";
}
);
layerId = "14A1E899-FED4-4F52-86F4-A1F822586E10";
paths = (
{
closed = 1;
nodes = (
"742 450 LINE",
"742 532 LINE",
"120 532 LINE",
"120 450 LINE"
);
}
);
width = 880;
}
);
unicode = 0336;
},
{
glyphname = slashshortcomb;
lastChange = "2020-09-04 02:01:22 +0000";
layers = (
{
anchors = (
{
name = _center;
position = "{399, 455}";
}
);
layerId = "14A1E899-FED4-4F52-86F4-A1F822586E10";
paths = (
{
closed = 1;
nodes = (
"188 -76 LINE",
"698 952 LINE",
"612 986 LINE",
"100 -42 LINE"
);
}
);
width = 854;
}
);
unicode = 0337;
},
{
glyphname = slashlongcomb;
lastChange = "2020-09-04 02:01:39 +0000";
layers = (
{
anchors = (
{
name = _center;
position = "{443, 676}";
}
);
layerId = "14A1E899-FED4-4F52-86F4-A1F822586E10";
paths = (
{
closed = 1;
nodes = (
"199 -179 LINE",
"777 1500 LINE",
"689 1530 LINE",
"108 -149 LINE"
);
}
);
width = 854;
}
);
unicode = 0338;
},
{
glyphname = hungarumlaut;
lastChange = "2020-08-27 16:01:12 +0000";
layers = (
{
layerId = "14A1E899-FED4-4F52-86F4-A1F822586E10";
paths = (
{
closed = 1;
nodes = (
"402 1188 OFFCURVE",
"404 1190 OFFCURVE",
"410 1194 CURVE SMOOTH",
"454 1222 OFFCURVE",
"650 1354 OFFCURVE",
"676 1372 CURVE SMOOTH",
"694 1386 OFFCURVE",
"701 1403 OFFCURVE",
"701 1419 CURVE SMOOTH",
"701 1451 OFFCURVE",
"673 1480 OFFCURVE",
"640 1480 CURVE SMOOTH",
"626 1480 OFFCURVE",
"612 1475 OFFCURVE",
"598 1462 CURVE SMOOTH",
"582 1446 OFFCURVE",
"424 1276 OFFCURVE",
"380 1230 CURVE SMOOTH",
"376 1226 OFFCURVE",
"376 1222 OFFCURVE",
"380 1216 CURVE SMOOTH",
"386 1208 OFFCURVE",
"396 1196 OFFCURVE",
"400 1190 CURVE SMOOTH"
);
},
{
closed = 1;
nodes = (
"128 1188 OFFCURVE",
"130 1190 OFFCURVE",
"136 1194 CURVE SMOOTH",
"180 1222 OFFCURVE",
"376 1354 OFFCURVE",
"402 1372 CURVE SMOOTH",
"420 1386 OFFCURVE",
"427 1403 OFFCURVE",
"427 1419 CURVE SMOOTH",
"427 1451 OFFCURVE",
"399 1480 OFFCURVE",
"366 1480 CURVE SMOOTH",
"352 1480 OFFCURVE",
"338 1475 OFFCURVE",
"324 1462 CURVE SMOOTH",
"308 1446 OFFCURVE",
"150 1276 OFFCURVE",
"106 1230 CURVE SMOOTH",
"102 1226 OFFCURVE",
"102 1222 OFFCURVE",
"106 1216 CURVE SMOOTH",
"112 1208 OFFCURVE",
"122 1196 OFFCURVE",
"126 1190 CURVE SMOOTH"
);
}
);
width = 860;
}
);
unicode = 02DD;
},
{
glyphname = caron;
lastChange = "2020-08-27 16:01:06 +0000";
layers = (
{
layerId = "14A1E899-FED4-4F52-86F4-A1F822586E10";
paths = (
{
closed = 1;
nodes = (
"330 1264 LINE",
"486 1472 LINE",
"418 1472 LINE",
"284 1344 LINE",
"284 1264 LINE"
);
},
{
closed = 1;
nodes = (
"284 1264 LINE",
"284 1344 LINE",
"150 1472 LINE",
"82 1472 LINE",
"238 1264 LINE"
);
}
);
width = 588;
}
);
unicode = 02C7;
},
{
glyphname = breve;
lastChange = "2020-08-27 16:01:06 +0000";
layers = (
{
layerId = "14A1E899-FED4-4F52-86F4-A1F822586E10";
paths = (
{
closed = 1;
nodes = (
"418 1258 OFFCURVE",
"486 1372 OFFCURVE",
"486 1472 CURVE",
"406 1472 LINE",
"406 1418 OFFCURVE",
"366 1338 OFFCURVE",
"284 1338 CURVE",
"284 1258 LINE"
);
},
{
closed = 1;
nodes = (
"284 1338 LINE",
"202 1338 OFFCURVE",
"162 1418 OFFCURVE",
"162 1472 CURVE",
"82 1472 LINE",
"82 1372 OFFCURVE",
"150 1258 OFFCURVE",
"284 1258 CURVE"
);
}
);
width = 590;
}
);
unicode = 02D8;
},
{
glyphname = ring;
lastChange = "2020-08-26 17:59:45 +0000";
layers = (
{
layerId = "14A1E899-FED4-4F52-86F4-A1F822586E10";
paths = (
{
closed = 1;
nodes = (
"260 1126 OFFCURVE",
"320 1186 OFFCURVE",
"320 1262 CURVE SMOOTH",
"320 1338 OFFCURVE",
"260 1398 OFFCURVE",
"184 1398 CURVE SMOOTH",
"108 1398 OFFCURVE",
"48 1338 OFFCURVE",
"48 1262 CURVE SMOOTH",
"48 1186 OFFCURVE",
"108 1126 OFFCURVE",
"184 1126 CURVE SMOOTH"
);
},
{
closed = 1;
nodes = (
"140 1182 OFFCURVE",
"104 1218 OFFCURVE",
"104 1264 CURVE SMOOTH",
"104 1308 OFFCURVE",
"140 1344 OFFCURVE",
"184 1344 CURVE SMOOTH",
"228 1344 OFFCURVE",
"264 1308 OFFCURVE",
"264 1264 CURVE SMOOTH",
"264 1218 OFFCURVE",
"228 1182 OFFCURVE",
"184 1182 CURVE SMOOTH"
);
}
);
width = 380;
}
);
unicode = 02DA;
},
{
glyphname = macron;
lastChange = "2020-08-27 16:01:06 +0000";
layers = (
{
layerId = "14A1E899-FED4-4F52-86F4-A1F822586E10";
paths = (
{
closed = 1;
nodes = (
"830 1340 LINE SMOOTH",
"836 1340 OFFCURVE",
"840 1344 OFFCURVE",
"840 1350 CURVE SMOOTH",
"840 1382 LINE SMOOTH",
"840 1388 OFFCURVE",
"836 1392 OFFCURVE",
"830 1392 CURVE SMOOTH",
"106 1392 LINE SMOOTH",
"100 1392 OFFCURVE",
"96 1388 OFFCURVE",
"96 1382 CURVE SMOOTH",
"96 1350 LINE SMOOTH",
"96 1344 OFFCURVE",
"100 1340 OFFCURVE",
"106 1340 CURVE SMOOTH"
);
}
);
width = 940;
}
);
unicode = 00AF;
},
